<?xml version="1.0" encoding="utf-8"?>
<svg xmlns="http://www.w3.org/2000/svg" xmlns:xlink="http://www.w3.org/1999/xlink" width="150" height="100" viewBox="0 0 600 400">
<defs>
  <clipPath id="clip790">
    <rect x="0" y="0" width="600" height="400"/>
  </clipPath>
</defs>
<path clip-path="url(#clip790)" d="
M0 400 L600 400 L600 0 L0 0  Z
  " fill="#ffffff" fill-rule="evenodd" fill-opacity="1"/>
<defs>
  <clipPath id="clip791">
    <rect x="120" y="0" width="421" height="400"/>
  </clipPath>
</defs>
<path clip-path="url(#clip790)" d="
M52.9006 355.795 L588.189 355.795 L588.189 30.868 L52.9006 30.868  Z
  " fill="#ffffff" fill-rule="evenodd" fill-opacity="1"/>
<defs>
  <clipPath id="clip792">
    <rect x="52" y="30" width="536" height="326"/>
  </clipPath>
</defs>
<polyline clip-path="url(#clip790)" style="stroke:#000000; stroke-width:1; stroke-opacity:1; fill:none" points="
  52.9006,355.795 588.189,355.795 
  "/>
<polyline clip-path="url(#clip790)" style="stroke:#000000; stroke-width:1; stroke-opacity:1; fill:none" points="
  54.1277,355.795 54.1277,351.896 
  "/>
<polyline clip-path="url(#clip790)" style="stroke:#000000; stroke-width:1; stroke-opacity:1; fill:none" points="
  193.43,355.795 193.43,351.896 
  "/>
<polyline clip-path="url(#clip790)" style="stroke:#000000; stroke-width:1; stroke-opacity:1; fill:none" points="
  332.77,355.795 332.77,351.896 
  "/>
<polyline clip-path="url(#clip790)" style="stroke:#000000; stroke-width:1; stroke-opacity:1; fill:none" points="
  472.072,355.795 472.072,351.896 
  "/>
<path clip-path="url(#clip790)" d="M 0 0 M24.7529 369.979 L26.6626 369.979 L26.6626 363.388 L24.585 363.804 L24.585 362.74 L26.651 362.323 L27.82 362.323 L27.82 369.979 L29.7297 369.979 L29.7297 370.963 L24.7529 370.963 L24.7529 369.979 Z" fill="#000000" fill-rule="evenodd" fill-opacity="1" /><path clip-path="url(#clip790)" d="M 0 0 M31.0318 370.784 L31.0318 369.719 Q31.4716 369.927 31.923 370.037 Q32.3743 370.147 32.8084 370.147 Q33.9658 370.147 34.5734 369.372 Q35.1868 368.59 35.2736 367.005 Q34.938 367.502 34.4229 367.769 Q33.9079 368.035 33.2829 368.035 Q31.9866 368.035 31.2285 367.253 Q30.4762 366.466 30.4762 365.107 Q30.4762 363.775 31.2632 362.971 Q32.0503 362.167 33.3581 362.167 Q34.857 362.167 35.644 363.318 Q36.4368 364.464 36.4368 366.652 Q36.4368 368.694 35.4646 369.916 Q34.4982 371.131 32.8605 371.131 Q32.4206 371.131 31.9693 371.044 Q31.5179 370.957 31.0318 370.784 M33.3581 367.12 Q34.1452 367.12 34.6023 366.582 Q35.0653 366.044 35.0653 365.107 Q35.0653 364.175 34.6023 363.637 Q34.1452 363.093 33.3581 363.093 Q32.5711 363.093 32.1081 363.637 Q31.651 364.175 31.651 365.107 Q31.651 366.044 32.1081 366.582 Q32.5711 367.12 33.3581 367.12 Z" fill="#000000" fill-rule="evenodd" fill-opacity="1" /><path clip-path="url(#clip790)" d="M 0 0 M40.2042 366.86 Q39.3708 366.86 38.8905 367.306 Q38.416 367.751 38.416 368.532 Q38.416 369.314 38.8905 369.759 Q39.3708 370.205 40.2042 370.205 Q41.0375 370.205 41.5178 369.759 Q41.9981 369.308 41.9981 368.532 Q41.9981 367.751 41.5178 367.306 Q41.0433 366.86 40.2042 366.86 M39.0352 366.362 Q38.2829 366.177 37.8604 365.662 Q37.4438 365.147 37.4438 364.406 Q37.4438 363.37 38.1787 362.769 Q38.9194 362.167 40.2042 362.167 Q41.4947 362.167 42.2296 362.769 Q42.9646 363.37 42.9646 364.406 Q42.9646 365.147 42.5421 365.662 Q42.1254 366.177 41.3789 366.362 Q42.2238 366.559 42.6926 367.132 Q43.1671 367.705 43.1671 368.532 Q43.1671 369.788 42.3974 370.459 Q41.6336 371.131 40.2042 371.131 Q38.7748 371.131 38.0051 370.459 Q37.2412 369.788 37.2412 368.532 Q37.2412 367.705 37.7158 367.132 Q38.1903 366.559 39.0352 366.362 M38.6069 364.516 Q38.6069 365.188 39.0236 365.564 Q39.4461 365.94 40.2042 365.94 Q40.9565 365.94 41.3789 365.564 Q41.8072 365.188 41.8072 364.516 Q41.8072 363.845 41.3789 363.469 Q40.9565 363.093 40.2042 363.093 Q39.4461 363.093 39.0236 363.469 Q38.6069 363.845 38.6069 364.516 Z" fill="#000000" fill-rule="evenodd" fill-opacity="1" /><path clip-path="url(#clip790)" d="M 0 0 M44.4692 370.784 L44.4692 369.719 Q44.909 369.927 45.3604 370.037 Q45.8118 370.147 46.2458 370.147 Q47.4032 370.147 48.0108 369.372 Q48.6243 368.59 48.7111 367.005 Q48.3754 367.502 47.8604 367.769 Q47.3453 368.035 46.7203 368.035 Q45.424 368.035 44.6659 367.253 Q43.9136 366.466 43.9136 365.107 Q43.9136 363.775 44.7007 362.971 Q45.4877 362.167 46.7956 362.167 Q48.2944 362.167 49.0814 363.318 Q49.8742 364.464 49.8742 366.652 Q49.8742 368.694 48.902 369.916 Q47.9356 371.131 46.2979 371.131 Q45.8581 371.131 45.4067 371.044 Q44.9553 370.957 44.4692 370.784 M46.7956 367.12 Q47.5826 367.12 48.0398 366.582 Q48.5027 366.044 48.5027 365.107 Q48.5027 364.175 48.0398 363.637 Q47.5826 363.093 46.7956 363.093 Q46.0085 363.093 45.5456 363.637 Q45.0884 364.175 45.0884 365.107 Q45.0884 366.044 45.5456 366.582 Q46.0085 367.12 46.7956 367.12 Z" fill="#000000" fill-rule="evenodd" fill-opacity="1" /><path clip-path="url(#clip790)" d="M 0 0 M50.453 367.242 L53.5721 367.242 L53.5721 368.191 L50.453 368.191 L50.453 367.242 Z" fill="#000000" fill-rule="evenodd" fill-opacity="1" /><path clip-path="url(#clip790)" d="M 0 0 M57.3395 363.093 Q56.4367 363.093 55.9795 363.984 Q55.5282 364.869 55.5282 366.652 Q55.5282 368.428 55.9795 369.319 Q56.4367 370.205 57.3395 370.205 Q58.248 370.205 58.6994 369.319 Q59.1566 368.428 59.1566 366.652 Q59.1566 364.869 58.6994 363.984 Q58.248 363.093 57.3395 363.093 M57.3395 362.167 Q58.792 362.167 59.5559 363.318 Q60.3256 364.464 60.3256 366.652 Q60.3256 368.833 59.5559 369.985 Q58.792 371.131 57.3395 371.131 Q55.8869 371.131 55.1173 369.985 Q54.3534 368.833 54.3534 366.652 Q54.3534 364.464 55.1173 363.318 Q55.8869 362.167 57.3395 362.167 Z" fill="#000000" fill-rule="evenodd" fill-opacity="1" /><path clip-path="url(#clip790)" d="M 0 0 M61.7955 369.979 L63.7052 369.979 L63.7052 363.388 L61.6277 363.804 L61.6277 362.74 L63.6936 362.323 L64.8626 362.323 L64.8626 369.979 L66.7723 369.979 L66.7723 370.963 L61.7955 370.963 L61.7955 369.979 Z" fill="#000000" fill-rule="evenodd" fill-opacity="1" /><path clip-path="url(#clip790)" d="M 0 0 M67.351 367.242 L70.4702 367.242 L70.4702 368.191 L67.351 368.191 L67.351 367.242 Z" fill="#000000" fill-rule="evenodd" fill-opacity="1" /><path clip-path="url(#clip790)" d="M 0 0 M74.2375 363.093 Q73.3348 363.093 72.8776 363.984 Q72.4262 364.869 72.4262 366.652 Q72.4262 368.428 72.8776 369.319 Q73.3348 370.205 74.2375 370.205 Q75.1461 370.205 75.5975 369.319 Q76.0547 368.428 76.0547 366.652 Q76.0547 364.869 75.5975 363.984 Q75.1461 363.093 74.2375 363.093 M74.2375 362.167 Q75.6901 362.167 76.454 363.318 Q77.2236 364.464 77.2236 366.652 Q77.2236 368.833 76.454 369.985 Q75.6901 371.131 74.2375 371.131 Q72.785 371.131 72.0153 369.985 Q71.2515 368.833 71.2515 366.652 Q71.2515 364.464 72.0153 363.318 Q72.785 362.167 74.2375 362.167 Z" fill="#000000" fill-rule="evenodd" fill-opacity="1" /><path clip-path="url(#clip790)" d="M 0 0 M78.6935 369.979 L80.6033 369.979 L80.6033 363.388 L78.5257 363.804 L78.5257 362.74 L80.5917 362.323 L81.7607 362.323 L81.7607 369.979 L83.6704 369.979 L83.6704 370.963 L78.6935 370.963 L78.6935 369.979 Z" fill="#000000" fill-rule="evenodd" fill-opacity="1" /><path clip-path="url(#clip790)" d="M 0 0 M164.066 369.979 L165.976 369.979 L165.976 363.388 L163.899 363.804 L163.899 362.74 L165.965 362.323 L167.134 362.323 L167.134 369.979 L169.043 369.979 L169.043 370.963 L164.066 370.963 L164.066 369.979 Z" fill="#000000" fill-rule="evenodd" fill-opacity="1" /><path clip-path="url(#clip790)" d="M 0 0 M170.345 370.784 L170.345 369.719 Q170.785 369.927 171.237 370.037 Q171.688 370.147 172.122 370.147 Q173.279 370.147 173.887 369.372 Q174.5 368.59 174.587 367.005 Q174.252 367.502 173.737 367.769 Q173.222 368.035 172.597 368.035 Q171.3 368.035 170.542 367.253 Q169.79 366.466 169.79 365.107 Q169.79 363.775 170.577 362.971 Q171.364 362.167 172.672 362.167 Q174.171 362.167 174.958 363.318 Q175.75 364.464 175.75 366.652 Q175.75 368.694 174.778 369.916 Q173.812 371.131 172.174 371.131 Q171.734 371.131 171.283 371.044 Q170.831 370.957 170.345 370.784 M172.672 367.12 Q173.459 367.12 173.916 366.582 Q174.379 366.044 174.379 365.107 Q174.379 364.175 173.916 363.637 Q173.459 363.093 172.672 363.093 Q171.885 363.093 171.422 363.637 Q170.965 364.175 170.965 365.107 Q170.965 366.044 171.422 366.582 Q171.885 367.12 172.672 367.12 Z" fill="#000000" fill-rule="evenodd" fill-opacity="1" /><path clip-path="url(#clip790)" d="M 0 0 M177.053 370.784 L177.053 369.719 Q177.492 369.927 177.944 370.037 Q178.395 370.147 178.829 370.147 Q179.987 370.147 180.594 369.372 Q181.208 368.59 181.294 367.005 Q180.959 367.502 180.444 367.769 Q179.929 368.035 179.304 368.035 Q178.007 368.035 177.249 367.253 Q176.497 366.466 176.497 365.107 Q176.497 363.775 177.284 362.971 Q178.071 362.167 179.379 362.167 Q180.878 362.167 181.665 363.318 Q182.458 364.464 182.458 366.652 Q182.458 368.694 181.485 369.916 Q180.519 371.131 178.881 371.131 Q178.441 371.131 177.99 371.044 Q177.539 370.957 177.053 370.784 M179.379 367.12 Q180.166 367.12 180.623 366.582 Q181.086 366.044 181.086 365.107 Q181.086 364.175 180.623 363.637 Q180.166 363.093 179.379 363.093 Q178.592 363.093 178.129 363.637 Q177.672 364.175 177.672 365.107 Q177.672 366.044 178.129 366.582 Q178.592 367.12 179.379 367.12 Z" fill="#000000" fill-rule="evenodd" fill-opacity="1" /><path clip-path="url(#clip790)" d="M 0 0 M183.76 370.784 L183.76 369.719 Q184.199 369.927 184.651 370.037 Q185.102 370.147 185.536 370.147 Q186.694 370.147 187.301 369.372 Q187.915 368.59 188.002 367.005 Q187.666 367.502 187.151 367.769 Q186.636 368.035 186.011 368.035 Q184.715 368.035 183.956 367.253 Q183.204 366.466 183.204 365.107 Q183.204 363.775 183.991 362.971 Q184.778 362.167 186.086 362.167 Q187.585 362.167 188.372 363.318 Q189.165 364.464 189.165 366.652 Q189.165 368.694 188.193 369.916 Q187.226 371.131 185.588 371.131 Q185.149 371.131 184.697 371.044 Q184.246 370.957 183.76 370.784 M186.086 367.12 Q186.873 367.12 187.33 366.582 Q187.793 366.044 187.793 365.107 Q187.793 364.175 187.33 363.637 Q186.873 363.093 186.086 363.093 Q185.299 363.093 184.836 363.637 Q184.379 364.175 184.379 365.107 Q184.379 366.044 184.836 366.582 Q185.299 367.12 186.086 367.12 Z" fill="#000000" fill-rule="evenodd" fill-opacity="1" /><path clip-path="url(#clip790)" d="M 0 0 M189.743 367.242 L192.863 367.242 L192.863 368.191 L189.743 368.191 L189.743 367.242 Z" fill="#000000" fill-rule="evenodd" fill-opacity="1" /><path clip-path="url(#clip790)" d="M 0 0 M196.63 363.093 Q195.727 363.093 195.27 363.984 Q194.819 364.869 194.819 366.652 Q194.819 368.428 195.27 369.319 Q195.727 370.205 196.63 370.205 Q197.539 370.205 197.99 369.319 Q198.447 368.428 198.447 366.652 Q198.447 364.869 197.99 363.984 Q197.539 363.093 196.63 363.093 M196.63 362.167 Q198.083 362.167 198.846 363.318 Q199.616 364.464 199.616 366.652 Q199.616 368.833 198.846 369.985 Q198.083 371.131 196.63 371.131 Q195.177 371.131 194.408 369.985 Q193.644 368.833 193.644 366.652 Q193.644 364.464 194.408 363.318 Q195.177 362.167 196.63 362.167 Z" fill="#000000" fill-rule="evenodd" fill-opacity="1" /><path clip-path="url(#clip790)" d="M 0 0 M201.086 369.979 L202.996 369.979 L202.996 363.388 L200.918 363.804 L200.918 362.74 L202.984 362.323 L204.153 362.323 L204.153 369.979 L206.063 369.979 L206.063 370.963 L201.086 370.963 L201.086 369.979 Z" fill="#000000" fill-rule="evenodd" fill-opacity="1" /><path clip-path="url(#clip790)" d="M 0 0 M206.641 367.242 L209.761 367.242 L209.761 368.191 L206.641 368.191 L206.641 367.242 Z" fill="#000000" fill-rule="evenodd" fill-opacity="1" /><path clip-path="url(#clip790)" d="M 0 0 M213.528 363.093 Q212.625 363.093 212.168 363.984 Q211.717 364.869 211.717 366.652 Q211.717 368.428 212.168 369.319 Q212.625 370.205 213.528 370.205 Q214.437 370.205 214.888 369.319 Q215.345 368.428 215.345 366.652 Q215.345 364.869 214.888 363.984 Q214.437 363.093 213.528 363.093 M213.528 362.167 Q214.981 362.167 215.744 363.318 Q216.514 364.464 216.514 366.652 Q216.514 368.833 215.744 369.985 Q214.981 371.131 213.528 371.131 Q212.075 371.131 211.306 369.985 Q210.542 368.833 210.542 366.652 Q210.542 364.464 211.306 363.318 Q212.075 362.167 213.528 362.167 Z" fill="#000000" fill-rule="evenodd" fill-opacity="1" /><path clip-path="url(#clip790)" d="M 0 0 M217.984 369.979 L219.894 369.979 L219.894 363.388 L217.816 363.804 L217.816 362.74 L219.882 362.323 L221.051 362.323 L221.051 369.979 L222.961 369.979 L222.961 370.963 L217.984 370.963 L217.984 369.979 Z" fill="#000000" fill-rule="evenodd" fill-opacity="1" /><path clip-path="url(#clip790)" d="M 0 0 M304.428 369.979 L308.508 369.979 L308.508 370.963 L303.022 370.963 L303.022 369.979 Q303.687 369.291 304.833 368.133 Q305.985 366.97 306.28 366.634 Q306.841 366.003 307.061 365.569 Q307.287 365.13 307.287 364.707 Q307.287 364.019 306.801 363.585 Q306.32 363.151 305.545 363.151 Q304.995 363.151 304.382 363.341 Q303.774 363.532 303.08 363.92 L303.08 362.74 Q303.786 362.456 304.399 362.311 Q305.013 362.167 305.522 362.167 Q306.864 362.167 307.663 362.838 Q308.462 363.509 308.462 364.632 Q308.462 365.164 308.259 365.645 Q308.062 366.119 307.536 366.767 Q307.391 366.935 306.616 367.74 Q305.84 368.538 304.428 369.979 Z" fill="#000000" fill-rule="evenodd" fill-opacity="1" /><path clip-path="url(#clip790)" d="M 0 0 M312.275 363.093 Q311.373 363.093 310.915 363.984 Q310.464 364.869 310.464 366.652 Q310.464 368.428 310.915 369.319 Q311.373 370.205 312.275 370.205 Q313.184 370.205 313.635 369.319 Q314.092 368.428 314.092 366.652 Q314.092 364.869 313.635 363.984 Q313.184 363.093 312.275 363.093 M312.275 362.167 Q313.728 362.167 314.492 363.318 Q315.261 364.464 315.261 366.652 Q315.261 368.833 314.492 369.985 Q313.728 371.131 312.275 371.131 Q310.823 371.131 310.053 369.985 Q309.289 368.833 309.289 366.652 Q309.289 364.464 310.053 363.318 Q310.823 362.167 312.275 362.167 Z" fill="#000000" fill-rule="evenodd" fill-opacity="1" /><path clip-path="url(#clip790)" d="M 0 0 M319.029 363.093 Q318.126 363.093 317.669 363.984 Q317.217 364.869 317.217 366.652 Q317.217 368.428 317.669 369.319 Q318.126 370.205 319.029 370.205 Q319.937 370.205 320.389 369.319 Q320.846 368.428 320.846 366.652 Q320.846 364.869 320.389 363.984 Q319.937 363.093 319.029 363.093 M319.029 362.167 Q320.481 362.167 321.245 363.318 Q322.015 364.464 322.015 366.652 Q322.015 368.833 321.245 369.985 Q320.481 371.131 319.029 371.131 Q317.576 371.131 316.807 369.985 Q316.043 368.833 316.043 366.652 Q316.043 364.464 316.807 363.318 Q317.576 362.167 319.029 362.167 Z" fill="#000000" fill-rule="evenodd" fill-opacity="1" /><path clip-path="url(#clip790)" d="M 0 0 M323.317 370.784 L323.317 369.719 Q323.757 369.927 324.208 370.037 Q324.659 370.147 325.093 370.147 Q326.251 370.147 326.859 369.372 Q327.472 368.59 327.559 367.005 Q327.223 367.502 326.708 367.769 Q326.193 368.035 325.568 368.035 Q324.272 368.035 323.514 367.253 Q322.761 366.466 322.761 365.107 Q322.761 363.775 323.548 362.971 Q324.335 362.167 325.643 362.167 Q327.142 362.167 327.929 363.318 Q328.722 364.464 328.722 366.652 Q328.722 368.694 327.75 369.916 Q326.783 371.131 325.146 371.131 Q324.706 371.131 324.254 371.044 Q323.803 370.957 323.317 370.784 M325.643 367.12 Q326.43 367.12 326.887 366.582 Q327.35 366.044 327.35 365.107 Q327.35 364.175 326.887 363.637 Q326.43 363.093 325.643 363.093 Q324.856 363.093 324.393 363.637 Q323.936 364.175 323.936 365.107 Q323.936 366.044 324.393 366.582 Q324.856 367.12 325.643 367.12 Z" fill="#000000" fill-rule="evenodd" fill-opacity="1" /><path clip-path="url(#clip790)" d="M 0 0 M329.301 367.242 L332.42 367.242 L332.42 368.191 L329.301 368.191 L329.301 367.242 Z" fill="#000000" fill-rule="evenodd" fill-opacity="1" /><path clip-path="url(#clip790)" d="M 0 0 M336.187 363.093 Q335.284 363.093 334.827 363.984 Q334.376 364.869 334.376 366.652 Q334.376 368.428 334.827 369.319 Q335.284 370.205 336.187 370.205 Q337.096 370.205 337.547 369.319 Q338.004 368.428 338.004 366.652 Q338.004 364.869 337.547 363.984 Q337.096 363.093 336.187 363.093 M336.187 362.167 Q337.64 362.167 338.404 363.318 Q339.173 364.464 339.173 366.652 Q339.173 368.833 338.404 369.985 Q337.64 371.131 336.187 371.131 Q334.735 371.131 333.965 369.985 Q333.201 368.833 333.201 366.652 Q333.201 364.464 333.965 363.318 Q334.735 362.167 336.187 362.167 Z" fill="#000000" fill-rule="evenodd" fill-opacity="1" /><path clip-path="url(#clip790)" d="M 0 0 M340.643 369.979 L342.553 369.979 L342.553 363.388 L340.475 363.804 L340.475 362.74 L342.541 362.323 L343.71 362.323 L343.71 369.979 L345.62 369.979 L345.62 370.963 L340.643 370.963 L340.643 369.979 Z" fill="#000000" fill-rule="evenodd" fill-opacity="1" /><path clip-path="url(#clip790)" d="M 0 0 M346.199 367.242 L349.318 367.242 L349.318 368.191 L346.199 368.191 L346.199 367.242 Z" fill="#000000" fill-rule="evenodd" fill-opacity="1" /><path clip-path="url(#clip790)" d="M 0 0 M353.085 363.093 Q352.182 363.093 351.725 363.984 Q351.274 364.869 351.274 366.652 Q351.274 368.428 351.725 369.319 Q352.182 370.205 353.085 370.205 Q353.994 370.205 354.445 369.319 Q354.902 368.428 354.902 366.652 Q354.902 364.869 354.445 363.984 Q353.994 363.093 353.085 363.093 M353.085 362.167 Q354.538 362.167 355.302 363.318 Q356.071 364.464 356.071 366.652 Q356.071 368.833 355.302 369.985 Q354.538 371.131 353.085 371.131 Q351.633 371.131 350.863 369.985 Q350.099 368.833 350.099 366.652 Q350.099 364.464 350.863 363.318 Q351.633 362.167 353.085 362.167 Z" fill="#000000" fill-rule="evenodd" fill-opacity="1" /><path clip-path="url(#clip790)" d="M 0 0 M357.541 369.979 L359.451 369.979 L359.451 363.388 L357.373 363.804 L357.373 362.74 L359.439 362.323 L360.608 362.323 L360.608 369.979 L362.518 369.979 L362.518 370.963 L357.541 370.963 L357.541 369.979 Z" fill="#000000" fill-rule="evenodd" fill-opacity="1" /><path clip-path="url(#clip790)" d="M 0 0 M443.884 369.979 L447.963 369.979 L447.963 370.963 L442.477 370.963 L442.477 369.979 Q443.143 369.291 444.289 368.133 Q445.44 366.97 445.735 366.634 Q446.297 366.003 446.517 365.569 Q446.742 365.13 446.742 364.707 Q446.742 364.019 446.256 363.585 Q445.776 363.151 445 363.151 Q444.451 363.151 443.837 363.341 Q443.23 363.532 442.535 363.92 L442.535 362.74 Q443.241 362.456 443.855 362.311 Q444.468 362.167 444.977 362.167 Q446.32 362.167 447.118 362.838 Q447.917 363.509 447.917 364.632 Q447.917 365.164 447.715 365.645 Q447.518 366.119 446.991 366.767 Q446.846 366.935 446.071 367.74 Q445.296 368.538 443.884 369.979 Z" fill="#000000" fill-rule="evenodd" fill-opacity="1" /><path clip-path="url(#clip790)" d="M 0 0 M451.731 363.093 Q450.828 363.093 450.371 363.984 Q449.919 364.869 449.919 366.652 Q449.919 368.428 450.371 369.319 Q450.828 370.205 451.731 370.205 Q452.639 370.205 453.091 369.319 Q453.548 368.428 453.548 366.652 Q453.548 364.869 453.091 363.984 Q452.639 363.093 451.731 363.093 M451.731 362.167 Q453.183 362.167 453.947 363.318 Q454.717 364.464 454.717 366.652 Q454.717 368.833 453.947 369.985 Q453.183 371.131 451.731 371.131 Q450.278 371.131 449.508 369.985 Q448.745 368.833 448.745 366.652 Q448.745 364.464 449.508 363.318 Q450.278 362.167 451.731 362.167 Z" fill="#000000" fill-rule="evenodd" fill-opacity="1" /><path clip-path="url(#clip790)" d="M 0 0 M456.187 369.979 L458.096 369.979 L458.096 363.388 L456.019 363.804 L456.019 362.74 L458.085 362.323 L459.254 362.323 L459.254 369.979 L461.164 369.979 L461.164 370.963 L456.187 370.963 L456.187 369.979 Z" fill="#000000" fill-rule="evenodd" fill-opacity="1" /><path clip-path="url(#clip790)" d="M 0 0 M462.466 370.784 L462.466 369.719 Q462.905 369.927 463.357 370.037 Q463.808 370.147 464.242 370.147 Q465.4 370.147 466.007 369.372 Q466.621 368.59 466.707 367.005 Q466.372 367.502 465.857 367.769 Q465.342 368.035 464.717 368.035 Q463.42 368.035 462.662 367.253 Q461.91 366.466 461.91 365.107 Q461.91 363.775 462.697 362.971 Q463.484 362.167 464.792 362.167 Q466.291 362.167 467.078 363.318 Q467.871 364.464 467.871 366.652 Q467.871 368.694 466.898 369.916 Q465.932 371.131 464.294 371.131 Q463.854 371.131 463.403 371.044 Q462.952 370.957 462.466 370.784 M464.792 367.12 Q465.579 367.12 466.036 366.582 Q466.499 366.044 466.499 365.107 Q466.499 364.175 466.036 363.637 Q465.579 363.093 464.792 363.093 Q464.005 363.093 463.542 363.637 Q463.085 364.175 463.085 365.107 Q463.085 366.044 463.542 366.582 Q464.005 367.12 464.792 367.12 Z" fill="#000000" fill-rule="evenodd" fill-opacity="1" /><path clip-path="url(#clip790)" d="M 0 0 M468.449 367.242 L471.569 367.242 L471.569 368.191 L468.449 368.191 L468.449 367.242 Z" fill="#000000" fill-rule="evenodd" fill-opacity="1" /><path clip-path="url(#clip790)" d="M 0 0 M475.336 363.093 Q474.433 363.093 473.976 363.984 Q473.525 364.869 473.525 366.652 Q473.525 368.428 473.976 369.319 Q474.433 370.205 475.336 370.205 Q476.244 370.205 476.696 369.319 Q477.153 368.428 477.153 366.652 Q477.153 364.869 476.696 363.984 Q476.244 363.093 475.336 363.093 M475.336 362.167 Q476.788 362.167 477.552 363.318 Q478.322 364.464 478.322 366.652 Q478.322 368.833 477.552 369.985 Q476.788 371.131 475.336 371.131 Q473.883 371.131 473.114 369.985 Q472.35 368.833 472.35 366.652 Q472.35 364.464 473.114 363.318 Q473.883 362.167 475.336 362.167 Z" fill="#000000" fill-rule="evenodd" fill-opacity="1" /><path clip-path="url(#clip790)" d="M 0 0 M479.792 369.979 L481.702 369.979 L481.702 363.388 L479.624 363.804 L479.624 362.74 L481.69 362.323 L482.859 362.323 L482.859 369.979 L484.769 369.979 L484.769 370.963 L479.792 370.963 L479.792 369.979 Z" fill="#000000" fill-rule="evenodd" fill-opacity="1" /><path clip-path="url(#clip790)" d="M 0 0 M485.347 367.242 L488.467 367.242 L488.467 368.191 L485.347 368.191 L485.347 367.242 Z" fill="#000000" fill-rule="evenodd" fill-opacity="1" /><path clip-path="url(#clip790)" d="M 0 0 M492.234 363.093 Q491.331 363.093 490.874 363.984 Q490.423 364.869 490.423 366.652 Q490.423 368.428 490.874 369.319 Q491.331 370.205 492.234 370.205 Q493.143 370.205 493.594 369.319 Q494.051 368.428 494.051 366.652 Q494.051 364.869 493.594 363.984 Q493.143 363.093 492.234 363.093 M492.234 362.167 Q493.686 362.167 494.45 363.318 Q495.22 364.464 495.22 366.652 Q495.22 368.833 494.45 369.985 Q493.686 371.131 492.234 371.131 Q490.781 371.131 490.012 369.985 Q489.248 368.833 489.248 366.652 Q489.248 364.464 490.012 363.318 Q490.781 362.167 492.234 362.167 Z" fill="#000000" fill-rule="evenodd" fill-opacity="1" /><path clip-path="url(#clip790)" d="M 0 0 M496.69 369.979 L498.6 369.979 L498.6 363.388 L496.522 363.804 L496.522 362.74 L498.588 362.323 L499.757 362.323 L499.757 369.979 L501.667 369.979 L501.667 370.963 L496.69 370.963 L496.69 369.979 Z" fill="#000000" fill-rule="evenodd" fill-opacity="1" /><path clip-path="url(#clip790)" d="M 0 0 M305.327 381.452 L305.327 390.69 L307.268 390.69 Q309.727 390.69 310.865 389.576 Q312.011 388.462 312.011 386.059 Q312.011 383.672 310.865 382.566 Q309.727 381.452 307.268 381.452 L305.327 381.452 M303.719 380.131 L307.022 380.131 Q310.475 380.131 312.09 381.571 Q313.706 383.003 313.706 386.059 Q313.706 389.13 312.082 390.571 Q310.459 392.011 307.022 392.011 L303.719 392.011 L303.719 380.131 Z" fill="#000000" fill-rule="evenodd" fill-opacity="1" /><path clip-path="url(#clip790)" d="M 0 0 M319.292 387.531 Q317.517 387.531 316.833 387.937 Q316.148 388.343 316.148 389.321 Q316.148 390.101 316.658 390.563 Q317.175 391.016 318.058 391.016 Q319.276 391.016 320.008 390.157 Q320.748 389.29 320.748 387.857 L320.748 387.531 L319.292 387.531 M322.212 386.926 L322.212 392.011 L320.748 392.011 L320.748 390.658 Q320.246 391.47 319.498 391.86 Q318.75 392.242 317.668 392.242 Q316.3 392.242 315.488 391.478 Q314.684 390.706 314.684 389.417 Q314.684 387.913 315.687 387.149 Q316.698 386.385 318.695 386.385 L320.748 386.385 L320.748 386.242 Q320.748 385.231 320.079 384.682 Q319.419 384.125 318.217 384.125 Q317.453 384.125 316.729 384.308 Q316.005 384.491 315.337 384.857 L315.337 383.505 Q316.141 383.194 316.896 383.043 Q317.652 382.884 318.369 382.884 Q320.302 382.884 321.257 383.887 Q322.212 384.889 322.212 386.926 Z" fill="#000000" fill-rule="evenodd" fill-opacity="1" /><path clip-path="url(#clip790)" d="M 0 0 M325.196 380.569 L325.196 383.099 L328.211 383.099 L328.211 384.237 L325.196 384.237 L325.196 389.075 Q325.196 390.165 325.49 390.475 Q325.793 390.786 326.708 390.786 L328.211 390.786 L328.211 392.011 L326.708 392.011 Q325.013 392.011 324.368 391.382 Q323.724 390.746 323.724 389.075 L323.724 384.237 L322.649 384.237 L322.649 383.099 L323.724 383.099 L323.724 380.569 L325.196 380.569 Z" fill="#000000" fill-rule="evenodd" fill-opacity="1" /><path clip-path="url(#clip790)" d="M 0 0 M337.37 387.189 L337.37 387.905 L330.638 387.905 Q330.734 389.417 331.546 390.213 Q332.365 391 333.821 391 Q334.665 391 335.452 390.794 Q336.248 390.587 337.028 390.173 L337.028 391.557 Q336.24 391.892 335.413 392.067 Q334.585 392.242 333.734 392.242 Q331.601 392.242 330.352 391 Q329.111 389.759 329.111 387.642 Q329.111 385.454 330.288 384.173 Q331.474 382.884 333.479 382.884 Q335.277 382.884 336.32 384.046 Q337.37 385.2 337.37 387.189 M335.906 386.759 Q335.89 385.558 335.23 384.842 Q334.577 384.125 333.495 384.125 Q332.27 384.125 331.53 384.818 Q330.798 385.51 330.686 386.767 L335.906 386.759 Z" fill="#000000" fill-rule="evenodd" fill-opacity="1" /><polyline clip-path="url(#clip790)" style="stroke:#000000; stroke-width:1; stroke-opacity:1; fill:none" points="
  52.9006,355.795 52.9006,30.868 
  "/>
<polyline clip-path="url(#clip790)" style="stroke:#000000; stroke-width:1; stroke-opacity:1; fill:none" points="
  52.9006,355.795 59.3241,355.795 
  "/>
<polyline clip-path="url(#clip790)" style="stroke:#000000; stroke-width:1; stroke-opacity:1; fill:none" points="
  52.9006,290.81 59.3241,290.81 
  "/>
<polyline clip-path="url(#clip790)" style="stroke:#000000; stroke-width:1; stroke-opacity:1; fill:none" points="
  52.9006,225.824 59.3241,225.824 
  "/>
<polyline clip-path="url(#clip790)" style="stroke:#000000; stroke-width:1; stroke-opacity:1; fill:none" points="
  52.9006,160.839 59.3241,160.839 
  "/>
<polyline clip-path="url(#clip790)" style="stroke:#000000; stroke-width:1; stroke-opacity:1; fill:none" points="
  52.9006,95.8534 59.3241,95.8534 
  "/>
<polyline clip-path="url(#clip790)" style="stroke:#000000; stroke-width:1; stroke-opacity:1; fill:none" points="
  52.9006,30.868 59.3241,30.868 
  "/>
<path clip-path="url(#clip790)" d="M 0 0 M31.6727 352.245 Q30.7699 352.245 30.3127 353.136 Q29.8613 354.021 29.8613 355.804 Q29.8613 357.58 30.3127 358.471 Q30.7699 359.357 31.6727 359.357 Q32.5812 359.357 33.0326 358.471 Q33.4898 357.58 33.4898 355.804 Q33.4898 354.021 33.0326 353.136 Q32.5812 352.245 31.6727 352.245 M31.6727 351.319 Q33.1252 351.319 33.8891 352.47 Q34.6588 353.616 34.6588 355.804 Q34.6588 357.985 33.8891 359.137 Q33.1252 360.283 31.6727 360.283 Q30.2201 360.283 29.4505 359.137 Q28.6866 357.985 28.6866 355.804 Q28.6866 353.616 29.4505 352.47 Q30.2201 351.319 31.6727 351.319 Z" fill="#000000" fill-rule="evenodd" fill-opacity="1" /><path clip-path="url(#clip790)" d="M 0 0 M35.9261 358.645 L37.1472 358.645 L37.1472 360.115 L35.9261 360.115 L35.9261 358.645 Z" fill="#000000" fill-rule="evenodd" fill-opacity="1" /><path clip-path="url(#clip790)" d="M 0 0 M40.9145 352.245 Q40.0117 352.245 39.5546 353.136 Q39.1032 354.021 39.1032 355.804 Q39.1032 357.58 39.5546 358.471 Q40.0117 359.357 40.9145 359.357 Q41.8231 359.357 42.2745 358.471 Q42.7316 357.58 42.7316 355.804 Q42.7316 354.021 42.2745 353.136 Q41.8231 352.245 40.9145 352.245 M40.9145 351.319 Q42.367 351.319 43.1309 352.47 Q43.9006 353.616 43.9006 355.804 Q43.9006 357.985 43.1309 359.137 Q42.367 360.283 40.9145 360.283 Q39.462 360.283 38.6923 359.137 Q37.9284 357.985 37.9284 355.804 Q37.9284 353.616 38.6923 352.47 Q39.462 351.319 40.9145 351.319 Z" fill="#000000" fill-rule="evenodd" fill-opacity="1" /><path clip-path="url(#clip790)" d="M 0 0 M32.072 287.259 Q31.1692 287.259 30.712 288.15 Q30.2606 289.036 30.2606 290.818 Q30.2606 292.595 30.712 293.486 Q31.1692 294.371 32.072 294.371 Q32.9805 294.371 33.4319 293.486 Q33.8891 292.595 33.8891 290.818 Q33.8891 289.036 33.4319 288.15 Q32.9805 287.259 32.072 287.259 M32.072 286.333 Q33.5245 286.333 34.2884 287.485 Q35.0581 288.631 35.0581 290.818 Q35.0581 293 34.2884 294.152 Q33.5245 295.297 32.072 295.297 Q30.6194 295.297 29.8498 294.152 Q29.0859 293 29.0859 290.818 Q29.0859 288.631 29.8498 287.485 Q30.6194 286.333 32.072 286.333 Z" fill="#000000" fill-rule="evenodd" fill-opacity="1" /><path clip-path="url(#clip790)" d="M 0 0 M36.3254 293.66 L37.5465 293.66 L37.5465 295.13 L36.3254 295.13 L36.3254 293.66 Z" fill="#000000" fill-rule="evenodd" fill-opacity="1" /><path clip-path="url(#clip790)" d="M 0 0 M39.8208 294.146 L43.9006 294.146 L43.9006 295.13 L38.4145 295.13 L38.4145 294.146 Q39.08 293.457 40.2259 292.3 Q41.3775 291.137 41.6726 290.801 Q42.2339 290.17 42.4539 289.736 Q42.6795 289.296 42.6795 288.874 Q42.6795 288.185 42.1934 287.751 Q41.7131 287.317 40.9377 287.317 Q40.3879 287.317 39.7745 287.508 Q39.1668 287.699 38.4724 288.087 L38.4724 286.906 Q39.1784 286.623 39.7918 286.478 Q40.4053 286.333 40.9145 286.333 Q42.2571 286.333 43.0557 287.005 Q43.8543 287.676 43.8543 288.799 Q43.8543 289.331 43.6518 289.811 Q43.455 290.286 42.9284 290.934 Q42.7837 291.102 42.0083 291.906 Q41.2328 292.705 39.8208 294.146 Z" fill="#000000" fill-rule="evenodd" fill-opacity="1" /><path clip-path="url(#clip790)" d="M 0 0 M31.5511 222.274 Q30.6484 222.274 30.1912 223.165 Q29.7398 224.05 29.7398 225.833 Q29.7398 227.609 30.1912 228.501 Q30.6484 229.386 31.5511 229.386 Q32.4597 229.386 32.9111 228.501 Q33.3683 227.609 33.3683 225.833 Q33.3683 224.05 32.9111 223.165 Q32.4597 222.274 31.5511 222.274 M31.5511 221.348 Q33.0037 221.348 33.7676 222.5 Q34.5372 223.645 34.5372 225.833 Q34.5372 228.015 33.7676 229.166 Q33.0037 230.312 31.5511 230.312 Q30.0986 230.312 29.3289 229.166 Q28.565 228.015 28.565 225.833 Q28.565 223.645 29.3289 222.5 Q30.0986 221.348 31.5511 221.348 Z" fill="#000000" fill-rule="evenodd" fill-opacity="1" /><path clip-path="url(#clip790)" d="M 0 0 M35.8046 228.674 L37.0256 228.674 L37.0256 230.144 L35.8046 230.144 L35.8046 228.674 Z" fill="#000000" fill-rule="evenodd" fill-opacity="1" /><path clip-path="url(#clip790)" d="M 0 0 M41.5048 222.523 L38.5534 227.135 L41.5048 227.135 L41.5048 222.523 M41.1981 221.504 L42.668 221.504 L42.668 227.135 L43.9006 227.135 L43.9006 228.107 L42.668 228.107 L42.668 230.144 L41.5048 230.144 L41.5048 228.107 L37.6043 228.107 L37.6043 226.979 L41.1981 221.504 Z" fill="#000000" fill-rule="evenodd" fill-opacity="1" /><path clip-path="url(#clip790)" d="M 0 0 M31.6322 157.288 Q30.7294 157.288 30.2722 158.18 Q29.8208 159.065 29.8208 160.847 Q29.8208 162.624 30.2722 163.515 Q30.7294 164.401 31.6322 164.401 Q32.5407 164.401 32.9921 163.515 Q33.4493 162.624 33.4493 160.847 Q33.4493 159.065 32.9921 158.18 Q32.5407 157.288 31.6322 157.288 M31.6322 156.363 Q33.0847 156.363 33.8486 157.514 Q34.6182 158.66 34.6182 160.847 Q34.6182 163.029 33.8486 164.181 Q33.0847 165.327 31.6322 165.327 Q30.1796 165.327 29.4099 164.181 Q28.6461 163.029 28.6461 160.847 Q28.6461 158.66 29.4099 157.514 Q30.1796 156.363 31.6322 156.363 Z" fill="#000000" fill-rule="evenodd" fill-opacity="1" /><path clip-path="url(#clip790)" d="M 0 0 M35.8856 163.689 L37.1067 163.689 L37.1067 165.159 L35.8856 165.159 L35.8856 163.689 Z" fill="#000000" fill-rule="evenodd" fill-opacity="1" /><path clip-path="url(#clip790)" d="M 0 0 M41.0187 160.373 Q40.2316 160.373 39.7687 160.911 Q39.3115 161.449 39.3115 162.387 Q39.3115 163.319 39.7687 163.863 Q40.2316 164.401 41.0187 164.401 Q41.8057 164.401 42.2629 163.863 Q42.7258 163.319 42.7258 162.387 Q42.7258 161.449 42.2629 160.911 Q41.8057 160.373 41.0187 160.373 M43.3393 156.71 L43.3393 157.775 Q42.8995 157.566 42.4481 157.456 Q42.0025 157.346 41.5627 157.346 Q40.4053 157.346 39.7918 158.128 Q39.1842 158.909 39.0974 160.489 Q39.4388 159.985 39.9539 159.719 Q40.4689 159.447 41.0881 159.447 Q42.3902 159.447 43.1425 160.24 Q43.9006 161.027 43.9006 162.387 Q43.9006 163.718 43.1136 164.522 Q42.3265 165.327 41.0187 165.327 Q39.5198 165.327 38.727 164.181 Q37.9342 163.029 37.9342 160.847 Q37.9342 158.799 38.9064 157.584 Q39.8786 156.363 41.5164 156.363 Q41.9562 156.363 42.4018 156.449 Q42.8532 156.536 43.3393 156.71 Z" fill="#000000" fill-rule="evenodd" fill-opacity="1" /><path clip-path="url(#clip790)" d="M 0 0 M31.6958 92.3031 Q30.793 92.3031 30.3359 93.1943 Q29.8845 94.0797 29.8845 95.8621 Q29.8845 97.6387 30.3359 98.5299 Q30.793 99.4153 31.6958 99.4153 Q32.6044 99.4153 33.0558 98.5299 Q33.5129 97.6387 33.5129 95.8621 Q33.5129 94.0797 33.0558 93.1943 Q32.6044 92.3031 31.6958 92.3031 M31.6958 91.3772 Q33.1483 91.3772 33.9122 92.5288 Q34.6819 93.6746 34.6819 95.8621 Q34.6819 98.0438 33.9122 99.1954 Q33.1483 100.341 31.6958 100.341 Q30.2433 100.341 29.4736 99.1954 Q28.7097 98.0438 28.7097 95.8621 Q28.7097 93.6746 29.4736 92.5288 Q30.2433 91.3772 31.6958 91.3772 Z" fill="#000000" fill-rule="evenodd" fill-opacity="1" /><path clip-path="url(#clip790)" d="M 0 0 M35.9493 98.7035 L37.1703 98.7035 L37.1703 100.173 L35.9493 100.173 L35.9493 98.7035 Z" fill="#000000" fill-rule="evenodd" fill-opacity="1" /><path clip-path="url(#clip790)" d="M 0 0 M40.9377 96.0704 Q40.1043 96.0704 39.624 96.516 Q39.1495 96.9616 39.1495 97.7429 Q39.1495 98.5241 39.624 98.9697 Q40.1043 99.4153 40.9377 99.4153 Q41.771 99.4153 42.2513 98.9697 Q42.7316 98.5183 42.7316 97.7429 Q42.7316 96.9616 42.2513 96.516 Q41.7768 96.0704 40.9377 96.0704 M39.7687 95.5727 Q39.0164 95.3876 38.5939 94.8725 Q38.1773 94.3575 38.1773 93.6167 Q38.1773 92.5809 38.9122 91.979 Q39.6529 91.3772 40.9377 91.3772 Q42.2282 91.3772 42.9631 91.979 Q43.6981 92.5809 43.6981 93.6167 Q43.6981 94.3575 43.2756 94.8725 Q42.8589 95.3876 42.1124 95.5727 Q42.9573 95.7695 43.4261 96.3424 Q43.9006 96.9153 43.9006 97.7429 Q43.9006 98.9987 43.1309 99.6699 Q42.367 100.341 40.9377 100.341 Q39.5083 100.341 38.7386 99.6699 Q37.9747 98.9987 37.9747 97.7429 Q37.9747 96.9153 38.4492 96.3424 Q38.9238 95.7695 39.7687 95.5727 M39.3404 93.7267 Q39.3404 94.398 39.7571 94.7741 Q40.1796 95.1503 40.9377 95.1503 Q41.69 95.1503 42.1124 94.7741 Q42.5407 94.398 42.5407 93.7267 Q42.5407 93.0554 42.1124 92.6792 Q41.69 92.3031 40.9377 92.3031 Q40.1796 92.3031 39.7571 92.6792 Q39.3404 93.0554 39.3404 93.7267 Z" fill="#000000" fill-rule="evenodd" fill-opacity="1" /><path clip-path="url(#clip790)" d="M 0 0 M29.6819 34.2042 L31.5916 34.2042 L31.5916 27.6128 L29.5141 28.0295 L29.5141 26.9647 L31.5801 26.548 L32.749 26.548 L32.749 34.2042 L34.6588 34.2042 L34.6588 35.188 L29.6819 35.188 L29.6819 34.2042 Z" fill="#000000" fill-rule="evenodd" fill-opacity="1" /><path clip-path="url(#clip790)" d="M 0 0 M35.9261 33.7181 L37.1472 33.7181 L37.1472 35.188 L35.9261 35.188 L35.9261 33.7181 Z" fill="#000000" fill-rule="evenodd" fill-opacity="1" /><path clip-path="url(#clip790)" d="M 0 0 M40.9145 27.3177 Q40.0117 27.3177 39.5546 28.2089 Q39.1032 29.0943 39.1032 30.8767 Q39.1032 32.6533 39.5546 33.5445 Q40.0117 34.4299 40.9145 34.4299 Q41.8231 34.4299 42.2745 33.5445 Q42.7316 32.6533 42.7316 30.8767 Q42.7316 29.0943 42.2745 28.2089 Q41.8231 27.3177 40.9145 27.3177 M40.9145 26.3918 Q42.367 26.3918 43.1309 27.5434 Q43.9006 28.6892 43.9006 30.8767 Q43.9006 33.0584 43.1309 34.21 Q42.367 35.3559 40.9145 35.3559 Q39.462 35.3559 38.6923 34.21 Q37.9284 33.0584 37.9284 30.8767 Q37.9284 28.6892 38.6923 27.5434 Q39.462 26.3918 40.9145 26.3918 Z" fill="#000000" fill-rule="evenodd" fill-opacity="1" /><path clip-path="url(#clip790)" d="M 0 0 M4.12104 240.231 L4.12104 238.623 L14.6483 238.623 L14.6483 232.839 L16.001 232.839 L16.001 240.231 L4.12104 240.231 Z" fill="#000000" fill-rule="evenodd" fill-opacity="1" /><path clip-path="url(#clip790)" d="M 0 0 M11.5212 227.253 Q11.5212 229.027 11.927 229.712 Q12.3328 230.396 13.3115 230.396 Q14.0913 230.396 14.5528 229.887 Q15.0064 229.369 15.0064 228.486 Q15.0064 227.269 14.147 226.537 Q13.2797 225.797 11.8474 225.797 L11.5212 225.797 L11.5212 227.253 M10.9164 224.332 L16.001 224.332 L16.001 225.797 L14.6483 225.797 Q15.46 226.298 15.8499 227.046 Q16.2318 227.794 16.2318 228.876 Q16.2318 230.245 15.4679 231.056 Q14.6961 231.86 13.407 231.86 Q11.9031 231.86 11.1392 230.857 Q10.3753 229.847 10.3753 227.85 L10.3753 225.797 L10.2321 225.797 Q9.22156 225.797 8.67252 226.465 Q8.11552 227.125 8.11552 228.327 Q8.11552 229.091 8.29853 229.815 Q8.48155 230.539 8.84758 231.207 L7.49486 231.207 Q7.18454 230.404 7.03335 229.648 Q6.87421 228.892 6.87421 228.176 Q6.87421 226.242 7.87681 225.287 Q8.87941 224.332 10.9164 224.332 Z" fill="#000000" fill-rule="evenodd" fill-opacity="1" /><path clip-path="url(#clip790)" d="M 0 0 M16.8286 219.089 Q18.42 219.709 18.9054 220.298 Q19.3908 220.887 19.3908 221.874 L19.3908 223.043 L18.1654 223.043 L18.1654 222.184 Q18.1654 221.579 17.8789 221.245 Q17.5925 220.911 16.5262 220.505 L15.8578 220.243 L7.08905 223.847 L7.08905 222.295 L14.0595 219.51 L7.08905 216.725 L7.08905 215.174 L16.8286 219.089 Z" fill="#000000" fill-rule="evenodd" fill-opacity="1" /><path clip-path="url(#clip790)" d="M 0 0 M8.11552 210.185 Q8.11552 211.362 9.03855 212.047 Q9.95362 212.731 11.553 212.731 Q13.1524 212.731 14.0754 212.055 Q14.9905 211.37 14.9905 210.185 Q14.9905 209.015 14.0675 208.331 Q13.1444 207.646 11.553 207.646 Q9.96953 207.646 9.0465 208.331 Q8.11552 209.015 8.11552 210.185 M6.87421 210.185 Q6.87421 208.275 8.11552 207.185 Q9.35683 206.095 11.553 206.095 Q13.7412 206.095 14.9905 207.185 Q16.2318 208.275 16.2318 210.185 Q16.2318 212.102 14.9905 213.193 Q13.7412 214.275 11.553 214.275 Q9.35683 214.275 8.11552 213.193 Q6.87421 212.102 6.87421 210.185 Z" fill="#000000" fill-rule="evenodd" fill-opacity="1" /><path clip-path="url(#clip790)" d="M 0 0 M3.61974 200.047 L4.83718 200.047 L4.83718 201.448 Q4.83718 202.236 5.15547 202.546 Q5.47375 202.848 6.30129 202.848 L7.08905 202.848 L7.08905 200.437 L8.22692 200.437 L8.22692 202.848 L16.001 202.848 L16.001 204.32 L8.22692 204.32 L8.22692 205.721 L7.08905 205.721 L7.08905 204.32 L6.46839 204.32 Q4.98041 204.32 4.30405 203.628 Q3.61974 202.936 3.61974 201.432 L3.61974 200.047 Z" fill="#000000" fill-rule="evenodd" fill-opacity="1" /><path clip-path="url(#clip790)" d="M 0 0 M3.61974 194 L4.83718 194 L4.83718 195.4 Q4.83718 196.188 5.15547 196.498 Q5.47375 196.801 6.30129 196.801 L7.08905 196.801 L7.08905 194.39 L8.22692 194.39 L8.22692 196.801 L16.001 196.801 L16.001 198.273 L8.22692 198.273 L8.22692 199.673 L7.08905 199.673 L7.08905 198.273 L6.46839 198.273 Q4.98041 198.273 4.30405 197.581 Q3.61974 196.888 3.61974 195.384 L3.61974 194 Z" fill="#000000" fill-rule="evenodd" fill-opacity="1" /><path clip-path="url(#clip790)" d="M 0 0 M4.51094 180.099 L6.07849 180.099 Q5.64085 181.014 5.42601 181.825 Q5.21117 182.637 5.21117 183.393 Q5.21117 184.706 5.72042 185.422 Q6.22968 186.13 7.16862 186.13 Q7.95638 186.13 8.36219 185.661 Q8.76005 185.183 9.00672 183.863 L9.20565 182.892 Q9.5478 181.093 10.4151 180.242 Q11.2745 179.383 12.7227 179.383 Q14.4494 179.383 15.3406 180.544 Q16.2318 181.698 16.2318 183.934 Q16.2318 184.778 16.0408 185.732 Q15.8499 186.679 15.4759 187.698 L13.8208 187.698 Q14.3698 186.719 14.6483 185.78 Q14.9268 184.841 14.9268 183.934 Q14.9268 182.558 14.3857 181.81 Q13.8447 181.062 12.8421 181.062 Q11.9668 181.062 11.4734 181.603 Q10.9801 182.136 10.7334 183.361 L10.5424 184.34 Q10.1844 186.138 9.42049 186.942 Q8.65661 187.746 7.29594 187.746 Q5.72042 187.746 4.81331 186.64 Q3.9062 185.526 3.9062 183.576 Q3.9062 182.741 4.05738 181.873 Q4.20857 181.006 4.51094 180.099 Z" fill="#000000" fill-rule="evenodd" fill-opacity="1" /><path clip-path="url(#clip790)" d="M 0 0 M10.622 170.439 L16.001 170.439 L16.001 171.903 L10.6698 171.903 Q9.40458 171.903 8.77596 172.396 Q8.14735 172.89 8.14735 173.876 Q8.14735 175.062 8.90328 175.746 Q9.6592 176.431 10.9642 176.431 L16.001 176.431 L16.001 177.903 L3.61974 177.903 L3.61974 176.431 L8.47359 176.431 Q7.66992 175.905 7.27206 175.197 Q6.87421 174.481 6.87421 173.55 Q6.87421 172.014 7.82906 171.227 Q8.77596 170.439 10.622 170.439 Z" fill="#000000" fill-rule="evenodd" fill-opacity="1" /><path clip-path="url(#clip790)" d="M 0 0 M11.5212 164.853 Q11.5212 166.627 11.927 167.312 Q12.3328 167.996 13.3115 167.996 Q14.0913 167.996 14.5528 167.487 Q15.0064 166.97 15.0064 166.086 Q15.0064 164.869 14.147 164.137 Q13.2797 163.397 11.8474 163.397 L11.5212 163.397 L11.5212 164.853 M10.9164 161.933 L16.001 161.933 L16.001 163.397 L14.6483 163.397 Q15.46 163.898 15.8499 164.646 Q16.2318 165.394 16.2318 166.476 Q16.2318 167.845 15.4679 168.656 Q14.6961 169.46 13.407 169.46 Q11.9031 169.46 11.1392 168.457 Q10.3753 167.447 10.3753 165.45 L10.3753 163.397 L10.2321 163.397 Q9.22156 163.397 8.67252 164.065 Q8.11552 164.726 8.11552 165.927 Q8.11552 166.691 8.29853 167.415 Q8.48155 168.139 8.84758 168.808 L7.49486 168.808 Q7.18454 168.004 7.03335 167.248 Q6.87421 166.492 6.87421 165.776 Q6.87421 163.842 7.87681 162.888 Q8.87941 161.933 10.9164 161.933 Z" fill="#000000" fill-rule="evenodd" fill-opacity="1" /><path clip-path="url(#clip790)" d="M 0 0 M8.45768 155.233 Q8.31445 155.479 8.25079 155.774 Q8.17918 156.06 8.17918 156.41 Q8.17918 157.652 8.9908 158.32 Q9.79448 158.981 11.3063 158.981 L16.001 158.981 L16.001 160.453 L7.08905 160.453 L7.08905 158.981 L8.47359 158.981 Q7.66196 158.519 7.27206 157.779 Q6.87421 157.039 6.87421 155.981 Q6.87421 155.83 6.89808 155.647 Q6.91399 155.463 6.95378 155.241 L8.45768 155.233 Z" fill="#000000" fill-rule="evenodd" fill-opacity="1" /><path clip-path="url(#clip790)" d="M 0 0 M11.179 146.432 L11.8952 146.432 L11.8952 153.164 Q13.407 153.068 14.2027 152.257 Q14.9905 151.437 14.9905 149.981 Q14.9905 149.138 14.7836 148.35 Q14.5767 147.554 14.1629 146.774 L15.5475 146.774 Q15.8817 147.562 16.0567 148.39 Q16.2318 149.217 16.2318 150.069 Q16.2318 152.201 14.9905 153.45 Q13.7492 154.692 11.6326 154.692 Q9.44436 154.692 8.16326 153.514 Q6.87421 152.328 6.87421 150.323 Q6.87421 148.525 8.03595 147.482 Q9.18973 146.432 11.179 146.432 M10.7493 147.896 Q9.5478 147.912 8.83166 148.573 Q8.11552 149.225 8.11552 150.307 Q8.11552 151.533 8.80779 152.273 Q9.50006 153.005 10.7573 153.116 L10.7493 147.896 Z" fill="#000000" fill-rule="evenodd" fill-opacity="1" /><path clip-path="url(#clip790)" d="M 0 0 M260.855 3.024 L262.9 3.024 L262.9 16.4224 L270.263 16.4224 L270.263 18.144 L260.855 18.144 L260.855 3.024 Z" fill="#000000" fill-rule="evenodd" fill-opacity="1" /><path clip-path="url(#clip790)" d="M 0 0 M277.372 12.4424 Q275.114 12.4424 274.243 12.9588 Q273.372 13.4753 273.372 14.721 Q273.372 15.7135 274.02 16.3008 Q274.678 16.8781 275.803 16.8781 Q277.352 16.8781 278.284 15.7843 Q279.226 14.6805 279.226 12.8576 L279.226 12.4424 L277.372 12.4424 M281.089 11.6727 L281.089 18.144 L279.226 18.144 L279.226 16.4224 Q278.588 17.4553 277.636 17.9516 Q276.684 18.4377 275.306 18.4377 Q273.564 18.4377 272.531 17.4655 Q271.509 16.4831 271.509 14.8425 Q271.509 12.9285 272.785 11.9562 Q274.071 10.984 276.613 10.984 L279.226 10.984 L279.226 10.8017 Q279.226 9.51557 278.375 8.81679 Q277.534 8.10788 276.005 8.10788 Q275.033 8.10788 274.111 8.34081 Q273.19 8.57374 272.339 9.03959 L272.339 7.31796 Q273.362 6.923 274.324 6.73058 Q275.286 6.52803 276.198 6.52803 Q278.658 6.52803 279.874 7.80407 Q281.089 9.0801 281.089 11.6727 Z" fill="#000000" fill-rule="evenodd" fill-opacity="1" /><path clip-path="url(#clip790)" d="M 0 0 M287.763 19.1972 Q286.973 21.2227 286.224 21.8405 Q285.474 22.4582 284.218 22.4582 L282.73 22.4582 L282.73 20.8986 L283.823 20.8986 Q284.593 20.8986 285.018 20.534 Q285.444 20.1695 285.96 18.8124 L286.294 17.9617 L281.707 6.80147 L283.682 6.80147 L287.226 15.6729 L290.771 6.80147 L292.745 6.80147 L287.763 19.1972 Z" fill="#000000" fill-rule="evenodd" fill-opacity="1" /><path clip-path="url(#clip790)" d="M 0 0 M299.095 8.10788 Q297.596 8.10788 296.725 9.28265 Q295.855 10.4473 295.855 12.4829 Q295.855 14.5184 296.715 15.6932 Q297.586 16.8578 299.095 16.8578 Q300.584 16.8578 301.455 15.6831 Q302.326 14.5083 302.326 12.4829 Q302.326 10.4675 301.455 9.29277 Q300.584 8.10788 299.095 8.10788 M299.095 6.52803 Q301.526 6.52803 302.913 8.10788 Q304.301 9.68774 304.301 12.4829 Q304.301 15.2679 302.913 16.8578 Q301.526 18.4377 299.095 18.4377 Q296.655 18.4377 295.267 16.8578 Q293.89 15.2679 293.89 12.4829 Q293.89 9.68774 295.267 8.10788 Q296.655 6.52803 299.095 6.52803 Z" fill="#000000" fill-rule="evenodd" fill-opacity="1" /><path clip-path="url(#clip790)" d="M 0 0 M311.997 2.38598 L311.997 3.93545 L310.215 3.93545 Q309.212 3.93545 308.817 4.34054 Q308.433 4.74563 308.433 5.79887 L308.433 6.80147 L311.501 6.80147 L311.501 8.24967 L308.433 8.24967 L308.433 18.144 L306.559 18.144 L306.559 8.24967 L304.777 8.24967 L304.777 6.80147 L306.559 6.80147 L306.559 6.01154 Q306.559 4.11774 307.44 3.25693 Q308.321 2.38598 310.235 2.38598 L311.997 2.38598 Z" fill="#000000" fill-rule="evenodd" fill-opacity="1" /><path clip-path="url(#clip790)" d="M 0 0 M319.694 2.38598 L319.694 3.93545 L317.912 3.93545 Q316.909 3.93545 316.514 4.34054 Q316.129 4.74563 316.129 5.79887 L316.129 6.80147 L319.198 6.80147 L319.198 8.24967 L316.129 8.24967 L316.129 18.144 L314.256 18.144 L314.256 8.24967 L312.473 8.24967 L312.473 6.80147 L314.256 6.80147 L314.256 6.01154 Q314.256 4.11774 315.137 3.25693 Q316.018 2.38598 317.932 2.38598 L319.694 2.38598 Z" fill="#000000" fill-rule="evenodd" fill-opacity="1" /><path clip-path="url(#clip790)" d="M 0 0 M337.386 3.52024 L337.386 5.51531 Q336.222 4.95831 335.189 4.68487 Q334.156 4.41143 333.194 4.41143 Q331.523 4.41143 330.611 5.05958 Q329.71 5.70772 329.71 6.90274 Q329.71 7.90534 330.307 8.42183 Q330.915 8.92819 332.596 9.24214 L333.832 9.49532 Q336.121 9.93079 337.204 11.0347 Q338.298 12.1284 338.298 13.9716 Q338.298 16.1692 336.819 17.3034 Q335.351 18.4377 332.505 18.4377 Q331.432 18.4377 330.216 18.1946 Q329.011 17.9516 327.715 17.4756 L327.715 15.3691 Q328.961 16.0679 330.156 16.4224 Q331.351 16.7768 332.505 16.7768 Q334.257 16.7768 335.209 16.0882 Q336.161 15.3995 336.161 14.1235 Q336.161 13.0095 335.472 12.3816 Q334.794 11.7537 333.234 11.4398 L331.989 11.1967 Q329.7 10.741 328.677 9.76876 Q327.654 8.79654 327.654 7.06478 Q327.654 5.05958 329.062 3.90507 Q330.48 2.75056 332.961 2.75056 Q334.024 2.75056 335.128 2.94298 Q336.232 3.1354 337.386 3.52024 Z" fill="#000000" fill-rule="evenodd" fill-opacity="1" /><path clip-path="url(#clip790)" d="M 0 0 M349.681 11.298 L349.681 18.144 L347.818 18.144 L347.818 11.3587 Q347.818 9.7485 347.19 8.94845 Q346.562 8.14839 345.306 8.14839 Q343.797 8.14839 342.926 9.11048 Q342.055 10.0726 342.055 11.7334 L342.055 18.144 L340.182 18.144 L340.182 2.38598 L342.055 2.38598 L342.055 8.56361 Q342.723 7.54076 343.625 7.0344 Q344.536 6.52803 345.721 6.52803 Q347.676 6.52803 348.678 7.7433 Q349.681 8.94845 349.681 11.298 Z" fill="#000000" fill-rule="evenodd" fill-opacity="1" /><path clip-path="url(#clip790)" d="M 0 0 M356.79 12.4424 Q354.532 12.4424 353.661 12.9588 Q352.79 13.4753 352.79 14.721 Q352.79 15.7135 353.438 16.3008 Q354.096 16.8781 355.221 16.8781 Q356.77 16.8781 357.702 15.7843 Q358.644 14.6805 358.644 12.8576 L358.644 12.4424 L356.79 12.4424 M360.507 11.6727 L360.507 18.144 L358.644 18.144 L358.644 16.4224 Q358.006 17.4553 357.054 17.9516 Q356.102 18.4377 354.724 18.4377 Q352.982 18.4377 351.949 17.4655 Q350.927 16.4831 350.927 14.8425 Q350.927 12.9285 352.203 11.9562 Q353.489 10.984 356.031 10.984 L358.644 10.984 L358.644 10.8017 Q358.644 9.51557 357.793 8.81679 Q356.952 8.10788 355.423 8.10788 Q354.451 8.10788 353.529 8.34081 Q352.608 8.57374 351.757 9.03959 L351.757 7.31796 Q352.78 6.923 353.742 6.73058 Q354.704 6.52803 355.615 6.52803 Q358.076 6.52803 359.292 7.80407 Q360.507 9.0801 360.507 11.6727 Z" fill="#000000" fill-rule="evenodd" fill-opacity="1" /><path clip-path="url(#clip790)" d="M 0 0 M369.034 8.54336 Q368.72 8.36107 368.345 8.28005 Q367.981 8.1889 367.535 8.1889 Q365.955 8.1889 365.105 9.22188 Q364.264 10.2447 364.264 12.1689 L364.264 18.144 L362.391 18.144 L362.391 6.80147 L364.264 6.80147 L364.264 8.56361 Q364.852 7.53063 365.793 7.0344 Q366.735 6.52803 368.082 6.52803 Q368.275 6.52803 368.507 6.55841 Q368.74 6.57867 369.024 6.6293 L369.034 8.54336 Z" fill="#000000" fill-rule="evenodd" fill-opacity="1" /><path clip-path="url(#clip790)" d="M 0 0 M380.235 12.0069 L380.235 12.9183 L371.667 12.9183 Q371.789 14.8425 372.822 15.8552 Q373.865 16.8578 375.718 16.8578 Q376.792 16.8578 377.794 16.5945 Q378.807 16.3312 379.799 15.8046 L379.799 17.5667 Q378.797 17.9921 377.744 18.2149 Q376.69 18.4377 375.607 18.4377 Q372.893 18.4377 371.303 16.8578 Q369.723 15.278 369.723 12.5841 Q369.723 9.79914 371.222 8.16865 Q372.731 6.52803 375.283 6.52803 Q377.571 6.52803 378.898 8.00661 Q380.235 9.47506 380.235 12.0069 M378.371 11.46 Q378.351 9.93079 377.511 9.01934 Q376.68 8.10788 375.303 8.10788 Q373.743 8.10788 372.801 8.98896 Q371.87 9.87003 371.728 11.4701 L378.371 11.46 Z" fill="#000000" fill-rule="evenodd" fill-opacity="1" /><polyline clip-path="url(#clip792)" style="stroke:#6c8ebf; stroke-width:2; stroke-opacity:1; fill:none" points="
  68.0503,306.147 69.2327,310.685 70.3008,310.685 71.4832,309.713 72.6276,308.416 73.81,310.037 74.9543,307.768 76.1368,309.713 77.3193,304.85 78.4636,307.119 
  79.6461,305.174 80.7904,306.795 81.9729,307.443 83.1553,298.691 84.2234,303.229 85.4058,303.553 86.5501,305.174 87.7326,306.147 88.8769,309.713 90.0594,307.443 
  91.2419,312.306 92.3862,310.361 93.5686,311.334 94.713,311.009 95.8954,312.955 97.0779,311.334 98.1841,311.982 99.3665,311.334 100.511,313.927 101.693,312.955 
  102.838,313.927 104.02,314.9 105.203,308.416 106.347,311.982 107.529,314.575 108.674,315.224 109.856,319.762 111.039,317.817 112.107,315.224 113.289,316.521 
  114.433,312.306 115.616,314.9 116.76,314.251 117.943,311.334 119.125,310.361 120.269,308.092 121.452,317.817 122.596,314.575 123.779,314.251 124.961,314.575 
  126.029,317.493 127.212,320.087 128.356,321.383 129.538,317.169 130.683,314.9 131.865,312.306 133.048,318.466 134.192,317.169 135.375,315.872 136.519,311.982 
  137.701,311.334 138.884,309.064 139.952,309.389 141.134,310.685 142.279,312.306 143.461,308.74 144.605,307.443 145.788,308.416 146.97,315.872 148.115,309.713 
  149.297,309.713 150.441,311.334 151.624,307.119 152.806,308.74 153.913,310.361 155.095,308.092 156.239,306.471 157.422,309.389 158.566,311.982 159.749,312.63 
  160.931,310.361 162.075,311.334 163.258,311.009 164.402,312.63 165.585,312.306 166.767,311.658 167.835,309.064 169.018,309.064 170.162,310.361 171.344,311.009 
  172.489,312.63 173.671,314.575 174.854,313.603 175.998,305.174 177.18,314.251 178.325,306.795 179.507,311.658 180.69,312.306 181.758,305.174 182.94,316.196 
  184.084,312.306 185.267,311.334 186.411,306.795 187.594,309.064 188.776,309.064 189.921,310.361 191.103,311.334 192.247,309.389 193.43,308.092 194.612,310.037 
  195.68,307.768 196.863,309.713 198.007,310.361 199.19,307.443 200.334,309.389 201.516,307.443 202.699,306.471 203.843,310.037 205.026,307.119 206.17,310.685 
  207.352,312.955 208.535,308.416 209.641,309.389 210.823,313.279 211.968,306.471 213.15,299.015 214.295,306.471 215.477,304.526 216.659,305.174 217.804,307.443 
  218.986,304.526 220.131,299.987 221.313,300.636 222.496,303.877 223.564,301.932 224.746,301.284 225.89,299.987 227.073,304.526 228.217,305.823 229.4,306.147 
  230.582,302.257 231.726,300.311 232.909,307.443 234.053,311.658 235.236,309.389 236.418,310.685 237.486,312.63 238.669,312.306 239.813,311.982 240.995,313.927 
  242.14,309.713 243.322,310.037 244.505,313.603 245.649,312.955 246.831,314.251 247.976,313.603 249.158,313.603 250.341,312.63 251.409,312.63 252.591,313.927 
  253.735,310.361 254.918,314.9 256.062,314.9 257.245,315.224 258.427,313.603 259.572,314.575 260.754,314.9 261.898,314.575 263.081,315.872 264.263,313.603 
  265.369,316.521 266.552,315.872 267.696,317.817 268.879,316.196 270.023,313.603 271.205,314.9 272.388,316.845 273.532,317.493 274.715,316.521 275.859,316.521 
  277.042,315.224 278.224,316.521 279.292,315.872 280.474,320.411 281.619,318.141 282.801,313.603 283.946,314.575 285.128,315.548 286.311,311.334 287.455,314.9 
  288.637,316.845 289.782,313.927 290.964,315.548 292.147,315.872 293.215,313.279 294.397,315.224 295.541,312.306 296.724,308.74 297.868,312.955 299.051,314.251 
  300.233,314.251 301.377,309.713 302.56,309.064 303.704,309.064 304.887,308.092 306.069,306.795 307.137,314.251 308.32,308.416 309.464,309.389 310.646,314.251 
  311.791,309.389 312.973,311.009 314.156,314.251 315.3,308.74 316.482,311.334 317.627,314.575 318.809,309.713 319.992,312.306 321.098,310.361 322.28,308.416 
  323.425,314.251 324.607,314.251 325.751,316.521 326.934,312.63 328.116,310.361 329.261,312.955 330.443,311.982 331.587,311.982 332.77,314.9 333.952,317.169 
  335.02,316.196 336.203,315.872 337.347,315.224 338.53,317.493 339.674,317.493 340.856,319.438 342.039,315.224 343.183,320.087 344.366,323.004 345.51,323.328 
  346.693,323.977 347.875,321.707 348.943,319.762 350.125,325.922 351.27,323.328 352.452,324.949 353.597,328.839 354.779,323.328 355.962,325.598 357.106,326.894 
  358.288,324.301 359.433,324.625 360.615,327.219 361.798,324.949 362.866,326.246 364.048,325.598 365.192,326.246 366.375,327.867 367.519,327.543 368.702,327.543 
  369.884,327.219 371.028,325.922 372.211,326.57 373.355,324.949 374.538,323.004 375.72,326.246 376.826,326.246 378.009,326.894 379.153,325.922 380.336,323.653 
  381.48,320.735 382.662,324.949 383.845,323.653 384.989,326.57 386.172,326.246 387.316,325.922 388.498,323.977 389.681,325.922 390.749,324.625 391.931,322.032 
  393.076,327.543 394.258,323.653 395.402,322.032 396.585,325.922 397.767,323.328 398.912,310.361 400.094,322.68 401.239,324.301 402.421,323.004 403.603,323.653 
  404.671,322.68 405.854,320.087 406.998,320.411 408.181,321.707 409.325,322.68 410.508,318.466 411.69,322.356 412.834,323.653 414.017,318.79 415.161,320.411 
  416.344,322.032 417.526,317.169 418.594,316.521 419.777,317.169 420.921,313.927 422.103,315.548 423.248,317.817 424.43,316.845 425.613,317.817 426.757,315.224 
  427.939,319.114 429.084,317.817 430.266,319.762 431.449,315.548 432.555,317.817 433.737,319.438 434.882,316.521 436.064,308.416 437.208,313.927 438.391,314.251 
  439.573,312.306 440.718,312.955 441.9,318.141 443.044,311.009 444.227,310.685 445.409,311.658 446.477,311.982 447.66,312.63 448.804,316.196 449.987,311.982 
  451.131,307.768 452.313,308.74 453.496,312.63 454.64,311.009 455.823,308.092 456.967,309.064 458.149,313.927 459.332,312.955 460.4,312.955 461.582,312.63 
  462.727,313.279 463.909,307.768 465.054,310.361 466.236,310.361 467.418,310.361 468.563,310.685 469.745,308.74 470.89,315.872 472.072,307.443 473.254,314.251 
  474.323,311.334 475.505,314.251 476.649,308.092 477.832,312.63 478.976,308.74 480.159,311.009 481.341,311.982 482.485,310.037 483.668,311.009 484.812,310.685 
  485.995,320.411 
  "/>
<polyline clip-path="url(#clip792)" style="stroke:#780000; stroke-width:2; stroke-opacity:1; fill:none" points="
  487.177,312.306 488.283,263.679 489.466,101.588 490.61,118.446 491.792,161.238 492.937,171.936 494.119,206.947 495.302,235.799 496.446,260.761 497.629,270.487 
  498.773,263.679 499.955,268.866 501.138,282.806 502.206,287.993 503.388,285.723 504.533,291.234 505.715,295.773 506.859,307.768 508.042,306.471 509.224,307.119 
  510.369,310.037 511.551,314.251 512.695,315.872 513.878,307.443 515.06,311.009 516.128,316.196 517.311,307.119 518.455,310.685 519.638,313.927 
  "/>
<polyline clip-path="url(#clip792)" style="stroke:#c0a34d; stroke-width:2; stroke-opacity:1; fill:none" points="
  520.782,307.119 521.964,310.685 523.147,309.389 524.291,309.389 525.474,312.306 526.618,311.334 527.8,313.279 528.983,311.334 530.051,311.009 531.233,313.927 
  532.378,313.927 533.56,311.982 534.705,317.169 535.887,312.955 537.069,312.955 538.214,310.685 539.396,308.74 540.541,308.74 541.723,310.685 542.906,314.251 
  544.012,315.872 545.194,312.955 546.338,314.575 547.521,316.196 548.665,306.471 549.848,315.224 551.03,311.982 552.175,317.169 553.357,320.411 554.501,314.9 
  555.684,316.521 556.866,318.141 557.934,318.141 559.117,316.521 560.261,315.872 561.444,315.224 562.588,314.251 563.77,316.196 564.953,319.114 566.097,316.521 
  567.28,313.927 568.424,315.224 569.606,319.114 570.789,315.872 571.857,316.196 573.039,315.548 
  "/>
<path clip-path="url(#clip790)" d="
M70.7436 102.179 L183.952 102.179 L183.952 41.6989 L70.7436 41.6989  Z
  " fill="#ffffff" fill-rule="evenodd" fill-opacity="1"/>
<polyline clip-path="url(#clip790)" style="stroke:#000000; stroke-width:1; stroke-opacity:1; fill:none" points="
  70.7436,102.179 183.952,102.179 183.952,41.6989 70.7436,41.6989 70.7436,102.179 
  "/>
<polyline clip-path="url(#clip790)" style="stroke:#6c8ebf; stroke-width:1; stroke-opacity:1; fill:none" points="
  76.6912,56.8189 112.377,56.8189 
  "/>
<path clip-path="url(#clip790)" d="M 0 0 M119.395 60.1667 L119.395 63.6042 L118.325 63.6042 L118.325 54.6575 L119.395 54.6575 L119.395 55.6413 Q119.731 55.0626 120.24 54.7848 Q120.755 54.5012 121.467 54.5012 Q122.648 54.5012 123.383 55.4387 Q124.123 56.3762 124.123 57.904 Q124.123 59.4318 123.383 60.3693 Q122.648 61.3068 121.467 61.3068 Q120.755 61.3068 120.24 61.029 Q119.731 60.7454 119.395 60.1667 M123.018 57.904 Q123.018 56.7292 122.532 56.0637 Q122.052 55.3924 121.207 55.3924 Q120.362 55.3924 119.876 56.0637 Q119.395 56.7292 119.395 57.904 Q119.395 59.0788 119.876 59.75 Q120.362 60.4156 121.207 60.4156 Q122.052 60.4156 122.532 59.75 Q123.018 59.0788 123.018 57.904 Z" fill="#000000" fill-rule="evenodd" fill-opacity="1" /><path clip-path="url(#clip790)" d="M 0 0 M128.996 55.6528 Q128.817 55.5487 128.602 55.5024 Q128.394 55.4503 128.14 55.4503 Q127.237 55.4503 126.751 56.0406 Q126.27 56.6251 126.27 57.7246 L126.27 61.1389 L125.2 61.1389 L125.2 54.6575 L126.27 54.6575 L126.27 55.6644 Q126.606 55.0741 127.144 54.7906 Q127.682 54.5012 128.452 54.5012 Q128.562 54.5012 128.695 54.5186 Q128.828 54.5302 128.99 54.5591 L128.996 55.6528 Z" fill="#000000" fill-rule="evenodd" fill-opacity="1" /><path clip-path="url(#clip790)" d="M 0 0 M135.396 57.632 L135.396 58.1528 L130.501 58.1528 Q130.57 59.2524 131.16 59.8311 Q131.756 60.404 132.815 60.404 Q133.429 60.404 134.002 60.2535 Q134.58 60.1031 135.148 59.8021 L135.148 60.8091 Q134.575 61.0521 133.973 61.1794 Q133.371 61.3068 132.752 61.3068 Q131.201 61.3068 130.292 60.404 Q129.389 59.5012 129.389 57.9619 Q129.389 56.3704 130.246 55.4387 Q131.108 54.5012 132.567 54.5012 Q133.874 54.5012 134.633 55.3461 Q135.396 56.1853 135.396 57.632 M134.332 57.3195 Q134.32 56.4457 133.84 55.9248 Q133.365 55.404 132.578 55.404 Q131.687 55.404 131.149 55.9075 Q130.616 56.4109 130.535 57.3253 L134.332 57.3195 Z" fill="#000000" fill-rule="evenodd" fill-opacity="1" /><path clip-path="url(#clip790)" d="M 0 0 M135.975 57.4179 L139.094 57.4179 L139.094 58.367 L135.975 58.367 L135.975 57.4179 Z" fill="#000000" fill-rule="evenodd" fill-opacity="1" /><path clip-path="url(#clip790)" d="M 0 0 M144.876 54.9063 L144.876 55.9017 Q144.424 55.6528 143.967 55.5313 Q143.516 55.404 143.053 55.404 Q142.017 55.404 141.444 56.0637 Q140.871 56.7177 140.871 57.904 Q140.871 59.0903 141.444 59.75 Q142.017 60.404 143.053 60.404 Q143.516 60.404 143.967 60.2825 Q144.424 60.1551 144.876 59.9063 L144.876 60.8901 Q144.43 61.0984 143.95 61.2026 Q143.475 61.3068 142.937 61.3068 Q141.473 61.3068 140.61 60.3866 Q139.748 59.4665 139.748 57.904 Q139.748 56.3184 140.616 55.4098 Q141.49 54.5012 143.006 54.5012 Q143.498 54.5012 143.967 54.6054 Q144.436 54.7038 144.876 54.9063 Z" fill="#000000" fill-rule="evenodd" fill-opacity="1" /><path clip-path="url(#clip790)" d="M 0 0 M148.504 55.404 Q147.647 55.404 147.15 56.0753 Q146.652 56.7408 146.652 57.904 Q146.652 59.0672 147.144 59.7385 Q147.642 60.404 148.504 60.404 Q149.355 60.404 149.852 59.7327 Q150.35 59.0614 150.35 57.904 Q150.35 56.7524 149.852 56.0811 Q149.355 55.404 148.504 55.404 M148.504 54.5012 Q149.893 54.5012 150.686 55.404 Q151.478 56.3068 151.478 57.904 Q151.478 59.4954 150.686 60.404 Q149.893 61.3068 148.504 61.3068 Q147.109 61.3068 146.316 60.404 Q145.529 59.4954 145.529 57.904 Q145.529 56.3068 146.316 55.404 Q147.109 54.5012 148.504 54.5012 Z" fill="#000000" fill-rule="evenodd" fill-opacity="1" /><path clip-path="url(#clip790)" d="M 0 0 M151.832 54.6575 L152.96 54.6575 L154.985 60.0973 L157.011 54.6575 L158.139 54.6575 L155.709 61.1389 L154.262 61.1389 L151.832 54.6575 Z" fill="#000000" fill-rule="evenodd" fill-opacity="1" /><path clip-path="url(#clip790)" d="M 0 0 M159.256 54.6575 L160.321 54.6575 L160.321 61.1389 L159.256 61.1389 L159.256 54.6575 M159.256 52.1343 L160.321 52.1343 L160.321 53.4827 L159.256 53.4827 L159.256 52.1343 Z" fill="#000000" fill-rule="evenodd" fill-opacity="1" /><path clip-path="url(#clip790)" d="M 0 0 M165.703 55.6413 L165.703 52.1343 L166.768 52.1343 L166.768 61.1389 L165.703 61.1389 L165.703 60.1667 Q165.367 60.7454 164.852 61.029 Q164.343 61.3068 163.625 61.3068 Q162.451 61.3068 161.71 60.3693 Q160.975 59.4318 160.975 57.904 Q160.975 56.3762 161.71 55.4387 Q162.451 54.5012 163.625 54.5012 Q164.343 54.5012 164.852 54.7848 Q165.367 55.0626 165.703 55.6413 M162.075 57.904 Q162.075 59.0788 162.555 59.75 Q163.041 60.4156 163.886 60.4156 Q164.731 60.4156 165.217 59.75 Q165.703 59.0788 165.703 57.904 Q165.703 56.7292 165.217 56.0637 Q164.731 55.3924 163.886 55.3924 Q163.041 55.3924 162.555 56.0637 Q162.075 56.7292 162.075 57.904 Z" fill="#000000" fill-rule="evenodd" fill-opacity="1" /><polyline clip-path="url(#clip790)" style="stroke:#780000; stroke-width:1; stroke-opacity:1; fill:none" points="
  76.6912,71.9389 112.377,71.9389 
  "/>
<path clip-path="url(#clip790)" d="M 0 0 M123.452 70.0263 L123.452 71.0217 Q123.001 70.7728 122.543 70.6513 Q122.092 70.524 121.629 70.524 Q120.593 70.524 120.02 71.1837 Q119.447 71.8377 119.447 73.024 Q119.447 74.2103 120.02 74.87 Q120.593 75.524 121.629 75.524 Q122.092 75.524 122.543 75.4025 Q123.001 75.2751 123.452 75.0263 L123.452 76.0101 Q123.006 76.2184 122.526 76.3226 Q122.052 76.4268 121.513 76.4268 Q120.049 76.4268 119.187 75.5066 Q118.325 74.5865 118.325 73.024 Q118.325 71.4384 119.193 70.5298 Q120.067 69.6212 121.583 69.6212 Q122.075 69.6212 122.543 69.7254 Q123.012 69.8238 123.452 70.0263 Z" fill="#000000" fill-rule="evenodd" fill-opacity="1" /><path clip-path="url(#clip790)" d="M 0 0 M127.08 70.524 Q126.224 70.524 125.726 71.1953 Q125.229 71.8608 125.229 73.024 Q125.229 74.1872 125.721 74.8585 Q126.218 75.524 127.08 75.524 Q127.931 75.524 128.429 74.8527 Q128.927 74.1814 128.927 73.024 Q128.927 71.8724 128.429 71.2011 Q127.931 70.524 127.08 70.524 M127.08 69.6212 Q128.469 69.6212 129.262 70.524 Q130.055 71.4268 130.055 73.024 Q130.055 74.6154 129.262 75.524 Q128.469 76.4268 127.08 76.4268 Q125.686 76.4268 124.893 75.524 Q124.106 74.6154 124.106 73.024 Q124.106 71.4268 124.893 70.524 Q125.686 69.6212 127.08 69.6212 Z" fill="#000000" fill-rule="evenodd" fill-opacity="1" /><path clip-path="url(#clip790)" d="M 0 0 M130.408 69.7775 L131.536 69.7775 L133.562 75.2173 L135.587 69.7775 L136.716 69.7775 L134.285 76.2589 L132.839 76.2589 L130.408 69.7775 Z" fill="#000000" fill-rule="evenodd" fill-opacity="1" /><path clip-path="url(#clip790)" d="M 0 0 M137.833 69.7775 L138.898 69.7775 L138.898 76.2589 L137.833 76.2589 L137.833 69.7775 M137.833 67.2543 L138.898 67.2543 L138.898 68.6027 L137.833 68.6027 L137.833 67.2543 Z" fill="#000000" fill-rule="evenodd" fill-opacity="1" /><path clip-path="url(#clip790)" d="M 0 0 M144.279 70.7613 L144.279 67.2543 L145.344 67.2543 L145.344 76.2589 L144.279 76.2589 L144.279 75.2867 Q143.944 75.8654 143.429 76.149 Q142.92 76.4268 142.202 76.4268 Q141.027 76.4268 140.286 75.4893 Q139.551 74.5518 139.551 73.024 Q139.551 71.4962 140.286 70.5587 Q141.027 69.6212 142.202 69.6212 Q142.92 69.6212 143.429 69.9048 Q143.944 70.1826 144.279 70.7613 M140.651 73.024 Q140.651 74.1988 141.131 74.87 Q141.617 75.5356 142.462 75.5356 Q143.307 75.5356 143.793 74.87 Q144.279 74.1988 144.279 73.024 Q144.279 71.8492 143.793 71.1837 Q143.307 70.5124 142.462 70.5124 Q141.617 70.5124 141.131 71.1837 Q140.651 71.8492 140.651 73.024 Z" fill="#000000" fill-rule="evenodd" fill-opacity="1" /><polyline clip-path="url(#clip790)" style="stroke:#c0a34d; stroke-width:1; stroke-opacity:1; fill:none" points="
  76.6912,87.0589 112.377,87.0589 
  "/>
<path clip-path="url(#clip790)" d="M 0 0 M119.395 90.4067 L119.395 93.8442 L118.325 93.8442 L118.325 84.8975 L119.395 84.8975 L119.395 85.8813 Q119.731 85.3026 120.24 85.0248 Q120.755 84.7412 121.467 84.7412 Q122.648 84.7412 123.383 85.6787 Q124.123 86.6162 124.123 88.144 Q124.123 89.6718 123.383 90.6093 Q122.648 91.5468 121.467 91.5468 Q120.755 91.5468 120.24 91.269 Q119.731 90.9854 119.395 90.4067 M123.018 88.144 Q123.018 86.9692 122.532 86.3037 Q122.052 85.6324 121.207 85.6324 Q120.362 85.6324 119.876 86.3037 Q119.395 86.9692 119.395 88.144 Q119.395 89.3188 119.876 89.99 Q120.362 90.6556 121.207 90.6556 Q122.052 90.6556 122.532 89.99 Q123.018 89.3188 123.018 88.144 Z" fill="#000000" fill-rule="evenodd" fill-opacity="1" /><path clip-path="url(#clip790)" d="M 0 0 M127.752 85.644 Q126.895 85.644 126.398 86.3153 Q125.9 86.9808 125.9 88.144 Q125.9 89.3072 126.392 89.9785 Q126.89 90.644 127.752 90.644 Q128.602 90.644 129.1 89.9727 Q129.598 89.3014 129.598 88.144 Q129.598 86.9924 129.1 86.3211 Q128.602 85.644 127.752 85.644 M127.752 84.7412 Q129.141 84.7412 129.933 85.644 Q130.726 86.5468 130.726 88.144 Q130.726 89.7354 129.933 90.644 Q129.141 91.5468 127.752 91.5468 Q126.357 91.5468 125.564 90.644 Q124.777 89.7354 124.777 88.144 Q124.777 86.5468 125.564 85.644 Q126.357 84.7412 127.752 84.7412 Z" fill="#000000" fill-rule="evenodd" fill-opacity="1" /><path clip-path="url(#clip790)" d="M 0 0 M135.975 85.0885 L135.975 86.0954 Q135.524 85.8639 135.038 85.7482 Q134.552 85.6324 134.031 85.6324 Q133.238 85.6324 132.839 85.8755 Q132.445 86.1185 132.445 86.6046 Q132.445 86.975 132.729 87.1891 Q133.012 87.3975 133.869 87.5884 L134.233 87.6695 Q135.367 87.9125 135.842 88.3581 Q136.322 88.7979 136.322 89.5907 Q136.322 90.4935 135.605 91.0201 Q134.893 91.5468 133.643 91.5468 Q133.122 91.5468 132.555 91.4426 Q131.994 91.3442 131.369 91.1417 L131.369 90.0421 Q131.959 90.3488 132.532 90.5051 Q133.105 90.6556 133.666 90.6556 Q134.418 90.6556 134.823 90.4009 Q135.229 90.1405 135.229 89.6718 Q135.229 89.2377 134.933 89.0063 Q134.644 88.7748 133.655 88.5607 L133.284 88.4739 Q132.295 88.2655 131.855 87.8373 Q131.415 87.4033 131.415 86.6509 Q131.415 85.7366 132.063 85.2389 Q132.711 84.7412 133.903 84.7412 Q134.494 84.7412 135.014 84.828 Q135.535 84.9148 135.975 85.0885 Z" fill="#000000" fill-rule="evenodd" fill-opacity="1" /><path clip-path="url(#clip790)" d="M 0 0 M138.492 83.0572 L138.492 84.8975 L140.686 84.8975 L140.686 85.725 L138.492 85.725 L138.492 89.2435 Q138.492 90.0363 138.707 90.262 Q138.926 90.4877 139.592 90.4877 L140.686 90.4877 L140.686 91.3789 L139.592 91.3789 Q138.359 91.3789 137.891 90.9218 Q137.422 90.4588 137.422 89.2435 L137.422 85.725 L136.641 85.725 L136.641 84.8975 L137.422 84.8975 L137.422 83.0572 L138.492 83.0572 Z" fill="#000000" fill-rule="evenodd" fill-opacity="1" /><path clip-path="url(#clip790)" d="M 0 0 M141.264 87.6579 L144.384 87.6579 L144.384 88.607 L141.264 88.607 L141.264 87.6579 Z" fill="#000000" fill-rule="evenodd" fill-opacity="1" /><path clip-path="url(#clip790)" d="M 0 0 M150.165 85.1463 L150.165 86.1417 Q149.713 85.8928 149.256 85.7713 Q148.805 85.644 148.342 85.644 Q147.306 85.644 146.733 86.3037 Q146.16 86.9577 146.16 88.144 Q146.16 89.3303 146.733 89.99 Q147.306 90.644 148.342 90.644 Q148.805 90.644 149.256 90.5225 Q149.713 90.3951 150.165 90.1463 L150.165 91.1301 Q149.719 91.3384 149.239 91.4426 Q148.764 91.5468 148.226 91.5468 Q146.762 91.5468 145.9 90.6266 Q145.038 89.7065 145.038 88.144 Q145.038 86.5584 145.906 85.6498 Q146.779 84.7412 148.296 84.7412 Q148.788 84.7412 149.256 84.8454 Q149.725 84.9438 150.165 85.1463 Z" fill="#000000" fill-rule="evenodd" fill-opacity="1" /><path clip-path="url(#clip790)" d="M 0 0 M153.793 85.644 Q152.937 85.644 152.439 86.3153 Q151.941 86.9808 151.941 88.144 Q151.941 89.3072 152.433 89.9785 Q152.931 90.644 153.793 90.644 Q154.644 90.644 155.142 89.9727 Q155.639 89.3014 155.639 88.144 Q155.639 86.9924 155.142 86.3211 Q154.644 85.644 153.793 85.644 M153.793 84.7412 Q155.182 84.7412 155.975 85.644 Q156.768 86.5468 156.768 88.144 Q156.768 89.7354 155.975 90.644 Q155.182 91.5468 153.793 91.5468 Q152.399 91.5468 151.606 90.644 Q150.819 89.7354 150.819 88.144 Q150.819 86.5468 151.606 85.644 Q152.399 84.7412 153.793 84.7412 Z" fill="#000000" fill-rule="evenodd" fill-opacity="1" /><path clip-path="url(#clip790)" d="M 0 0 M157.121 84.8975 L158.249 84.8975 L160.275 90.3373 L162.3 84.8975 L163.429 84.8975 L160.998 91.3789 L159.551 91.3789 L157.121 84.8975 Z" fill="#000000" fill-rule="evenodd" fill-opacity="1" /><path clip-path="url(#clip790)" d="M 0 0 M164.546 84.8975 L165.61 84.8975 L165.61 91.3789 L164.546 91.3789 L164.546 84.8975 M164.546 82.3743 L165.61 82.3743 L165.61 83.7227 L164.546 83.7227 L164.546 82.3743 Z" fill="#000000" fill-rule="evenodd" fill-opacity="1" /><path clip-path="url(#clip790)" d="M 0 0 M170.992 85.8813 L170.992 82.3743 L172.057 82.3743 L172.057 91.3789 L170.992 91.3789 L170.992 90.4067 Q170.657 90.9854 170.142 91.269 Q169.632 91.5468 168.915 91.5468 Q167.74 91.5468 166.999 90.6093 Q166.264 89.6718 166.264 88.144 Q166.264 86.6162 166.999 85.6787 Q167.74 84.7412 168.915 84.7412 Q169.632 84.7412 170.142 85.0248 Q170.657 85.3026 170.992 85.8813 M167.364 88.144 Q167.364 89.3188 167.844 89.99 Q168.33 90.6556 169.175 90.6556 Q170.02 90.6556 170.506 89.99 Q170.992 89.3188 170.992 88.144 Q170.992 86.9692 170.506 86.3037 Q170.02 85.6324 169.175 85.6324 Q168.33 85.6324 167.844 86.3037 Q167.364 86.9692 167.364 88.144 Z" fill="#000000" fill-rule="evenodd" fill-opacity="1" /></svg>
