<?xml version="1.0" encoding="utf-8"?>
<svg xmlns="http://www.w3.org/2000/svg" xmlns:xlink="http://www.w3.org/1999/xlink" width="150" height="100" viewBox="0 0 600 400">
<defs>
  <clipPath id="clip760">
    <rect x="0" y="0" width="600" height="400"/>
  </clipPath>
</defs>
<path clip-path="url(#clip760)" d="
M0 400 L600 400 L600 0 L0 0  Z
  " fill="#ffffff" fill-rule="evenodd" fill-opacity="1"/>
<defs>
  <clipPath id="clip761">
    <rect x="120" y="0" width="421" height="400"/>
  </clipPath>
</defs>
<path clip-path="url(#clip760)" d="
M50.6147 355.795 L588.189 355.795 L588.189 30.868 L50.6147 30.868  Z
  " fill="#ffffff" fill-rule="evenodd" fill-opacity="1"/>
<defs>
  <clipPath id="clip762">
    <rect x="50" y="30" width="539" height="326"/>
  </clipPath>
</defs>
<polyline clip-path="url(#clip760)" style="stroke:#000000; stroke-width:1; stroke-opacity:1; fill:none" points="
  50.6147,355.795 588.189,355.795 
  "/>
<polyline clip-path="url(#clip760)" style="stroke:#000000; stroke-width:1; stroke-opacity:1; fill:none" points="
  50.624,355.795 50.624,351.896 
  "/>
<polyline clip-path="url(#clip760)" style="stroke:#000000; stroke-width:1; stroke-opacity:1; fill:none" points="
  190.849,355.795 190.849,351.896 
  "/>
<polyline clip-path="url(#clip760)" style="stroke:#000000; stroke-width:1; stroke-opacity:1; fill:none" points="
  331.113,355.795 331.113,351.896 
  "/>
<polyline clip-path="url(#clip760)" style="stroke:#000000; stroke-width:1; stroke-opacity:1; fill:none" points="
  471.338,355.795 471.338,351.896 
  "/>
<path clip-path="url(#clip760)" d="M 0 0 M21.2491 369.979 L23.1588 369.979 L23.1588 363.388 L21.0813 363.804 L21.0813 362.74 L23.1472 362.323 L24.3162 362.323 L24.3162 369.979 L26.2259 369.979 L26.2259 370.963 L21.2491 370.963 L21.2491 369.979 Z" fill="#000000" fill-rule="evenodd" fill-opacity="1" /><path clip-path="url(#clip760)" d="M 0 0 M27.528 370.784 L27.528 369.719 Q27.9678 369.927 28.4192 370.037 Q28.8706 370.147 29.3046 370.147 Q30.462 370.147 31.0697 369.372 Q31.6831 368.59 31.7699 367.005 Q31.4342 367.502 30.9192 367.769 Q30.4042 368.035 29.7792 368.035 Q28.4829 368.035 27.7248 367.253 Q26.9725 366.466 26.9725 365.107 Q26.9725 363.775 27.7595 362.971 Q28.5465 362.167 29.8544 362.167 Q31.3532 362.167 32.1403 363.318 Q32.9331 364.464 32.9331 366.652 Q32.9331 368.694 31.9609 369.916 Q30.9944 371.131 29.3567 371.131 Q28.9169 371.131 28.4655 371.044 Q28.0141 370.957 27.528 370.784 M29.8544 367.12 Q30.6414 367.12 31.0986 366.582 Q31.5616 366.044 31.5616 365.107 Q31.5616 364.175 31.0986 363.637 Q30.6414 363.093 29.8544 363.093 Q29.0674 363.093 28.6044 363.637 Q28.1472 364.175 28.1472 365.107 Q28.1472 366.044 28.6044 366.582 Q29.0674 367.12 29.8544 367.12 Z" fill="#000000" fill-rule="evenodd" fill-opacity="1" /><path clip-path="url(#clip760)" d="M 0 0 M36.7004 366.86 Q35.8671 366.86 35.3868 367.306 Q34.9122 367.751 34.9122 368.532 Q34.9122 369.314 35.3868 369.759 Q35.8671 370.205 36.7004 370.205 Q37.5337 370.205 38.0141 369.759 Q38.4944 369.308 38.4944 368.532 Q38.4944 367.751 38.0141 367.306 Q37.5395 366.86 36.7004 366.86 M35.5314 366.362 Q34.7791 366.177 34.3567 365.662 Q33.94 365.147 33.94 364.406 Q33.94 363.37 34.675 362.769 Q35.4157 362.167 36.7004 362.167 Q37.9909 362.167 38.7259 362.769 Q39.4608 363.37 39.4608 364.406 Q39.4608 365.147 39.0384 365.662 Q38.6217 366.177 37.8752 366.362 Q38.7201 366.559 39.1888 367.132 Q39.6634 367.705 39.6634 368.532 Q39.6634 369.788 38.8937 370.459 Q38.1298 371.131 36.7004 371.131 Q35.271 371.131 34.5014 370.459 Q33.7375 369.788 33.7375 368.532 Q33.7375 367.705 34.212 367.132 Q34.6865 366.559 35.5314 366.362 M35.1032 364.516 Q35.1032 365.188 35.5199 365.564 Q35.9423 365.94 36.7004 365.94 Q37.4527 365.94 37.8752 365.564 Q38.3034 365.188 38.3034 364.516 Q38.3034 363.845 37.8752 363.469 Q37.4527 363.093 36.7004 363.093 Q35.9423 363.093 35.5199 363.469 Q35.1032 363.845 35.1032 364.516 Z" fill="#000000" fill-rule="evenodd" fill-opacity="1" /><path clip-path="url(#clip760)" d="M 0 0 M40.9654 370.784 L40.9654 369.719 Q41.4053 369.927 41.8566 370.037 Q42.308 370.147 42.7421 370.147 Q43.8995 370.147 44.5071 369.372 Q45.1205 368.59 45.2073 367.005 Q44.8717 367.502 44.3566 367.769 Q43.8416 368.035 43.2166 368.035 Q41.9203 368.035 41.1622 367.253 Q40.4099 366.466 40.4099 365.107 Q40.4099 363.775 41.1969 362.971 Q41.984 362.167 43.2918 362.167 Q44.7907 362.167 45.5777 363.318 Q46.3705 364.464 46.3705 366.652 Q46.3705 368.694 45.3983 369.916 Q44.4319 371.131 42.7941 371.131 Q42.3543 371.131 41.9029 371.044 Q41.4515 370.957 40.9654 370.784 M43.2918 367.12 Q44.0788 367.12 44.536 366.582 Q44.999 366.044 44.999 365.107 Q44.999 364.175 44.536 363.637 Q44.0788 363.093 43.2918 363.093 Q42.5048 363.093 42.0418 363.637 Q41.5846 364.175 41.5846 365.107 Q41.5846 366.044 42.0418 366.582 Q42.5048 367.12 43.2918 367.12 Z" fill="#000000" fill-rule="evenodd" fill-opacity="1" /><path clip-path="url(#clip760)" d="M 0 0 M46.9492 367.242 L50.0684 367.242 L50.0684 368.191 L46.9492 368.191 L46.9492 367.242 Z" fill="#000000" fill-rule="evenodd" fill-opacity="1" /><path clip-path="url(#clip760)" d="M 0 0 M53.8357 363.093 Q52.933 363.093 52.4758 363.984 Q52.0244 364.869 52.0244 366.652 Q52.0244 368.428 52.4758 369.319 Q52.933 370.205 53.8357 370.205 Q54.7443 370.205 55.1957 369.319 Q55.6529 368.428 55.6529 366.652 Q55.6529 364.869 55.1957 363.984 Q54.7443 363.093 53.8357 363.093 M53.8357 362.167 Q55.2883 362.167 56.0522 363.318 Q56.8218 364.464 56.8218 366.652 Q56.8218 368.833 56.0522 369.985 Q55.2883 371.131 53.8357 371.131 Q52.3832 371.131 51.6135 369.985 Q50.8496 368.833 50.8496 366.652 Q50.8496 364.464 51.6135 363.318 Q52.3832 362.167 53.8357 362.167 Z" fill="#000000" fill-rule="evenodd" fill-opacity="1" /><path clip-path="url(#clip760)" d="M 0 0 M58.2917 369.979 L60.2014 369.979 L60.2014 363.388 L58.1239 363.804 L58.1239 362.74 L60.1899 362.323 L61.3588 362.323 L61.3588 369.979 L63.2686 369.979 L63.2686 370.963 L58.2917 370.963 L58.2917 369.979 Z" fill="#000000" fill-rule="evenodd" fill-opacity="1" /><path clip-path="url(#clip760)" d="M 0 0 M63.8473 367.242 L66.9665 367.242 L66.9665 368.191 L63.8473 368.191 L63.8473 367.242 Z" fill="#000000" fill-rule="evenodd" fill-opacity="1" /><path clip-path="url(#clip760)" d="M 0 0 M70.7338 363.093 Q69.831 363.093 69.3739 363.984 Q68.9225 364.869 68.9225 366.652 Q68.9225 368.428 69.3739 369.319 Q69.831 370.205 70.7338 370.205 Q71.6424 370.205 72.0937 369.319 Q72.5509 368.428 72.5509 366.652 Q72.5509 364.869 72.0937 363.984 Q71.6424 363.093 70.7338 363.093 M70.7338 362.167 Q72.1863 362.167 72.9502 363.318 Q73.7199 364.464 73.7199 366.652 Q73.7199 368.833 72.9502 369.985 Q72.1863 371.131 70.7338 371.131 Q69.2813 371.131 68.5116 369.985 Q67.7477 368.833 67.7477 366.652 Q67.7477 364.464 68.5116 363.318 Q69.2813 362.167 70.7338 362.167 Z" fill="#000000" fill-rule="evenodd" fill-opacity="1" /><path clip-path="url(#clip760)" d="M 0 0 M75.1898 369.979 L77.0995 369.979 L77.0995 363.388 L75.022 363.804 L75.022 362.74 L77.0879 362.323 L78.2569 362.323 L78.2569 369.979 L80.1666 369.979 L80.1666 370.963 L75.1898 370.963 L75.1898 369.979 Z" fill="#000000" fill-rule="evenodd" fill-opacity="1" /><path clip-path="url(#clip760)" d="M 0 0 M161.486 369.979 L163.396 369.979 L163.396 363.388 L161.318 363.804 L161.318 362.74 L163.384 362.323 L164.553 362.323 L164.553 369.979 L166.463 369.979 L166.463 370.963 L161.486 370.963 L161.486 369.979 Z" fill="#000000" fill-rule="evenodd" fill-opacity="1" /><path clip-path="url(#clip760)" d="M 0 0 M167.765 370.784 L167.765 369.719 Q168.205 369.927 168.656 370.037 Q169.107 370.147 169.541 370.147 Q170.699 370.147 171.307 369.372 Q171.92 368.59 172.007 367.005 Q171.671 367.502 171.156 367.769 Q170.641 368.035 170.016 368.035 Q168.72 368.035 167.962 367.253 Q167.209 366.466 167.209 365.107 Q167.209 363.775 167.996 362.971 Q168.783 362.167 170.091 362.167 Q171.59 362.167 172.377 363.318 Q173.17 364.464 173.17 366.652 Q173.17 368.694 172.198 369.916 Q171.231 371.131 169.594 371.131 Q169.154 371.131 168.702 371.044 Q168.251 370.957 167.765 370.784 M170.091 367.12 Q170.878 367.12 171.335 366.582 Q171.798 366.044 171.798 365.107 Q171.798 364.175 171.335 363.637 Q170.878 363.093 170.091 363.093 Q169.304 363.093 168.841 363.637 Q168.384 364.175 168.384 365.107 Q168.384 366.044 168.841 366.582 Q169.304 367.12 170.091 367.12 Z" fill="#000000" fill-rule="evenodd" fill-opacity="1" /><path clip-path="url(#clip760)" d="M 0 0 M174.472 370.784 L174.472 369.719 Q174.912 369.927 175.363 370.037 Q175.815 370.147 176.249 370.147 Q177.406 370.147 178.014 369.372 Q178.627 368.59 178.714 367.005 Q178.378 367.502 177.863 367.769 Q177.348 368.035 176.723 368.035 Q175.427 368.035 174.669 367.253 Q173.916 366.466 173.916 365.107 Q173.916 363.775 174.703 362.971 Q175.491 362.167 176.798 362.167 Q178.297 362.167 179.084 363.318 Q179.877 364.464 179.877 366.652 Q179.877 368.694 178.905 369.916 Q177.938 371.131 176.301 371.131 Q175.861 371.131 175.409 371.044 Q174.958 370.957 174.472 370.784 M176.798 367.12 Q177.585 367.12 178.043 366.582 Q178.506 366.044 178.506 365.107 Q178.506 364.175 178.043 363.637 Q177.585 363.093 176.798 363.093 Q176.011 363.093 175.548 363.637 Q175.091 364.175 175.091 365.107 Q175.091 366.044 175.548 366.582 Q176.011 367.12 176.798 367.12 Z" fill="#000000" fill-rule="evenodd" fill-opacity="1" /><path clip-path="url(#clip760)" d="M 0 0 M181.179 370.784 L181.179 369.719 Q181.619 369.927 182.07 370.037 Q182.522 370.147 182.956 370.147 Q184.113 370.147 184.721 369.372 Q185.334 368.59 185.421 367.005 Q185.085 367.502 184.57 367.769 Q184.055 368.035 183.43 368.035 Q182.134 368.035 181.376 367.253 Q180.624 366.466 180.624 365.107 Q180.624 363.775 181.411 362.971 Q182.198 362.167 183.506 362.167 Q185.004 362.167 185.791 363.318 Q186.584 364.464 186.584 366.652 Q186.584 368.694 185.612 369.916 Q184.646 371.131 183.008 371.131 Q182.568 371.131 182.117 371.044 Q181.665 370.957 181.179 370.784 M183.506 367.12 Q184.293 367.12 184.75 366.582 Q185.213 366.044 185.213 365.107 Q185.213 364.175 184.75 363.637 Q184.293 363.093 183.506 363.093 Q182.718 363.093 182.256 363.637 Q181.798 364.175 181.798 365.107 Q181.798 366.044 182.256 366.582 Q182.718 367.12 183.506 367.12 Z" fill="#000000" fill-rule="evenodd" fill-opacity="1" /><path clip-path="url(#clip760)" d="M 0 0 M187.163 367.242 L190.282 367.242 L190.282 368.191 L187.163 368.191 L187.163 367.242 Z" fill="#000000" fill-rule="evenodd" fill-opacity="1" /><path clip-path="url(#clip760)" d="M 0 0 M194.049 363.093 Q193.147 363.093 192.689 363.984 Q192.238 364.869 192.238 366.652 Q192.238 368.428 192.689 369.319 Q193.147 370.205 194.049 370.205 Q194.958 370.205 195.409 369.319 Q195.867 368.428 195.867 366.652 Q195.867 364.869 195.409 363.984 Q194.958 363.093 194.049 363.093 M194.049 362.167 Q195.502 362.167 196.266 363.318 Q197.036 364.464 197.036 366.652 Q197.036 368.833 196.266 369.985 Q195.502 371.131 194.049 371.131 Q192.597 371.131 191.827 369.985 Q191.063 368.833 191.063 366.652 Q191.063 364.464 191.827 363.318 Q192.597 362.167 194.049 362.167 Z" fill="#000000" fill-rule="evenodd" fill-opacity="1" /><path clip-path="url(#clip760)" d="M 0 0 M198.505 369.979 L200.415 369.979 L200.415 363.388 L198.338 363.804 L198.338 362.74 L200.404 362.323 L201.573 362.323 L201.573 369.979 L203.482 369.979 L203.482 370.963 L198.505 370.963 L198.505 369.979 Z" fill="#000000" fill-rule="evenodd" fill-opacity="1" /><path clip-path="url(#clip760)" d="M 0 0 M204.061 367.242 L207.18 367.242 L207.18 368.191 L204.061 368.191 L204.061 367.242 Z" fill="#000000" fill-rule="evenodd" fill-opacity="1" /><path clip-path="url(#clip760)" d="M 0 0 M210.947 363.093 Q210.045 363.093 209.588 363.984 Q209.136 364.869 209.136 366.652 Q209.136 368.428 209.588 369.319 Q210.045 370.205 210.947 370.205 Q211.856 370.205 212.307 369.319 Q212.765 368.428 212.765 366.652 Q212.765 364.869 212.307 363.984 Q211.856 363.093 210.947 363.093 M210.947 362.167 Q212.4 362.167 213.164 363.318 Q213.934 364.464 213.934 366.652 Q213.934 368.833 213.164 369.985 Q212.4 371.131 210.947 371.131 Q209.495 371.131 208.725 369.985 Q207.961 368.833 207.961 366.652 Q207.961 364.464 208.725 363.318 Q209.495 362.167 210.947 362.167 Z" fill="#000000" fill-rule="evenodd" fill-opacity="1" /><path clip-path="url(#clip760)" d="M 0 0 M215.403 369.979 L217.313 369.979 L217.313 363.388 L215.236 363.804 L215.236 362.74 L217.302 362.323 L218.471 362.323 L218.471 369.979 L220.38 369.979 L220.38 370.963 L215.403 370.963 L215.403 369.979 Z" fill="#000000" fill-rule="evenodd" fill-opacity="1" /><path clip-path="url(#clip760)" d="M 0 0 M302.771 369.979 L306.851 369.979 L306.851 370.963 L301.365 370.963 L301.365 369.979 Q302.03 369.291 303.176 368.133 Q304.328 366.97 304.623 366.634 Q305.184 366.003 305.404 365.569 Q305.63 365.13 305.63 364.707 Q305.63 364.019 305.144 363.585 Q304.663 363.151 303.888 363.151 Q303.338 363.151 302.725 363.341 Q302.117 363.532 301.423 363.92 L301.423 362.74 Q302.129 362.456 302.742 362.311 Q303.356 362.167 303.865 362.167 Q305.207 362.167 306.006 362.838 Q306.805 363.509 306.805 364.632 Q306.805 365.164 306.602 365.645 Q306.405 366.119 305.879 366.767 Q305.734 366.935 304.959 367.74 Q304.183 368.538 302.771 369.979 Z" fill="#000000" fill-rule="evenodd" fill-opacity="1" /><path clip-path="url(#clip760)" d="M 0 0 M310.618 363.093 Q309.715 363.093 309.258 363.984 Q308.807 364.869 308.807 366.652 Q308.807 368.428 309.258 369.319 Q309.715 370.205 310.618 370.205 Q311.527 370.205 311.978 369.319 Q312.435 368.428 312.435 366.652 Q312.435 364.869 311.978 363.984 Q311.527 363.093 310.618 363.093 M310.618 362.167 Q312.071 362.167 312.835 363.318 Q313.604 364.464 313.604 366.652 Q313.604 368.833 312.835 369.985 Q312.071 371.131 310.618 371.131 Q309.166 371.131 308.396 369.985 Q307.632 368.833 307.632 366.652 Q307.632 364.464 308.396 363.318 Q309.166 362.167 310.618 362.167 Z" fill="#000000" fill-rule="evenodd" fill-opacity="1" /><path clip-path="url(#clip760)" d="M 0 0 M317.372 363.093 Q316.469 363.093 316.012 363.984 Q315.56 364.869 315.56 366.652 Q315.56 368.428 316.012 369.319 Q316.469 370.205 317.372 370.205 Q318.28 370.205 318.732 369.319 Q319.189 368.428 319.189 366.652 Q319.189 364.869 318.732 363.984 Q318.28 363.093 317.372 363.093 M317.372 362.167 Q318.824 362.167 319.588 363.318 Q320.358 364.464 320.358 366.652 Q320.358 368.833 319.588 369.985 Q318.824 371.131 317.372 371.131 Q315.919 371.131 315.149 369.985 Q314.386 368.833 314.386 366.652 Q314.386 364.464 315.149 363.318 Q315.919 362.167 317.372 362.167 Z" fill="#000000" fill-rule="evenodd" fill-opacity="1" /><path clip-path="url(#clip760)" d="M 0 0 M321.66 370.784 L321.66 369.719 Q322.1 369.927 322.551 370.037 Q323.002 370.147 323.436 370.147 Q324.594 370.147 325.201 369.372 Q325.815 368.59 325.902 367.005 Q325.566 367.502 325.051 367.769 Q324.536 368.035 323.911 368.035 Q322.615 368.035 321.857 367.253 Q321.104 366.466 321.104 365.107 Q321.104 363.775 321.891 362.971 Q322.678 362.167 323.986 362.167 Q325.485 362.167 326.272 363.318 Q327.065 364.464 327.065 366.652 Q327.065 368.694 326.093 369.916 Q325.126 371.131 323.489 371.131 Q323.049 371.131 322.597 371.044 Q322.146 370.957 321.66 370.784 M323.986 367.12 Q324.773 367.12 325.23 366.582 Q325.693 366.044 325.693 365.107 Q325.693 364.175 325.23 363.637 Q324.773 363.093 323.986 363.093 Q323.199 363.093 322.736 363.637 Q322.279 364.175 322.279 365.107 Q322.279 366.044 322.736 366.582 Q323.199 367.12 323.986 367.12 Z" fill="#000000" fill-rule="evenodd" fill-opacity="1" /><path clip-path="url(#clip760)" d="M 0 0 M327.644 367.242 L330.763 367.242 L330.763 368.191 L327.644 368.191 L327.644 367.242 Z" fill="#000000" fill-rule="evenodd" fill-opacity="1" /><path clip-path="url(#clip760)" d="M 0 0 M334.53 363.093 Q333.627 363.093 333.17 363.984 Q332.719 364.869 332.719 366.652 Q332.719 368.428 333.17 369.319 Q333.627 370.205 334.53 370.205 Q335.439 370.205 335.89 369.319 Q336.347 368.428 336.347 366.652 Q336.347 364.869 335.89 363.984 Q335.439 363.093 334.53 363.093 M334.53 362.167 Q335.983 362.167 336.747 363.318 Q337.516 364.464 337.516 366.652 Q337.516 368.833 336.747 369.985 Q335.983 371.131 334.53 371.131 Q333.078 371.131 332.308 369.985 Q331.544 368.833 331.544 366.652 Q331.544 364.464 332.308 363.318 Q333.078 362.167 334.53 362.167 Z" fill="#000000" fill-rule="evenodd" fill-opacity="1" /><path clip-path="url(#clip760)" d="M 0 0 M338.986 369.979 L340.896 369.979 L340.896 363.388 L338.818 363.804 L338.818 362.74 L340.884 362.323 L342.053 362.323 L342.053 369.979 L343.963 369.979 L343.963 370.963 L338.986 370.963 L338.986 369.979 Z" fill="#000000" fill-rule="evenodd" fill-opacity="1" /><path clip-path="url(#clip760)" d="M 0 0 M344.542 367.242 L347.661 367.242 L347.661 368.191 L344.542 368.191 L344.542 367.242 Z" fill="#000000" fill-rule="evenodd" fill-opacity="1" /><path clip-path="url(#clip760)" d="M 0 0 M351.428 363.093 Q350.525 363.093 350.068 363.984 Q349.617 364.869 349.617 366.652 Q349.617 368.428 350.068 369.319 Q350.525 370.205 351.428 370.205 Q352.337 370.205 352.788 369.319 Q353.245 368.428 353.245 366.652 Q353.245 364.869 352.788 363.984 Q352.337 363.093 351.428 363.093 M351.428 362.167 Q352.881 362.167 353.645 363.318 Q354.414 364.464 354.414 366.652 Q354.414 368.833 353.645 369.985 Q352.881 371.131 351.428 371.131 Q349.976 371.131 349.206 369.985 Q348.442 368.833 348.442 366.652 Q348.442 364.464 349.206 363.318 Q349.976 362.167 351.428 362.167 Z" fill="#000000" fill-rule="evenodd" fill-opacity="1" /><path clip-path="url(#clip760)" d="M 0 0 M355.884 369.979 L357.794 369.979 L357.794 363.388 L355.716 363.804 L355.716 362.74 L357.782 362.323 L358.951 362.323 L358.951 369.979 L360.861 369.979 L360.861 370.963 L355.884 370.963 L355.884 369.979 Z" fill="#000000" fill-rule="evenodd" fill-opacity="1" /><path clip-path="url(#clip760)" d="M 0 0 M443.15 369.979 L447.229 369.979 L447.229 370.963 L441.743 370.963 L441.743 369.979 Q442.409 369.291 443.555 368.133 Q444.706 366.97 445.002 366.634 Q445.563 366.003 445.783 365.569 Q446.008 365.13 446.008 364.707 Q446.008 364.019 445.522 363.585 Q445.042 363.151 444.267 363.151 Q443.717 363.151 443.103 363.341 Q442.496 363.532 441.801 363.92 L441.801 362.74 Q442.507 362.456 443.121 362.311 Q443.734 362.167 444.243 362.167 Q445.586 362.167 446.385 362.838 Q447.183 363.509 447.183 364.632 Q447.183 365.164 446.981 365.645 Q446.784 366.119 446.257 366.767 Q446.113 366.935 445.337 367.74 Q444.562 368.538 443.15 369.979 Z" fill="#000000" fill-rule="evenodd" fill-opacity="1" /><path clip-path="url(#clip760)" d="M 0 0 M450.997 363.093 Q450.094 363.093 449.637 363.984 Q449.186 364.869 449.186 366.652 Q449.186 368.428 449.637 369.319 Q450.094 370.205 450.997 370.205 Q451.905 370.205 452.357 369.319 Q452.814 368.428 452.814 366.652 Q452.814 364.869 452.357 363.984 Q451.905 363.093 450.997 363.093 M450.997 362.167 Q452.449 362.167 453.213 363.318 Q453.983 364.464 453.983 366.652 Q453.983 368.833 453.213 369.985 Q452.449 371.131 450.997 371.131 Q449.544 371.131 448.775 369.985 Q448.011 368.833 448.011 366.652 Q448.011 364.464 448.775 363.318 Q449.544 362.167 450.997 362.167 Z" fill="#000000" fill-rule="evenodd" fill-opacity="1" /><path clip-path="url(#clip760)" d="M 0 0 M455.453 369.979 L457.363 369.979 L457.363 363.388 L455.285 363.804 L455.285 362.74 L457.351 362.323 L458.52 362.323 L458.52 369.979 L460.43 369.979 L460.43 370.963 L455.453 370.963 L455.453 369.979 Z" fill="#000000" fill-rule="evenodd" fill-opacity="1" /><path clip-path="url(#clip760)" d="M 0 0 M461.732 370.784 L461.732 369.719 Q462.172 369.927 462.623 370.037 Q463.074 370.147 463.508 370.147 Q464.666 370.147 465.273 369.372 Q465.887 368.59 465.974 367.005 Q465.638 367.502 465.123 367.769 Q464.608 368.035 463.983 368.035 Q462.687 368.035 461.928 367.253 Q461.176 366.466 461.176 365.107 Q461.176 363.775 461.963 362.971 Q462.75 362.167 464.058 362.167 Q465.557 362.167 466.344 363.318 Q467.137 364.464 467.137 366.652 Q467.137 368.694 466.165 369.916 Q465.198 371.131 463.56 371.131 Q463.121 371.131 462.669 371.044 Q462.218 370.957 461.732 370.784 M464.058 367.12 Q464.845 367.12 465.302 366.582 Q465.765 366.044 465.765 365.107 Q465.765 364.175 465.302 363.637 Q464.845 363.093 464.058 363.093 Q463.271 363.093 462.808 363.637 Q462.351 364.175 462.351 365.107 Q462.351 366.044 462.808 366.582 Q463.271 367.12 464.058 367.12 Z" fill="#000000" fill-rule="evenodd" fill-opacity="1" /><path clip-path="url(#clip760)" d="M 0 0 M467.716 367.242 L470.835 367.242 L470.835 368.191 L467.716 368.191 L467.716 367.242 Z" fill="#000000" fill-rule="evenodd" fill-opacity="1" /><path clip-path="url(#clip760)" d="M 0 0 M474.602 363.093 Q473.699 363.093 473.242 363.984 Q472.791 364.869 472.791 366.652 Q472.791 368.428 473.242 369.319 Q473.699 370.205 474.602 370.205 Q475.511 370.205 475.962 369.319 Q476.419 368.428 476.419 366.652 Q476.419 364.869 475.962 363.984 Q475.511 363.093 474.602 363.093 M474.602 362.167 Q476.055 362.167 476.818 363.318 Q477.588 364.464 477.588 366.652 Q477.588 368.833 476.818 369.985 Q476.055 371.131 474.602 371.131 Q473.149 371.131 472.38 369.985 Q471.616 368.833 471.616 366.652 Q471.616 364.464 472.38 363.318 Q473.149 362.167 474.602 362.167 Z" fill="#000000" fill-rule="evenodd" fill-opacity="1" /><path clip-path="url(#clip760)" d="M 0 0 M479.058 369.979 L480.968 369.979 L480.968 363.388 L478.89 363.804 L478.89 362.74 L480.956 362.323 L482.125 362.323 L482.125 369.979 L484.035 369.979 L484.035 370.963 L479.058 370.963 L479.058 369.979 Z" fill="#000000" fill-rule="evenodd" fill-opacity="1" /><path clip-path="url(#clip760)" d="M 0 0 M484.614 367.242 L487.733 367.242 L487.733 368.191 L484.614 368.191 L484.614 367.242 Z" fill="#000000" fill-rule="evenodd" fill-opacity="1" /><path clip-path="url(#clip760)" d="M 0 0 M491.5 363.093 Q490.597 363.093 490.14 363.984 Q489.689 364.869 489.689 366.652 Q489.689 368.428 490.14 369.319 Q490.597 370.205 491.5 370.205 Q492.409 370.205 492.86 369.319 Q493.317 368.428 493.317 366.652 Q493.317 364.869 492.86 363.984 Q492.409 363.093 491.5 363.093 M491.5 362.167 Q492.953 362.167 493.717 363.318 Q494.486 364.464 494.486 366.652 Q494.486 368.833 493.717 369.985 Q492.953 371.131 491.5 371.131 Q490.048 371.131 489.278 369.985 Q488.514 368.833 488.514 366.652 Q488.514 364.464 489.278 363.318 Q490.048 362.167 491.5 362.167 Z" fill="#000000" fill-rule="evenodd" fill-opacity="1" /><path clip-path="url(#clip760)" d="M 0 0 M495.956 369.979 L497.866 369.979 L497.866 363.388 L495.788 363.804 L495.788 362.74 L497.854 362.323 L499.023 362.323 L499.023 369.979 L500.933 369.979 L500.933 370.963 L495.956 370.963 L495.956 369.979 Z" fill="#000000" fill-rule="evenodd" fill-opacity="1" /><path clip-path="url(#clip760)" d="M 0 0 M304.184 381.452 L304.184 390.69 L306.125 390.69 Q308.584 390.69 309.722 389.576 Q310.868 388.462 310.868 386.059 Q310.868 383.672 309.722 382.566 Q308.584 381.452 306.125 381.452 L304.184 381.452 M302.576 380.131 L305.879 380.131 Q309.332 380.131 310.947 381.571 Q312.563 383.003 312.563 386.059 Q312.563 389.13 310.939 390.571 Q309.316 392.011 305.879 392.011 L302.576 392.011 L302.576 380.131 Z" fill="#000000" fill-rule="evenodd" fill-opacity="1" /><path clip-path="url(#clip760)" d="M 0 0 M318.149 387.531 Q316.374 387.531 315.69 387.937 Q315.006 388.343 315.006 389.321 Q315.006 390.101 315.515 390.563 Q316.032 391.016 316.915 391.016 Q318.133 391.016 318.865 390.157 Q319.605 389.29 319.605 387.857 L319.605 387.531 L318.149 387.531 M321.069 386.926 L321.069 392.011 L319.605 392.011 L319.605 390.658 Q319.103 391.47 318.355 391.86 Q317.608 392.242 316.525 392.242 Q315.157 392.242 314.345 391.478 Q313.541 390.706 313.541 389.417 Q313.541 387.913 314.544 387.149 Q315.555 386.385 317.552 386.385 L319.605 386.385 L319.605 386.242 Q319.605 385.231 318.936 384.682 Q318.276 384.125 317.074 384.125 Q316.311 384.125 315.586 384.308 Q314.862 384.491 314.194 384.857 L314.194 383.505 Q314.998 383.194 315.754 383.043 Q316.509 382.884 317.226 382.884 Q319.159 382.884 320.114 383.887 Q321.069 384.889 321.069 386.926 Z" fill="#000000" fill-rule="evenodd" fill-opacity="1" /><path clip-path="url(#clip760)" d="M 0 0 M324.053 380.569 L324.053 383.099 L327.069 383.099 L327.069 384.237 L324.053 384.237 L324.053 389.075 Q324.053 390.165 324.347 390.475 Q324.65 390.786 325.565 390.786 L327.069 390.786 L327.069 392.011 L325.565 392.011 Q323.87 392.011 323.225 391.382 Q322.581 390.746 322.581 389.075 L322.581 384.237 L321.507 384.237 L321.507 383.099 L322.581 383.099 L322.581 380.569 L324.053 380.569 Z" fill="#000000" fill-rule="evenodd" fill-opacity="1" /><path clip-path="url(#clip760)" d="M 0 0 M336.227 387.189 L336.227 387.905 L329.495 387.905 Q329.591 389.417 330.403 390.213 Q331.222 391 332.678 391 Q333.522 391 334.31 390.794 Q335.105 390.587 335.885 390.173 L335.885 391.557 Q335.097 391.892 334.27 392.067 Q333.442 392.242 332.591 392.242 Q330.458 392.242 329.209 391 Q327.968 389.759 327.968 387.642 Q327.968 385.454 329.145 384.173 Q330.331 382.884 332.336 382.884 Q334.134 382.884 335.177 384.046 Q336.227 385.2 336.227 387.189 M334.763 386.759 Q334.747 385.558 334.087 384.842 Q333.434 384.125 332.352 384.125 Q331.127 384.125 330.387 384.818 Q329.655 385.51 329.543 386.767 L334.763 386.759 Z" fill="#000000" fill-rule="evenodd" fill-opacity="1" /><polyline clip-path="url(#clip760)" style="stroke:#000000; stroke-width:1; stroke-opacity:1; fill:none" points="
  50.6147,355.795 50.6147,30.868 
  "/>
<polyline clip-path="url(#clip760)" style="stroke:#000000; stroke-width:1; stroke-opacity:1; fill:none" points="
  50.6147,347.357 57.0656,347.357 
  "/>
<polyline clip-path="url(#clip760)" style="stroke:#000000; stroke-width:1; stroke-opacity:1; fill:none" points="
  50.6147,289.014 57.0656,289.014 
  "/>
<polyline clip-path="url(#clip760)" style="stroke:#000000; stroke-width:1; stroke-opacity:1; fill:none" points="
  50.6147,230.671 57.0656,230.671 
  "/>
<polyline clip-path="url(#clip760)" style="stroke:#000000; stroke-width:1; stroke-opacity:1; fill:none" points="
  50.6147,172.328 57.0656,172.328 
  "/>
<polyline clip-path="url(#clip760)" style="stroke:#000000; stroke-width:1; stroke-opacity:1; fill:none" points="
  50.6147,113.985 57.0656,113.985 
  "/>
<polyline clip-path="url(#clip760)" style="stroke:#000000; stroke-width:1; stroke-opacity:1; fill:none" points="
  50.6147,55.6417 57.0656,55.6417 
  "/>
<path clip-path="url(#clip760)" d="M 0 0 M29.8845 350.694 L31.7942 350.694 L31.7942 344.102 L29.7167 344.519 L29.7167 343.454 L31.7826 343.037 L32.9516 343.037 L32.9516 350.694 L34.8613 350.694 L34.8613 351.677 L29.8845 351.677 L29.8845 350.694 Z" fill="#000000" fill-rule="evenodd" fill-opacity="1" /><path clip-path="url(#clip760)" d="M 0 0 M38.6286 343.807 Q37.7259 343.807 37.2687 344.698 Q36.8173 345.584 36.8173 347.366 Q36.8173 349.143 37.2687 350.034 Q37.7259 350.919 38.6286 350.919 Q39.5372 350.919 39.9886 350.034 Q40.4458 349.143 40.4458 347.366 Q40.4458 345.584 39.9886 344.698 Q39.5372 343.807 38.6286 343.807 M38.6286 342.881 Q40.0812 342.881 40.8451 344.033 Q41.6147 345.179 41.6147 347.366 Q41.6147 349.548 40.8451 350.699 Q40.0812 351.845 38.6286 351.845 Q37.1761 351.845 36.4064 350.699 Q35.6425 349.548 35.6425 347.366 Q35.6425 345.179 36.4064 344.033 Q37.1761 342.881 38.6286 342.881 Z" fill="#000000" fill-rule="evenodd" fill-opacity="1" /><path clip-path="url(#clip760)" d="M 0 0 M30.7815 292.35 L34.8613 292.35 L34.8613 293.334 L29.3752 293.334 L29.3752 292.35 Q30.0407 291.662 31.1866 290.504 Q32.3382 289.341 32.6333 289.006 Q33.1946 288.375 33.4146 287.941 Q33.6402 287.501 33.6402 287.078 Q33.6402 286.39 33.1541 285.956 Q32.6738 285.522 31.8984 285.522 Q31.3486 285.522 30.7352 285.713 Q30.1275 285.904 29.4331 286.291 L29.4331 285.111 Q30.1391 284.827 30.7525 284.683 Q31.366 284.538 31.8752 284.538 Q33.2178 284.538 34.0164 285.209 Q34.815 285.881 34.815 287.003 Q34.815 287.536 34.6125 288.016 Q34.4157 288.491 33.8891 289.139 Q33.7444 289.306 32.969 290.111 Q32.1935 290.909 30.7815 292.35 Z" fill="#000000" fill-rule="evenodd" fill-opacity="1" /><path clip-path="url(#clip760)" d="M 0 0 M38.6286 285.464 Q37.7259 285.464 37.2687 286.355 Q36.8173 287.241 36.8173 289.023 Q36.8173 290.8 37.2687 291.691 Q37.7259 292.576 38.6286 292.576 Q39.5372 292.576 39.9886 291.691 Q40.4458 290.8 40.4458 289.023 Q40.4458 287.241 39.9886 286.355 Q39.5372 285.464 38.6286 285.464 M38.6286 284.538 Q40.0812 284.538 40.8451 285.69 Q41.6147 286.835 41.6147 289.023 Q41.6147 291.205 40.8451 292.356 Q40.0812 293.502 38.6286 293.502 Q37.1761 293.502 36.4064 292.356 Q35.6425 291.205 35.6425 289.023 Q35.6425 286.835 36.4064 285.69 Q37.1761 284.538 38.6286 284.538 Z" fill="#000000" fill-rule="evenodd" fill-opacity="1" /><path clip-path="url(#clip760)" d="M 0 0 M33.0789 230.333 Q33.918 230.512 34.3868 231.079 Q34.8613 231.646 34.8613 232.48 Q34.8613 233.758 33.9817 234.459 Q33.1021 235.159 31.4817 235.159 Q30.9377 235.159 30.359 235.049 Q29.7861 234.945 29.1727 234.731 L29.1727 233.602 Q29.6588 233.886 30.2375 234.03 Q30.8162 234.175 31.447 234.175 Q32.5465 234.175 33.1194 233.741 Q33.6981 233.307 33.6981 232.48 Q33.6981 231.716 33.1599 231.287 Q32.6275 230.853 31.6727 230.853 L30.6657 230.853 L30.6657 229.893 L31.719 229.893 Q32.5812 229.893 33.0384 229.551 Q33.4956 229.204 33.4956 228.556 Q33.4956 227.89 33.021 227.537 Q32.5523 227.179 31.6727 227.179 Q31.1923 227.179 30.6426 227.283 Q30.0928 227.387 29.4331 227.607 L29.4331 226.565 Q30.0986 226.38 30.6773 226.287 Q31.2618 226.195 31.7768 226.195 Q33.1078 226.195 33.8833 226.802 Q34.6588 227.404 34.6588 228.434 Q34.6588 229.152 34.2479 229.65 Q33.837 230.142 33.0789 230.333 Z" fill="#000000" fill-rule="evenodd" fill-opacity="1" /><path clip-path="url(#clip760)" d="M 0 0 M38.6286 227.121 Q37.7259 227.121 37.2687 228.012 Q36.8173 228.897 36.8173 230.68 Q36.8173 232.456 37.2687 233.348 Q37.7259 234.233 38.6286 234.233 Q39.5372 234.233 39.9886 233.348 Q40.4458 232.456 40.4458 230.68 Q40.4458 228.897 39.9886 228.012 Q39.5372 227.121 38.6286 227.121 M38.6286 226.195 Q40.0812 226.195 40.8451 227.346 Q41.6147 228.492 41.6147 230.68 Q41.6147 232.861 40.8451 234.013 Q40.0812 235.159 38.6286 235.159 Q37.1761 235.159 36.4064 234.013 Q35.6425 232.861 35.6425 230.68 Q35.6425 228.492 36.4064 227.346 Q37.1761 226.195 38.6286 226.195 Z" fill="#000000" fill-rule="evenodd" fill-opacity="1" /><path clip-path="url(#clip760)" d="M 0 0 M32.4655 169.026 L29.5141 173.639 L32.4655 173.639 L32.4655 169.026 M32.1588 168.008 L33.6287 168.008 L33.6287 173.639 L34.8613 173.639 L34.8613 174.611 L33.6287 174.611 L33.6287 176.648 L32.4655 176.648 L32.4655 174.611 L28.565 174.611 L28.565 173.482 L32.1588 168.008 Z" fill="#000000" fill-rule="evenodd" fill-opacity="1" /><path clip-path="url(#clip760)" d="M 0 0 M38.6286 168.778 Q37.7259 168.778 37.2687 169.669 Q36.8173 170.554 36.8173 172.337 Q36.8173 174.113 37.2687 175.004 Q37.7259 175.89 38.6286 175.89 Q39.5372 175.89 39.9886 175.004 Q40.4458 174.113 40.4458 172.337 Q40.4458 170.554 39.9886 169.669 Q39.5372 168.778 38.6286 168.778 M38.6286 167.852 Q40.0812 167.852 40.8451 169.003 Q41.6147 170.149 41.6147 172.337 Q41.6147 174.518 40.8451 175.67 Q40.0812 176.816 38.6286 176.816 Q37.1761 176.816 36.4064 175.67 Q35.6425 174.518 35.6425 172.337 Q35.6425 170.149 36.4064 169.003 Q37.1761 167.852 38.6286 167.852 Z" fill="#000000" fill-rule="evenodd" fill-opacity="1" /><path clip-path="url(#clip760)" d="M 0 0 M29.6356 109.665 L34.2247 109.665 L34.2247 110.649 L30.7062 110.649 L30.7062 112.767 Q30.9609 112.68 31.2155 112.639 Q31.4701 112.593 31.7247 112.593 Q33.1715 112.593 34.0164 113.386 Q34.8613 114.179 34.8613 115.533 Q34.8613 116.928 33.9933 117.703 Q33.1252 118.473 31.5453 118.473 Q31.0014 118.473 30.4342 118.38 Q29.8729 118.287 29.2711 118.102 L29.2711 116.928 Q29.7919 117.211 30.3474 117.35 Q30.903 117.489 31.5222 117.489 Q32.5234 117.489 33.1078 116.962 Q33.6923 116.436 33.6923 115.533 Q33.6923 114.63 33.1078 114.103 Q32.5234 113.577 31.5222 113.577 Q31.0535 113.577 30.5847 113.681 Q30.1217 113.785 29.6356 114.005 L29.6356 109.665 Z" fill="#000000" fill-rule="evenodd" fill-opacity="1" /><path clip-path="url(#clip760)" d="M 0 0 M38.6286 110.435 Q37.7259 110.435 37.2687 111.326 Q36.8173 112.211 36.8173 113.994 Q36.8173 115.77 37.2687 116.661 Q37.7259 117.547 38.6286 117.547 Q39.5372 117.547 39.9886 116.661 Q40.4458 115.77 40.4458 113.994 Q40.4458 112.211 39.9886 111.326 Q39.5372 110.435 38.6286 110.435 M38.6286 109.509 Q40.0812 109.509 40.8451 110.66 Q41.6147 111.806 41.6147 113.994 Q41.6147 116.175 40.8451 117.327 Q40.0812 118.473 38.6286 118.473 Q37.1761 118.473 36.4064 117.327 Q35.6425 116.175 35.6425 113.994 Q35.6425 111.806 36.4064 110.66 Q37.1761 109.509 38.6286 109.509 Z" fill="#000000" fill-rule="evenodd" fill-opacity="1" /><path clip-path="url(#clip760)" d="M 0 0 M31.9794 55.1758 Q31.1923 55.1758 30.7294 55.714 Q30.2722 56.2522 30.2722 57.1897 Q30.2722 58.1214 30.7294 58.6654 Q31.1923 59.2036 31.9794 59.2036 Q32.7664 59.2036 33.2236 58.6654 Q33.6865 58.1214 33.6865 57.1897 Q33.6865 56.2522 33.2236 55.714 Q32.7664 55.1758 31.9794 55.1758 M34.3 51.5127 L34.3 52.5775 Q33.8601 52.3691 33.4088 52.2592 Q32.9632 52.1492 32.5234 52.1492 Q31.366 52.1492 30.7525 52.9305 Q30.1449 53.7117 30.0581 55.2916 Q30.3995 54.7881 30.9146 54.5219 Q31.4296 54.2499 32.0488 54.2499 Q33.3509 54.2499 34.1032 55.0427 Q34.8613 55.8298 34.8613 57.1897 Q34.8613 58.5207 34.0743 59.3251 Q33.2872 60.1295 31.9794 60.1295 Q30.4805 60.1295 29.6877 58.9837 Q28.8949 57.8321 28.8949 55.6504 Q28.8949 53.6018 29.8671 52.3865 Q30.8393 51.1654 32.4771 51.1654 Q32.9169 51.1654 33.3625 51.2523 Q33.8139 51.3391 34.3 51.5127 Z" fill="#000000" fill-rule="evenodd" fill-opacity="1" /><path clip-path="url(#clip760)" d="M 0 0 M38.6286 52.0914 Q37.7259 52.0914 37.2687 52.9826 Q36.8173 53.868 36.8173 55.6504 Q36.8173 57.427 37.2687 58.3182 Q37.7259 59.2036 38.6286 59.2036 Q39.5372 59.2036 39.9886 58.3182 Q40.4458 57.427 40.4458 55.6504 Q40.4458 53.868 39.9886 52.9826 Q39.5372 52.0914 38.6286 52.0914 M38.6286 51.1654 Q40.0812 51.1654 40.8451 52.3171 Q41.6147 53.4629 41.6147 55.6504 Q41.6147 57.8321 40.8451 58.9837 Q40.0812 60.1295 38.6286 60.1295 Q37.1761 60.1295 36.4064 58.9837 Q35.6425 57.8321 35.6425 55.6504 Q35.6425 53.4629 36.4064 52.3171 Q37.1761 51.1654 38.6286 51.1654 Z" fill="#000000" fill-rule="evenodd" fill-opacity="1" /><path clip-path="url(#clip760)" d="M 0 0 M16.001 218.377 L4.12104 222.912 L4.12104 221.233 L14.1232 217.469 L4.12104 213.698 L4.12104 212.027 L16.001 216.554 L16.001 218.377 Z" fill="#000000" fill-rule="evenodd" fill-opacity="1" /><path clip-path="url(#clip760)" d="M 0 0 M4.12104 210.427 L4.12104 208.82 L16.001 208.82 L16.001 210.427 L4.12104 210.427 Z" fill="#000000" fill-rule="evenodd" fill-opacity="1" /><path clip-path="url(#clip760)" d="M 0 0 M4.12104 207.794 L4.12104 206.067 L8.53725 203.115 L4.12104 200.147 L4.12104 198.42 L9.8263 202.24 L16.001 198.165 L16.001 199.892 L10.9483 203.234 L16.001 206.6 L16.001 208.335 L9.6592 204.094 L4.12104 207.794 Z" fill="#000000" fill-rule="evenodd" fill-opacity="1" /><path clip-path="url(#clip760)" d="M 0 0 M3.61974 191.45 L3.61974 189.986 L16.001 189.986 L16.001 191.45 L3.61974 191.45 Z" fill="#000000" fill-rule="evenodd" fill-opacity="1" /><path clip-path="url(#clip760)" d="M 0 0 M11.5212 184.4 Q11.5212 186.174 11.927 186.858 Q12.3328 187.543 13.3115 187.543 Q14.0913 187.543 14.5528 187.033 Q15.0064 186.516 15.0064 185.633 Q15.0064 184.416 14.147 183.683 Q13.2797 182.943 11.8474 182.943 L11.5212 182.943 L11.5212 184.4 M10.9164 181.479 L16.001 181.479 L16.001 182.943 L14.6483 182.943 Q15.46 183.445 15.8499 184.193 Q16.2318 184.941 16.2318 186.023 Q16.2318 187.391 15.4679 188.203 Q14.6961 189.007 13.407 189.007 Q11.9031 189.007 11.1392 188.004 Q10.3753 186.994 10.3753 184.996 L10.3753 182.943 L10.2321 182.943 Q9.22156 182.943 8.67252 183.612 Q8.11552 184.272 8.11552 185.474 Q8.11552 186.238 8.29853 186.962 Q8.48155 187.686 8.84758 188.354 L7.49486 188.354 Q7.18454 187.551 7.03335 186.795 Q6.87421 186.039 6.87421 185.323 Q6.87421 183.389 7.87681 182.434 Q8.87941 181.479 10.9164 181.479 Z" fill="#000000" fill-rule="evenodd" fill-opacity="1" /><path clip-path="url(#clip760)" d="M 0 0 M11.4416 174.079 Q9.85018 174.079 8.97489 174.74 Q8.09961 175.392 8.09961 176.578 Q8.09961 177.755 8.97489 178.416 Q9.85018 179.068 11.4416 179.068 Q13.0251 179.068 13.9004 178.416 Q14.7756 177.755 14.7756 176.578 Q14.7756 175.392 13.9004 174.74 Q13.0251 174.079 11.4416 174.079 M14.895 172.615 Q17.1707 172.615 18.2768 173.626 Q19.3908 174.636 19.3908 176.721 Q19.3908 177.493 19.2714 178.177 Q19.16 178.861 18.9213 179.506 L17.497 179.506 Q17.8471 178.861 18.0142 178.233 Q18.1813 177.604 18.1813 176.952 Q18.1813 175.511 17.4254 174.795 Q16.6774 174.079 15.1576 174.079 L14.4335 174.079 Q15.2212 174.533 15.6111 175.241 Q16.001 175.949 16.001 176.936 Q16.001 178.575 14.7518 179.578 Q13.5025 180.58 11.4416 180.58 Q9.37275 180.58 8.12348 179.578 Q6.87421 178.575 6.87421 176.936 Q6.87421 175.949 7.26411 175.241 Q7.65401 174.533 8.44176 174.079 L7.08905 174.079 L7.08905 172.615 L14.895 172.615 Z" fill="#000000" fill-rule="evenodd" fill-opacity="1" /><path clip-path="url(#clip760)" d="M 0 0 M14.6483 170.594 L14.6483 167.968 L5.58515 167.968 L6.15807 170.825 L4.69395 170.825 L4.12104 167.984 L4.12104 166.377 L14.6483 166.377 L14.6483 163.751 L16.001 163.751 L16.001 170.594 L14.6483 170.594 Z" fill="#000000" fill-rule="evenodd" fill-opacity="1" /><path clip-path="url(#clip760)" d="M 0 0 M309.427 18.144 L303.654 3.024 L305.791 3.024 L310.581 15.754 L315.381 3.024 L317.508 3.024 L311.746 18.144 L309.427 18.144 Z" fill="#000000" fill-rule="evenodd" fill-opacity="1" /><path clip-path="url(#clip760)" d="M 0 0 M319.544 3.024 L321.589 3.024 L321.589 18.144 L319.544 18.144 L319.544 3.024 Z" fill="#000000" fill-rule="evenodd" fill-opacity="1" /><path clip-path="url(#clip760)" d="M 0 0 M322.896 3.024 L325.093 3.024 L328.851 8.64463 L332.628 3.024 L334.826 3.024 L329.965 10.2852 L335.15 18.144 L332.952 18.144 L328.699 11.7132 L324.415 18.144 L322.207 18.144 L327.605 10.0726 L322.896 3.024 Z" fill="#000000" fill-rule="evenodd" fill-opacity="1" /><polyline clip-path="url(#clip762)" style="stroke:#6c8ebf; stroke-width:2; stroke-opacity:1; fill:none" points="
  65.8291,269.469 66.9042,269.994 68.0945,288.664 69.2464,280.846 70.4367,300.099 71.5886,307.567 72.7789,298.407 73.9692,241.29 75.1211,235.864 76.3114,232.83 
  77.4633,260.484 78.6536,269.411 79.844,245.665 80.9191,279.679 82.1094,302.2 83.2613,304.358 84.4516,306.926 85.6035,305.7 86.7938,304.825 87.9841,314.218 
  89.136,306.751 90.3263,310.251 91.4782,302.025 92.6685,298.641 93.8588,302.55 94.9723,303.717 96.1626,303.483 97.3145,309.084 98.5048,317.719 99.6567,317.019 
  100.847,326.354 102.037,321.57 103.189,325.77 104.38,302.783 105.531,321.57 106.722,334.58 107.912,333.297 108.987,325.654 110.177,326.296 111.329,330.788 
  112.52,326.296 113.672,332.655 114.862,338.606 116.052,336.097 117.204,330.263 118.394,336.389 119.546,323.553 120.737,339.423 121.927,339.831 123.002,326.12 
  124.192,316.902 125.344,309.609 126.535,324.604 127.686,327.462 128.877,332.888 130.067,336.331 131.219,328.513 132.409,316.727 133.561,310.134 134.751,322.97 
  135.942,334.113 137.017,338.781 138.207,334.697 139.359,333.122 140.549,334.113 141.701,336.272 142.892,332.713 144.082,331.021 145.234,335.339 146.424,321.92 
  147.576,332.947 148.766,337.147 149.957,327.112 151.07,318.011 152.26,302.083 153.412,308.968 154.603,311.476 155.755,310.018 156.945,300.8 158.135,313.752 
  159.287,308.968 160.477,310.134 161.629,312.351 162.82,293.332 164.01,292.106 165.085,288.197 166.275,288.022 167.427,290.998 168.617,289.481 169.769,287.906 
  170.96,285.922 172.15,271.045 173.302,266.786 174.492,266.435 175.644,217.777 176.834,252.375 178.025,266.435 179.1,289.014 180.29,288.081 181.442,277.171 
  182.632,283.938 183.784,279.329 184.975,289.423 186.165,221.395 187.317,182.83 188.507,192.106 189.659,252.725 190.849,257.042 192.04,242.106 193.115,237.556 
  194.305,258.034 195.457,268.711 196.647,252.841 197.799,267.836 198.989,282.888 200.18,263.81 201.332,262.526 202.522,265.56 203.674,278.396 204.864,276.412 
  206.054,270.344 207.168,268.011 208.358,273.145 209.51,247.241 210.7,251.85 211.852,280.029 213.043,289.656 214.233,300.158 215.385,290.823 216.575,258.676 
  217.727,251.791 218.917,250.916 220.108,260.309 221.183,269.119 222.373,239.423 223.525,241.581 224.715,271.861 225.867,283.53 227.057,275.479 228.248,278.162 
  229.4,201.091 230.59,214.802 231.742,250.333 232.932,267.311 234.122,275.887 235.198,272.211 236.388,294.907 237.54,289.598 238.73,288.489 239.882,258.267 
  241.072,207.042 242.263,208.851 243.415,186.039 244.605,200.099 245.757,241.29 246.947,241.115 248.137,245.724 249.212,217.719 250.403,226.995 251.555,265.735 
  252.745,287.614 253.897,286.914 255.087,293.915 256.277,293.273 257.429,291.756 258.62,300.566 259.772,304.183 260.962,307.509 262.152,311.768 263.266,312.351 
  264.456,302.492 265.608,314.102 266.798,302.375 267.95,316.202 269.14,315.269 270.331,308.384 271.483,323.553 272.673,318.361 273.825,326.471 275.015,333.005 
  276.205,327.287 277.281,337.381 278.471,329.096 279.623,321.336 280.813,324.195 281.965,336.447 283.155,341.231 284.346,330.146 285.497,332.013 286.688,318.536 
  287.84,334.814 289.03,340.006 290.22,335.455 291.295,332.947 292.486,337.497 293.638,336.564 294.828,321.395 295.98,306.984 297.17,316.26 298.36,327.812 
  299.512,334.639 300.703,339.714 301.854,342.573 303.045,341.756 304.235,341.29 305.31,340.59 306.501,317.252 307.652,330.263 308.843,328.104 309.995,318.478 
  311.185,304.942 312.375,259.668 313.527,276.179 314.717,294.148 315.869,256.459 317.06,279.388 318.25,255.059 319.363,257.159 320.554,247.591 321.706,279.913 
  322.896,298.933 324.048,276.704 325.238,263.81 326.428,284.93 327.58,229.271 328.771,48.7572 329.923,40.0641 331.113,99.9241 332.303,145.023 333.378,139.831 
  334.569,144.323 335.721,183.647 336.911,219.119 338.063,235.689 339.253,253.075 340.443,257.859 341.595,260.251 342.786,264.218 343.937,266.902 345.128,281.78 
  346.318,285.28 347.393,274.195 348.583,302.025 349.735,304.067 350.926,219.411 352.078,231.138 353.268,256.517 354.458,261.301 355.61,274.312 356.8,286.856 
  357.952,288.431 359.143,303.192 360.333,304.65 361.408,304.008 362.598,284.814 363.75,310.951 364.941,307.042 366.092,293.973 367.283,293.507 368.473,201.325 
  369.625,192.573 370.815,214.16 371.967,219.353 373.157,259.551 374.348,287.672 375.461,298.232 376.652,311.36 377.803,301.733 378.994,283.18 380.146,282.421 
  381.336,303.192 382.526,314.16 383.678,316.552 384.868,310.718 386.02,308.267 387.211,304.709 388.401,326.879 389.476,323.612 390.666,329.679 391.818,324.195 
  393.009,326.996 394.161,304.942 395.351,324.195 396.541,322.795 397.693,319.994 398.883,315.794 400.035,330.321 401.226,322.912 402.416,322.62 403.491,315.444 
  404.681,319.119 405.833,322.853 407.023,332.888 408.175,338.373 409.366,333.938 410.556,326.996 411.708,327.112 412.898,300.333 414.05,327.462 415.24,310.66 
  416.431,294.148 417.506,312.935 418.696,319.294 419.848,326.996 421.038,327.871 422.19,322.036 423.381,321.978 424.571,292.34 425.723,263.46 426.913,307.742 
  428.065,311.126 429.255,300.508 430.446,267.311 431.559,274.312 432.749,313.227 433.901,322.27 435.092,319.061 436.243,302.025 437.434,328.921 438.624,333.355 
  439.776,322.737 440.966,320.578 442.118,316.786 443.308,332.947 444.499,337.964 445.574,338.431 446.764,336.272 447.916,329.038 449.106,342.34 450.258,344.382 
  451.449,345.84 452.639,335.805 453.791,344.79 454.981,346.599 456.133,344.207 457.323,345.84 458.514,341.173 459.589,274.662 460.779,294.732 461.931,299.108 
  463.121,323.32 464.273,325.887 465.463,328.979 466.654,332.48 467.806,330.38 468.996,292.807 470.148,292.573 471.338,260.134 472.528,291.523 473.604,316.844 
  474.794,321.161 475.946,330.146 477.136,308.151 478.288,313.285 479.478,328.046 480.669,294.965 481.821,314.919 483.011,315.444 484.163,332.655 485.353,325.42 
  
  "/>
<polyline clip-path="url(#clip762)" style="stroke:#780000; stroke-width:2; stroke-opacity:1; fill:none" points="
  486.543,324.37 487.657,291.173 488.847,68.8272 489.999,163.868 491.189,225.42 492.341,224.137 493.532,249.108 494.722,272.153 495.874,244.382 497.064,233.938 
  498.216,259.843 499.406,275.187 500.597,260.368 501.672,270.694 502.862,278.279 504.014,304.067 505.204,290.414 506.356,306.751 507.546,303.017 508.737,303.775 
  509.889,290.064 511.079,301.441 512.231,297.766 513.421,281.138 514.611,270.461 515.687,255.467 516.877,248.349 518.029,263.518 519.219,234.697 
  "/>
<polyline clip-path="url(#clip762)" style="stroke:#c0a34d; stroke-width:2; stroke-opacity:1; fill:none" points="
  520.371,240.998 521.561,259.843 522.752,276.354 523.903,246.19 525.094,230.613 526.246,269.761 527.436,278.629 528.626,288.022 529.701,288.314 530.892,279.446 
  532.044,301.733 533.234,302.783 534.386,324.02 535.576,324.429 536.766,313.227 537.918,317.194 539.109,295.49 540.261,323.903 541.451,331.488 542.641,327.579 
  543.755,324.137 544.945,325.245 546.097,311.535 547.287,329.504 548.439,331.78 549.629,321.861 550.82,293.04 551.972,302.667 553.162,289.248 554.314,312.235 
  555.504,313.11 556.694,307.917 557.769,306.692 558.96,278.279 560.112,219.178 561.302,286.33 562.454,298.349 563.644,310.134 564.834,313.81 565.986,313.577 
  567.177,300.158 568.329,290.356 569.519,314.977 570.709,311.301 571.784,293.623 572.975,256.342 
  "/>
<path clip-path="url(#clip760)" d="
M68.5339 102.179 L181.997 102.179 L181.997 41.6989 L68.5339 41.6989  Z
  " fill="#ffffff" fill-rule="evenodd" fill-opacity="1"/>
<polyline clip-path="url(#clip760)" style="stroke:#000000; stroke-width:1; stroke-opacity:1; fill:none" points="
  68.5339,102.179 181.997,102.179 181.997,41.6989 68.5339,41.6989 68.5339,102.179 
  "/>
<polyline clip-path="url(#clip760)" style="stroke:#6c8ebf; stroke-width:1; stroke-opacity:1; fill:none" points="
  74.5069,56.8189 110.345,56.8189 
  "/>
<path clip-path="url(#clip760)" d="M 0 0 M117.389 60.1667 L117.389 63.6042 L116.318 63.6042 L116.318 54.6575 L117.389 54.6575 L117.389 55.6413 Q117.724 55.0626 118.234 54.7848 Q118.749 54.5012 119.461 54.5012 Q120.641 54.5012 121.376 55.4387 Q122.117 56.3762 122.117 57.904 Q122.117 59.4318 121.376 60.3693 Q120.641 61.3068 119.461 61.3068 Q118.749 61.3068 118.234 61.029 Q117.724 60.7454 117.389 60.1667 M121.012 57.904 Q121.012 56.7292 120.525 56.0637 Q120.045 55.3924 119.2 55.3924 Q118.355 55.3924 117.869 56.0637 Q117.389 56.7292 117.389 57.904 Q117.389 59.0788 117.869 59.75 Q118.355 60.4156 119.2 60.4156 Q120.045 60.4156 120.525 59.75 Q121.012 59.0788 121.012 57.904 Z" fill="#000000" fill-rule="evenodd" fill-opacity="1" /><path clip-path="url(#clip760)" d="M 0 0 M126.989 55.6528 Q126.81 55.5487 126.596 55.5024 Q126.388 55.4503 126.133 55.4503 Q125.23 55.4503 124.744 56.0406 Q124.264 56.6251 124.264 57.7246 L124.264 61.1389 L123.193 61.1389 L123.193 54.6575 L124.264 54.6575 L124.264 55.6644 Q124.599 55.0741 125.138 54.7906 Q125.676 54.5012 126.446 54.5012 Q126.555 54.5012 126.689 54.5186 Q126.822 54.5302 126.984 54.5591 L126.989 55.6528 Z" fill="#000000" fill-rule="evenodd" fill-opacity="1" /><path clip-path="url(#clip760)" d="M 0 0 M133.39 57.632 L133.39 58.1528 L128.494 58.1528 Q128.564 59.2524 129.154 59.8311 Q129.75 60.404 130.809 60.404 Q131.422 60.404 131.995 60.2535 Q132.574 60.1031 133.141 59.8021 L133.141 60.8091 Q132.568 61.0521 131.966 61.1794 Q131.364 61.3068 130.745 61.3068 Q129.194 61.3068 128.286 60.404 Q127.383 59.5012 127.383 57.9619 Q127.383 56.3704 128.239 55.4387 Q129.102 54.5012 130.56 54.5012 Q131.868 54.5012 132.626 55.3461 Q133.39 56.1853 133.39 57.632 M132.325 57.3195 Q132.314 56.4457 131.833 55.9248 Q131.359 55.404 130.572 55.404 Q129.68 55.404 129.142 55.9075 Q128.61 56.4109 128.529 57.3253 L132.325 57.3195 Z" fill="#000000" fill-rule="evenodd" fill-opacity="1" /><path clip-path="url(#clip760)" d="M 0 0 M133.969 57.4179 L137.088 57.4179 L137.088 58.367 L133.969 58.367 L133.969 57.4179 Z" fill="#000000" fill-rule="evenodd" fill-opacity="1" /><path clip-path="url(#clip760)" d="M 0 0 M142.869 54.9063 L142.869 55.9017 Q142.418 55.6528 141.96 55.5313 Q141.509 55.404 141.046 55.404 Q140.01 55.404 139.437 56.0637 Q138.864 56.7177 138.864 57.904 Q138.864 59.0903 139.437 59.75 Q140.01 60.404 141.046 60.404 Q141.509 60.404 141.96 60.2825 Q142.418 60.1551 142.869 59.9063 L142.869 60.8901 Q142.423 61.0984 141.943 61.2026 Q141.469 61.3068 140.93 61.3068 Q139.466 61.3068 138.604 60.3866 Q137.742 59.4665 137.742 57.904 Q137.742 56.3184 138.61 55.4098 Q139.484 54.5012 141 54.5012 Q141.492 54.5012 141.96 54.6054 Q142.429 54.7038 142.869 54.9063 Z" fill="#000000" fill-rule="evenodd" fill-opacity="1" /><path clip-path="url(#clip760)" d="M 0 0 M146.497 55.404 Q145.641 55.404 145.143 56.0753 Q144.646 56.7408 144.646 57.904 Q144.646 59.0672 145.138 59.7385 Q145.635 60.404 146.497 60.404 Q147.348 60.404 147.846 59.7327 Q148.344 59.0614 148.344 57.904 Q148.344 56.7524 147.846 56.0811 Q147.348 55.404 146.497 55.404 M146.497 54.5012 Q147.886 54.5012 148.679 55.404 Q149.472 56.3068 149.472 57.904 Q149.472 59.4954 148.679 60.404 Q147.886 61.3068 146.497 61.3068 Q145.103 61.3068 144.31 60.404 Q143.523 59.4954 143.523 57.904 Q143.523 56.3068 144.31 55.404 Q145.103 54.5012 146.497 54.5012 Z" fill="#000000" fill-rule="evenodd" fill-opacity="1" /><path clip-path="url(#clip760)" d="M 0 0 M149.825 54.6575 L150.953 54.6575 L152.979 60.0973 L155.004 54.6575 L156.133 54.6575 L153.702 61.1389 L152.256 61.1389 L149.825 54.6575 Z" fill="#000000" fill-rule="evenodd" fill-opacity="1" /><path clip-path="url(#clip760)" d="M 0 0 M157.25 54.6575 L158.315 54.6575 L158.315 61.1389 L157.25 61.1389 L157.25 54.6575 M157.25 52.1343 L158.315 52.1343 L158.315 53.4827 L157.25 53.4827 L157.25 52.1343 Z" fill="#000000" fill-rule="evenodd" fill-opacity="1" /><path clip-path="url(#clip760)" d="M 0 0 M163.696 55.6413 L163.696 52.1343 L164.761 52.1343 L164.761 61.1389 L163.696 61.1389 L163.696 60.1667 Q163.361 60.7454 162.846 61.029 Q162.337 61.3068 161.619 61.3068 Q160.444 61.3068 159.703 60.3693 Q158.968 59.4318 158.968 57.904 Q158.968 56.3762 159.703 55.4387 Q160.444 54.5012 161.619 54.5012 Q162.337 54.5012 162.846 54.7848 Q163.361 55.0626 163.696 55.6413 M160.068 57.904 Q160.068 59.0788 160.548 59.75 Q161.034 60.4156 161.879 60.4156 Q162.724 60.4156 163.21 59.75 Q163.696 59.0788 163.696 57.904 Q163.696 56.7292 163.21 56.0637 Q162.724 55.3924 161.879 55.3924 Q161.034 55.3924 160.548 56.0637 Q160.068 56.7292 160.068 57.904 Z" fill="#000000" fill-rule="evenodd" fill-opacity="1" /><polyline clip-path="url(#clip760)" style="stroke:#780000; stroke-width:1; stroke-opacity:1; fill:none" points="
  74.5069,71.9389 110.345,71.9389 
  "/>
<path clip-path="url(#clip760)" d="M 0 0 M121.446 70.0263 L121.446 71.0217 Q120.994 70.7728 120.537 70.6513 Q120.086 70.524 119.623 70.524 Q118.587 70.524 118.014 71.1837 Q117.441 71.8377 117.441 73.024 Q117.441 74.2103 118.014 74.87 Q118.587 75.524 119.623 75.524 Q120.086 75.524 120.537 75.4025 Q120.994 75.2751 121.446 75.0263 L121.446 76.0101 Q121 76.2184 120.52 76.3226 Q120.045 76.4268 119.507 76.4268 Q118.043 76.4268 117.181 75.5066 Q116.318 74.5865 116.318 73.024 Q116.318 71.4384 117.186 70.5298 Q118.06 69.6212 119.576 69.6212 Q120.068 69.6212 120.537 69.7254 Q121.006 69.8238 121.446 70.0263 Z" fill="#000000" fill-rule="evenodd" fill-opacity="1" /><path clip-path="url(#clip760)" d="M 0 0 M125.074 70.524 Q124.218 70.524 123.72 71.1953 Q123.222 71.8608 123.222 73.024 Q123.222 74.1872 123.714 74.8585 Q124.212 75.524 125.074 75.524 Q125.925 75.524 126.422 74.8527 Q126.92 74.1814 126.92 73.024 Q126.92 71.8724 126.422 71.2011 Q125.925 70.524 125.074 70.524 M125.074 69.6212 Q126.463 69.6212 127.256 70.524 Q128.049 71.4268 128.049 73.024 Q128.049 74.6154 127.256 75.524 Q126.463 76.4268 125.074 76.4268 Q123.679 76.4268 122.887 75.524 Q122.099 74.6154 122.099 73.024 Q122.099 71.4268 122.887 70.524 Q123.679 69.6212 125.074 69.6212 Z" fill="#000000" fill-rule="evenodd" fill-opacity="1" /><path clip-path="url(#clip760)" d="M 0 0 M128.402 69.7775 L129.53 69.7775 L131.555 75.2173 L133.581 69.7775 L134.709 69.7775 L132.279 76.2589 L130.832 76.2589 L128.402 69.7775 Z" fill="#000000" fill-rule="evenodd" fill-opacity="1" /><path clip-path="url(#clip760)" d="M 0 0 M135.826 69.7775 L136.891 69.7775 L136.891 76.2589 L135.826 76.2589 L135.826 69.7775 M135.826 67.2543 L136.891 67.2543 L136.891 68.6027 L135.826 68.6027 L135.826 67.2543 Z" fill="#000000" fill-rule="evenodd" fill-opacity="1" /><path clip-path="url(#clip760)" d="M 0 0 M142.273 70.7613 L142.273 67.2543 L143.338 67.2543 L143.338 76.2589 L142.273 76.2589 L142.273 75.2867 Q141.937 75.8654 141.422 76.149 Q140.913 76.4268 140.195 76.4268 Q139.021 76.4268 138.28 75.4893 Q137.545 74.5518 137.545 73.024 Q137.545 71.4962 138.28 70.5587 Q139.021 69.6212 140.195 69.6212 Q140.913 69.6212 141.422 69.9048 Q141.937 70.1826 142.273 70.7613 M138.645 73.024 Q138.645 74.1988 139.125 74.87 Q139.611 75.5356 140.456 75.5356 Q141.301 75.5356 141.787 74.87 Q142.273 74.1988 142.273 73.024 Q142.273 71.8492 141.787 71.1837 Q141.301 70.5124 140.456 70.5124 Q139.611 70.5124 139.125 71.1837 Q138.645 71.8492 138.645 73.024 Z" fill="#000000" fill-rule="evenodd" fill-opacity="1" /><polyline clip-path="url(#clip760)" style="stroke:#c0a34d; stroke-width:1; stroke-opacity:1; fill:none" points="
  74.5069,87.0589 110.345,87.0589 
  "/>
<path clip-path="url(#clip760)" d="M 0 0 M117.389 90.4067 L117.389 93.8442 L116.318 93.8442 L116.318 84.8975 L117.389 84.8975 L117.389 85.8813 Q117.724 85.3026 118.234 85.0248 Q118.749 84.7412 119.461 84.7412 Q120.641 84.7412 121.376 85.6787 Q122.117 86.6162 122.117 88.144 Q122.117 89.6718 121.376 90.6093 Q120.641 91.5468 119.461 91.5468 Q118.749 91.5468 118.234 91.269 Q117.724 90.9854 117.389 90.4067 M121.012 88.144 Q121.012 86.9692 120.525 86.3037 Q120.045 85.6324 119.2 85.6324 Q118.355 85.6324 117.869 86.3037 Q117.389 86.9692 117.389 88.144 Q117.389 89.3188 117.869 89.99 Q118.355 90.6556 119.2 90.6556 Q120.045 90.6556 120.525 89.99 Q121.012 89.3188 121.012 88.144 Z" fill="#000000" fill-rule="evenodd" fill-opacity="1" /><path clip-path="url(#clip760)" d="M 0 0 M125.745 85.644 Q124.889 85.644 124.391 86.3153 Q123.893 86.9808 123.893 88.144 Q123.893 89.3072 124.385 89.9785 Q124.883 90.644 125.745 90.644 Q126.596 90.644 127.094 89.9727 Q127.591 89.3014 127.591 88.144 Q127.591 86.9924 127.094 86.3211 Q126.596 85.644 125.745 85.644 M125.745 84.7412 Q127.134 84.7412 127.927 85.644 Q128.72 86.5468 128.72 88.144 Q128.72 89.7354 127.927 90.644 Q127.134 91.5468 125.745 91.5468 Q124.351 91.5468 123.558 90.644 Q122.771 89.7354 122.771 88.144 Q122.771 86.5468 123.558 85.644 Q124.351 84.7412 125.745 84.7412 Z" fill="#000000" fill-rule="evenodd" fill-opacity="1" /><path clip-path="url(#clip760)" d="M 0 0 M133.969 85.0885 L133.969 86.0954 Q133.517 85.8639 133.031 85.7482 Q132.545 85.6324 132.024 85.6324 Q131.231 85.6324 130.832 85.8755 Q130.439 86.1185 130.439 86.6046 Q130.439 86.975 130.722 87.1891 Q131.006 87.3975 131.862 87.5884 L132.227 87.6695 Q133.361 87.9125 133.836 88.3581 Q134.316 88.7979 134.316 89.5907 Q134.316 90.4935 133.598 91.0201 Q132.886 91.5468 131.636 91.5468 Q131.116 91.5468 130.549 91.4426 Q129.987 91.3442 129.362 91.1417 L129.362 90.0421 Q129.952 90.3488 130.525 90.5051 Q131.098 90.6556 131.66 90.6556 Q132.412 90.6556 132.817 90.4009 Q133.222 90.1405 133.222 89.6718 Q133.222 89.2377 132.927 89.0063 Q132.638 88.7748 131.648 88.5607 L131.278 88.4739 Q130.288 88.2655 129.848 87.8373 Q129.408 87.4033 129.408 86.6509 Q129.408 85.7366 130.057 85.2389 Q130.705 84.7412 131.897 84.7412 Q132.487 84.7412 133.008 84.828 Q133.529 84.9148 133.969 85.0885 Z" fill="#000000" fill-rule="evenodd" fill-opacity="1" /><path clip-path="url(#clip760)" d="M 0 0 M136.486 83.0572 L136.486 84.8975 L138.679 84.8975 L138.679 85.725 L136.486 85.725 L136.486 89.2435 Q136.486 90.0363 136.7 90.262 Q136.92 90.4877 137.586 90.4877 L138.679 90.4877 L138.679 91.3789 L137.586 91.3789 Q136.353 91.3789 135.884 90.9218 Q135.415 90.4588 135.415 89.2435 L135.415 85.725 L134.634 85.725 L134.634 84.8975 L135.415 84.8975 L135.415 83.0572 L136.486 83.0572 Z" fill="#000000" fill-rule="evenodd" fill-opacity="1" /><path clip-path="url(#clip760)" d="M 0 0 M139.258 87.6579 L142.377 87.6579 L142.377 88.607 L139.258 88.607 L139.258 87.6579 Z" fill="#000000" fill-rule="evenodd" fill-opacity="1" /><path clip-path="url(#clip760)" d="M 0 0 M148.158 85.1463 L148.158 86.1417 Q147.707 85.8928 147.25 85.7713 Q146.798 85.644 146.335 85.644 Q145.3 85.644 144.727 86.3037 Q144.154 86.9577 144.154 88.144 Q144.154 89.3303 144.727 89.99 Q145.3 90.644 146.335 90.644 Q146.798 90.644 147.25 90.5225 Q147.707 90.3951 148.158 90.1463 L148.158 91.1301 Q147.713 91.3384 147.232 91.4426 Q146.758 91.5468 146.22 91.5468 Q144.756 91.5468 143.893 90.6266 Q143.031 89.7065 143.031 88.144 Q143.031 86.5584 143.899 85.6498 Q144.773 84.7412 146.289 84.7412 Q146.781 84.7412 147.25 84.8454 Q147.719 84.9438 148.158 85.1463 Z" fill="#000000" fill-rule="evenodd" fill-opacity="1" /><path clip-path="url(#clip760)" d="M 0 0 M151.787 85.644 Q150.93 85.644 150.433 86.3153 Q149.935 86.9808 149.935 88.144 Q149.935 89.3072 150.427 89.9785 Q150.925 90.644 151.787 90.644 Q152.638 90.644 153.135 89.9727 Q153.633 89.3014 153.633 88.144 Q153.633 86.9924 153.135 86.3211 Q152.638 85.644 151.787 85.644 M151.787 84.7412 Q153.176 84.7412 153.969 85.644 Q154.761 86.5468 154.761 88.144 Q154.761 89.7354 153.969 90.644 Q153.176 91.5468 151.787 91.5468 Q150.392 91.5468 149.599 90.644 Q148.812 89.7354 148.812 88.144 Q148.812 86.5468 149.599 85.644 Q150.392 84.7412 151.787 84.7412 Z" fill="#000000" fill-rule="evenodd" fill-opacity="1" /><path clip-path="url(#clip760)" d="M 0 0 M155.114 84.8975 L156.243 84.8975 L158.268 90.3373 L160.294 84.8975 L161.422 84.8975 L158.992 91.3789 L157.545 91.3789 L155.114 84.8975 Z" fill="#000000" fill-rule="evenodd" fill-opacity="1" /><path clip-path="url(#clip760)" d="M 0 0 M162.539 84.8975 L163.604 84.8975 L163.604 91.3789 L162.539 91.3789 L162.539 84.8975 M162.539 82.3743 L163.604 82.3743 L163.604 83.7227 L162.539 83.7227 L162.539 82.3743 Z" fill="#000000" fill-rule="evenodd" fill-opacity="1" /><path clip-path="url(#clip760)" d="M 0 0 M168.986 85.8813 L168.986 82.3743 L170.051 82.3743 L170.051 91.3789 L168.986 91.3789 L168.986 90.4067 Q168.65 90.9854 168.135 91.269 Q167.626 91.5468 166.908 91.5468 Q165.734 91.5468 164.993 90.6093 Q164.258 89.6718 164.258 88.144 Q164.258 86.6162 164.993 85.6787 Q165.734 84.7412 166.908 84.7412 Q167.626 84.7412 168.135 85.0248 Q168.65 85.3026 168.986 85.8813 M165.357 88.144 Q165.357 89.3188 165.838 89.99 Q166.324 90.6556 167.169 90.6556 Q168.014 90.6556 168.5 89.99 Q168.986 89.3188 168.986 88.144 Q168.986 86.9692 168.5 86.3037 Q168.014 85.6324 167.169 85.6324 Q166.324 85.6324 165.838 86.3037 Q165.357 86.9692 165.357 88.144 Z" fill="#000000" fill-rule="evenodd" fill-opacity="1" /></svg>
