<?xml version="1.0" encoding="utf-8"?>
<svg xmlns="http://www.w3.org/2000/svg" xmlns:xlink="http://www.w3.org/1999/xlink" width="600" height="400" viewBox="0 0 2400 1600">
<defs>
  <clipPath id="clip820">
    <rect x="0" y="0" width="2400" height="1600"/>
  </clipPath>
</defs>
<path clip-path="url(#clip820)" d="M0 1600 L2400 1600 L2400 0 L0 0  Z" fill="#ffffff" fill-rule="evenodd" fill-opacity="1"/>
<defs>
  <clipPath id="clip821">
    <rect x="164" y="155" width="2189" height="1230"/>
  </clipPath>
</defs>
<path clip-path="url(#clip820)" d="M164.943 1384.3 L2352.76 1384.3 L2352.76 155.373 L164.943 155.373  Z" fill="#ffffff" fill-rule="evenodd" fill-opacity="1"/>
<polyline clip-path="url(#clip820)" style="stroke:#000000; stroke-linecap:round; stroke-linejoin:round; stroke-width:4; stroke-opacity:1; fill:none" points="164.943,1384.3 2352.76,1384.3 "/>
<polyline clip-path="url(#clip820)" style="stroke:#000000; stroke-linecap:round; stroke-linejoin:round; stroke-width:4; stroke-opacity:1; fill:none" points="224.794,1384.3 224.794,1365.4 "/>
<polyline clip-path="url(#clip820)" style="stroke:#000000; stroke-linecap:round; stroke-linejoin:round; stroke-width:4; stroke-opacity:1; fill:none" points="741.822,1384.3 741.822,1365.4 "/>
<polyline clip-path="url(#clip820)" style="stroke:#000000; stroke-linecap:round; stroke-linejoin:round; stroke-width:4; stroke-opacity:1; fill:none" points="1258.85,1384.3 1258.85,1365.4 "/>
<polyline clip-path="url(#clip820)" style="stroke:#000000; stroke-linecap:round; stroke-linejoin:round; stroke-width:4; stroke-opacity:1; fill:none" points="1775.88,1384.3 1775.88,1365.4 "/>
<polyline clip-path="url(#clip820)" style="stroke:#000000; stroke-linecap:round; stroke-linejoin:round; stroke-width:4; stroke-opacity:1; fill:none" points="2292.9,1384.3 2292.9,1365.4 "/>
<path clip-path="url(#clip820)" d="M168.249 1421.08 Q162.833 1421.08 160.09 1426.43 Q157.381 1431.74 157.381 1442.43 Q157.381 1453.09 160.09 1458.44 Q162.833 1463.75 168.249 1463.75 Q173.701 1463.75 176.409 1458.44 Q179.152 1453.09 179.152 1442.43 Q179.152 1431.74 176.409 1426.43 Q173.701 1421.08 168.249 1421.08 M168.249 1415.52 Q176.965 1415.52 181.548 1422.43 Q186.166 1429.31 186.166 1442.43 Q186.166 1455.52 181.548 1462.43 Q176.965 1469.31 168.249 1469.31 Q159.534 1469.31 154.916 1462.43 Q150.333 1455.52 150.333 1442.43 Q150.333 1429.31 154.916 1422.43 Q159.534 1415.52 168.249 1415.52 Z" fill="#000000" fill-rule="nonzero" fill-opacity="1" /><path clip-path="url(#clip820)" d="M198.492 1459.48 L205.819 1459.48 L205.819 1468.3 L198.492 1468.3 L198.492 1459.48 Z" fill="#000000" fill-rule="nonzero" fill-opacity="1" /><path clip-path="url(#clip820)" d="M236.096 1421.08 Q230.68 1421.08 227.937 1426.43 Q225.228 1431.74 225.228 1442.43 Q225.228 1453.09 227.937 1458.44 Q230.68 1463.75 236.096 1463.75 Q241.548 1463.75 244.256 1458.44 Q246.999 1453.09 246.999 1442.43 Q246.999 1431.74 244.256 1426.43 Q241.548 1421.08 236.096 1421.08 M236.096 1415.52 Q244.811 1415.52 249.395 1422.43 Q254.013 1429.31 254.013 1442.43 Q254.013 1455.52 249.395 1462.43 Q244.811 1469.31 236.096 1469.31 Q227.381 1469.31 222.763 1462.43 Q218.18 1455.52 218.18 1442.43 Q218.18 1429.31 222.763 1422.43 Q227.381 1415.52 236.096 1415.52 Z" fill="#000000" fill-rule="nonzero" fill-opacity="1" /><path clip-path="url(#clip820)" d="M281.339 1421.08 Q275.922 1421.08 273.179 1426.43 Q270.471 1431.74 270.471 1442.43 Q270.471 1453.09 273.179 1458.44 Q275.922 1463.75 281.339 1463.75 Q286.79 1463.75 289.499 1458.44 Q292.242 1453.09 292.242 1442.43 Q292.242 1431.74 289.499 1426.43 Q286.79 1421.08 281.339 1421.08 M281.339 1415.52 Q290.054 1415.52 294.638 1422.43 Q299.256 1429.31 299.256 1442.43 Q299.256 1455.52 294.638 1462.43 Q290.054 1469.31 281.339 1469.31 Q272.624 1469.31 268.006 1462.43 Q263.422 1455.52 263.422 1442.43 Q263.422 1429.31 268.006 1422.43 Q272.624 1415.52 281.339 1415.52 Z" fill="#000000" fill-rule="nonzero" fill-opacity="1" /><path clip-path="url(#clip820)" d="M686.024 1421.08 Q680.607 1421.08 677.864 1426.43 Q675.156 1431.74 675.156 1442.43 Q675.156 1453.09 677.864 1458.44 Q680.607 1463.75 686.024 1463.75 Q691.475 1463.75 694.183 1458.44 Q696.926 1453.09 696.926 1442.43 Q696.926 1431.74 694.183 1426.43 Q691.475 1421.08 686.024 1421.08 M686.024 1415.52 Q694.739 1415.52 699.322 1422.43 Q703.94 1429.31 703.94 1442.43 Q703.94 1455.52 699.322 1462.43 Q694.739 1469.31 686.024 1469.31 Q677.308 1469.31 672.69 1462.43 Q668.107 1455.52 668.107 1442.43 Q668.107 1429.31 672.69 1422.43 Q677.308 1415.52 686.024 1415.52 Z" fill="#000000" fill-rule="nonzero" fill-opacity="1" /><path clip-path="url(#clip820)" d="M716.266 1459.48 L723.593 1459.48 L723.593 1468.3 L716.266 1468.3 L716.266 1459.48 Z" fill="#000000" fill-rule="nonzero" fill-opacity="1" /><path clip-path="url(#clip820)" d="M744.912 1462.4 L769.391 1462.4 L769.391 1468.3 L736.475 1468.3 L736.475 1462.4 Q740.468 1458.27 747.343 1451.32 Q754.252 1444.34 756.023 1442.33 Q759.391 1438.54 760.711 1435.94 Q762.065 1433.3 762.065 1430.77 Q762.065 1426.63 759.148 1424.03 Q756.266 1421.43 751.613 1421.43 Q748.315 1421.43 744.634 1422.57 Q740.989 1423.72 736.822 1426.04 L736.822 1418.96 Q741.058 1417.26 744.739 1416.39 Q748.419 1415.52 751.475 1415.52 Q759.53 1415.52 764.322 1419.55 Q769.113 1423.58 769.113 1430.31 Q769.113 1433.51 767.898 1436.39 Q766.718 1439.24 763.558 1443.13 Q762.69 1444.13 758.037 1448.96 Q753.384 1453.75 744.912 1462.4 Z" fill="#000000" fill-rule="nonzero" fill-opacity="1" /><path clip-path="url(#clip820)" d="M784.183 1416.46 L811.717 1416.46 L811.717 1422.36 L790.606 1422.36 L790.606 1435.07 Q792.134 1434.55 793.662 1434.31 Q795.19 1434.03 796.717 1434.03 Q805.398 1434.03 810.467 1438.79 Q815.537 1443.54 815.537 1451.67 Q815.537 1460.04 810.328 1464.69 Q805.12 1469.31 795.641 1469.31 Q792.377 1469.31 788.974 1468.75 Q785.606 1468.2 781.995 1467.08 L781.995 1460.04 Q785.12 1461.74 788.454 1462.57 Q791.787 1463.4 795.502 1463.4 Q801.509 1463.4 805.016 1460.24 Q808.523 1457.08 808.523 1451.67 Q808.523 1446.25 805.016 1443.09 Q801.509 1439.93 795.502 1439.93 Q792.69 1439.93 789.877 1440.56 Q787.099 1441.18 784.183 1442.5 L784.183 1416.46 Z" fill="#000000" fill-rule="nonzero" fill-opacity="1" /><path clip-path="url(#clip820)" d="M1202.3 1421.08 Q1196.89 1421.08 1194.14 1426.43 Q1191.44 1431.74 1191.44 1442.43 Q1191.44 1453.09 1194.14 1458.44 Q1196.89 1463.75 1202.3 1463.75 Q1207.76 1463.75 1210.46 1458.44 Q1213.21 1453.09 1213.21 1442.43 Q1213.21 1431.74 1210.46 1426.43 Q1207.76 1421.08 1202.3 1421.08 M1202.3 1415.52 Q1211.02 1415.52 1215.6 1422.43 Q1220.22 1429.31 1220.22 1442.43 Q1220.22 1455.52 1215.6 1462.43 Q1211.02 1469.31 1202.3 1469.31 Q1193.59 1469.31 1188.97 1462.43 Q1184.39 1455.52 1184.39 1442.43 Q1184.39 1429.31 1188.97 1422.43 Q1193.59 1415.52 1202.3 1415.52 Z" fill="#000000" fill-rule="nonzero" fill-opacity="1" /><path clip-path="url(#clip820)" d="M1232.55 1459.48 L1239.87 1459.48 L1239.87 1468.3 L1232.55 1468.3 L1232.55 1459.48 Z" fill="#000000" fill-rule="nonzero" fill-opacity="1" /><path clip-path="url(#clip820)" d="M1255.22 1416.46 L1282.76 1416.46 L1282.76 1422.36 L1261.64 1422.36 L1261.64 1435.07 Q1263.17 1434.55 1264.7 1434.31 Q1266.23 1434.03 1267.76 1434.03 Q1276.44 1434.03 1281.51 1438.79 Q1286.58 1443.54 1286.58 1451.67 Q1286.58 1460.04 1281.37 1464.69 Q1276.16 1469.31 1266.68 1469.31 Q1263.42 1469.31 1260.01 1468.75 Q1256.64 1468.2 1253.03 1467.08 L1253.03 1460.04 Q1256.16 1461.74 1259.49 1462.57 Q1262.83 1463.4 1266.54 1463.4 Q1272.55 1463.4 1276.05 1460.24 Q1279.56 1457.08 1279.56 1451.67 Q1279.56 1446.25 1276.05 1443.09 Q1272.55 1439.93 1266.54 1439.93 Q1263.73 1439.93 1260.92 1440.56 Q1258.14 1441.18 1255.22 1442.5 L1255.22 1416.46 Z" fill="#000000" fill-rule="nonzero" fill-opacity="1" /><path clip-path="url(#clip820)" d="M1315.39 1421.08 Q1309.98 1421.08 1307.23 1426.43 Q1304.53 1431.74 1304.53 1442.43 Q1304.53 1453.09 1307.23 1458.44 Q1309.98 1463.75 1315.39 1463.75 Q1320.85 1463.75 1323.55 1458.44 Q1326.3 1453.09 1326.3 1442.43 Q1326.3 1431.74 1323.55 1426.43 Q1320.85 1421.08 1315.39 1421.08 M1315.39 1415.52 Q1324.11 1415.52 1328.69 1422.43 Q1333.31 1429.31 1333.31 1442.43 Q1333.31 1455.52 1328.69 1462.43 Q1324.11 1469.31 1315.39 1469.31 Q1306.68 1469.31 1302.06 1462.43 Q1297.48 1455.52 1297.48 1442.43 Q1297.48 1429.31 1302.06 1422.43 Q1306.68 1415.52 1315.39 1415.52 Z" fill="#000000" fill-rule="nonzero" fill-opacity="1" /><path clip-path="url(#clip820)" d="M1720.08 1421.08 Q1714.66 1421.08 1711.92 1426.43 Q1709.21 1431.74 1709.21 1442.43 Q1709.21 1453.09 1711.92 1458.44 Q1714.66 1463.75 1720.08 1463.75 Q1725.53 1463.75 1728.24 1458.44 Q1730.98 1453.09 1730.98 1442.43 Q1730.98 1431.74 1728.24 1426.43 Q1725.53 1421.08 1720.08 1421.08 M1720.08 1415.52 Q1728.79 1415.52 1733.38 1422.43 Q1738 1429.31 1738 1442.43 Q1738 1455.52 1733.38 1462.43 Q1728.79 1469.31 1720.08 1469.31 Q1711.36 1469.31 1706.75 1462.43 Q1702.16 1455.52 1702.16 1442.43 Q1702.16 1429.31 1706.75 1422.43 Q1711.36 1415.52 1720.08 1415.52 Z" fill="#000000" fill-rule="nonzero" fill-opacity="1" /><path clip-path="url(#clip820)" d="M1750.32 1459.48 L1757.65 1459.48 L1757.65 1468.3 L1750.32 1468.3 L1750.32 1459.48 Z" fill="#000000" fill-rule="nonzero" fill-opacity="1" /><path clip-path="url(#clip820)" d="M1771.15 1416.46 L1804.49 1416.46 L1804.49 1419.45 L1785.67 1468.3 L1778.34 1468.3 L1796.05 1422.36 L1771.15 1422.36 L1771.15 1416.46 Z" fill="#000000" fill-rule="nonzero" fill-opacity="1" /><path clip-path="url(#clip820)" d="M1818.24 1416.46 L1845.77 1416.46 L1845.77 1422.36 L1824.66 1422.36 L1824.66 1435.07 Q1826.19 1434.55 1827.72 1434.31 Q1829.24 1434.03 1830.77 1434.03 Q1839.45 1434.03 1844.52 1438.79 Q1849.59 1443.54 1849.59 1451.67 Q1849.59 1460.04 1844.38 1464.69 Q1839.18 1469.31 1829.7 1469.31 Q1826.43 1469.31 1823.03 1468.75 Q1819.66 1468.2 1816.05 1467.08 L1816.05 1460.04 Q1819.18 1461.74 1822.51 1462.57 Q1825.84 1463.4 1829.56 1463.4 Q1835.56 1463.4 1839.07 1460.24 Q1842.58 1457.08 1842.58 1451.67 Q1842.58 1446.25 1839.07 1443.09 Q1835.56 1439.93 1829.56 1439.93 Q1826.74 1439.93 1823.93 1440.56 Q1821.15 1441.18 1818.24 1442.5 L1818.24 1416.46 Z" fill="#000000" fill-rule="nonzero" fill-opacity="1" /><path clip-path="url(#clip820)" d="M2221.01 1462.4 L2232.47 1462.4 L2232.47 1422.85 L2220.01 1425.35 L2220.01 1418.96 L2232.4 1416.46 L2239.42 1416.46 L2239.42 1462.4 L2250.87 1462.4 L2250.87 1468.3 L2221.01 1468.3 L2221.01 1462.4 Z" fill="#000000" fill-rule="nonzero" fill-opacity="1" /><path clip-path="url(#clip820)" d="M2265.04 1459.48 L2272.37 1459.48 L2272.37 1468.3 L2265.04 1468.3 L2265.04 1459.48 Z" fill="#000000" fill-rule="nonzero" fill-opacity="1" /><path clip-path="url(#clip820)" d="M2302.64 1421.08 Q2297.23 1421.08 2294.48 1426.43 Q2291.78 1431.74 2291.78 1442.43 Q2291.78 1453.09 2294.48 1458.44 Q2297.23 1463.75 2302.64 1463.75 Q2308.1 1463.75 2310.8 1458.44 Q2313.55 1453.09 2313.55 1442.43 Q2313.55 1431.74 2310.8 1426.43 Q2308.1 1421.08 2302.64 1421.08 M2302.64 1415.52 Q2311.36 1415.52 2315.94 1422.43 Q2320.56 1429.31 2320.56 1442.43 Q2320.56 1455.52 2315.94 1462.43 Q2311.36 1469.31 2302.64 1469.31 Q2293.93 1469.31 2289.31 1462.43 Q2284.73 1455.52 2284.73 1442.43 Q2284.73 1429.31 2289.31 1422.43 Q2293.93 1415.52 2302.64 1415.52 Z" fill="#000000" fill-rule="nonzero" fill-opacity="1" /><path clip-path="url(#clip820)" d="M2347.89 1421.08 Q2342.47 1421.08 2339.73 1426.43 Q2337.02 1431.74 2337.02 1442.43 Q2337.02 1453.09 2339.73 1458.44 Q2342.47 1463.75 2347.89 1463.75 Q2353.34 1463.75 2356.05 1458.44 Q2358.79 1453.09 2358.79 1442.43 Q2358.79 1431.74 2356.05 1426.43 Q2353.34 1421.08 2347.89 1421.08 M2347.89 1415.52 Q2356.6 1415.52 2361.19 1422.43 Q2365.8 1429.31 2365.8 1442.43 Q2365.8 1455.52 2361.19 1462.43 Q2356.6 1469.31 2347.89 1469.31 Q2339.17 1469.31 2334.55 1462.43 Q2329.97 1455.52 2329.97 1442.43 Q2329.97 1429.31 2334.55 1422.43 Q2339.17 1415.52 2347.89 1415.52 Z" fill="#000000" fill-rule="nonzero" fill-opacity="1" /><path clip-path="url(#clip820)" d="M857.243 1493.14 L857.243 1502.26 Q851.919 1499.72 847.197 1498.47 Q842.474 1497.22 838.076 1497.22 Q830.437 1497.22 826.271 1500.18 Q822.15 1503.14 822.15 1508.6 Q822.15 1513.19 824.882 1515.55 Q827.66 1517.86 835.345 1519.3 L840.993 1520.46 Q851.456 1522.45 856.409 1527.49 Q861.409 1532.49 861.409 1540.92 Q861.409 1550.97 854.65 1556.15 Q847.937 1561.34 834.928 1561.34 Q830.021 1561.34 824.465 1560.22 Q818.956 1559.11 813.03 1556.94 L813.03 1547.31 Q818.724 1550.5 824.187 1552.12 Q829.65 1553.74 834.928 1553.74 Q842.937 1553.74 847.289 1550.59 Q851.641 1547.45 851.641 1541.61 Q851.641 1536.52 848.493 1533.65 Q845.391 1530.78 838.261 1529.34 L832.567 1528.23 Q822.104 1526.15 817.428 1521.71 Q812.752 1517.26 812.752 1509.34 Q812.752 1500.18 819.187 1494.9 Q825.669 1489.62 837.011 1489.62 Q841.872 1489.62 846.919 1490.5 Q851.965 1491.38 857.243 1493.14 Z" fill="#000000" fill-rule="nonzero" fill-opacity="1" /><path clip-path="url(#clip820)" d="M918.724 1528.7 L918.724 1559.99 L910.205 1559.99 L910.205 1528.97 Q910.205 1521.61 907.335 1517.96 Q904.465 1514.3 898.724 1514.3 Q891.826 1514.3 887.844 1518.7 Q883.863 1523.09 883.863 1530.69 L883.863 1559.99 L875.298 1559.99 L875.298 1487.96 L883.863 1487.96 L883.863 1516.2 Q886.919 1511.52 891.039 1509.21 Q895.206 1506.89 900.622 1506.89 Q909.557 1506.89 914.141 1512.45 Q918.724 1517.96 918.724 1528.7 Z" fill="#000000" fill-rule="nonzero" fill-opacity="1" /><path clip-path="url(#clip820)" d="M965.761 1516.1 Q964.326 1515.27 962.613 1514.9 Q960.946 1514.48 958.909 1514.48 Q951.687 1514.48 947.798 1519.21 Q943.955 1523.88 943.955 1532.68 L943.955 1559.99 L935.391 1559.99 L935.391 1508.14 L943.955 1508.14 L943.955 1516.2 Q946.64 1511.47 950.946 1509.21 Q955.252 1506.89 961.409 1506.89 Q962.289 1506.89 963.353 1507.03 Q964.418 1507.12 965.714 1507.35 L965.761 1516.1 Z" fill="#000000" fill-rule="nonzero" fill-opacity="1" /><path clip-path="url(#clip820)" d="M974.696 1508.14 L983.214 1508.14 L983.214 1559.99 L974.696 1559.99 L974.696 1508.14 M974.696 1487.96 L983.214 1487.96 L983.214 1498.74 L974.696 1498.74 L974.696 1487.96 Z" fill="#000000" fill-rule="nonzero" fill-opacity="1" /><path clip-path="url(#clip820)" d="M1044.14 1528.7 L1044.14 1559.99 L1035.62 1559.99 L1035.62 1528.97 Q1035.62 1521.61 1032.75 1517.96 Q1029.88 1514.3 1024.14 1514.3 Q1017.24 1514.3 1013.26 1518.7 Q1009.28 1523.09 1009.28 1530.69 L1009.28 1559.99 L1000.71 1559.99 L1000.71 1508.14 L1009.28 1508.14 L1009.28 1516.2 Q1012.33 1511.52 1016.45 1509.21 Q1020.62 1506.89 1026.04 1506.89 Q1034.97 1506.89 1039.56 1512.45 Q1044.14 1517.96 1044.14 1528.7 Z" fill="#000000" fill-rule="nonzero" fill-opacity="1" /><path clip-path="url(#clip820)" d="M1060.81 1487.96 L1069.37 1487.96 L1069.37 1530.5 L1094.79 1508.14 L1105.67 1508.14 L1078.17 1532.4 L1106.82 1559.99 L1095.71 1559.99 L1069.37 1534.67 L1069.37 1559.99 L1060.81 1559.99 L1060.81 1487.96 Z" fill="#000000" fill-rule="nonzero" fill-opacity="1" /><path clip-path="url(#clip820)" d="M1137.94 1533.93 Q1127.61 1533.93 1123.63 1536.29 Q1119.65 1538.65 1119.65 1544.34 Q1119.65 1548.88 1122.61 1551.57 Q1125.62 1554.21 1130.76 1554.21 Q1137.84 1554.21 1142.1 1549.21 Q1146.41 1544.16 1146.41 1535.83 L1146.41 1533.93 L1137.94 1533.93 M1154.93 1530.41 L1154.93 1559.99 L1146.41 1559.99 L1146.41 1552.12 Q1143.49 1556.84 1139.14 1559.11 Q1134.79 1561.34 1128.49 1561.34 Q1120.53 1561.34 1115.81 1556.89 Q1111.13 1552.4 1111.13 1544.9 Q1111.13 1536.15 1116.96 1531.71 Q1122.84 1527.26 1134.46 1527.26 L1146.41 1527.26 L1146.41 1526.43 Q1146.41 1520.55 1142.52 1517.35 Q1138.68 1514.11 1131.69 1514.11 Q1127.24 1514.11 1123.03 1515.18 Q1118.82 1516.24 1114.93 1518.37 L1114.93 1510.5 Q1119.6 1508.7 1124 1507.82 Q1128.4 1506.89 1132.57 1506.89 Q1143.82 1506.89 1149.37 1512.72 Q1154.93 1518.56 1154.93 1530.41 Z" fill="#000000" fill-rule="nonzero" fill-opacity="1" /><path clip-path="url(#clip820)" d="M1206.59 1533.47 Q1206.59 1524.21 1202.75 1519.11 Q1198.95 1514.02 1192.06 1514.02 Q1185.2 1514.02 1181.36 1519.11 Q1177.57 1524.21 1177.57 1533.47 Q1177.57 1542.68 1181.36 1547.77 Q1185.2 1552.86 1192.06 1552.86 Q1198.95 1552.86 1202.75 1547.77 Q1206.59 1542.68 1206.59 1533.47 M1215.11 1553.56 Q1215.11 1566.8 1209.23 1573.23 Q1203.35 1579.71 1191.22 1579.71 Q1186.73 1579.71 1182.75 1579.02 Q1178.77 1578.37 1175.02 1576.98 L1175.02 1568.7 Q1178.77 1570.73 1182.43 1571.71 Q1186.08 1572.68 1189.88 1572.68 Q1198.26 1572.68 1202.43 1568.28 Q1206.59 1563.93 1206.59 1555.09 L1206.59 1550.87 Q1203.95 1555.46 1199.83 1557.72 Q1195.71 1559.99 1189.97 1559.99 Q1180.44 1559.99 1174.6 1552.72 Q1168.77 1545.46 1168.77 1533.47 Q1168.77 1521.43 1174.6 1514.16 Q1180.44 1506.89 1189.97 1506.89 Q1195.71 1506.89 1199.83 1509.16 Q1203.95 1511.43 1206.59 1516.01 L1206.59 1508.14 L1215.11 1508.14 L1215.11 1553.56 Z" fill="#000000" fill-rule="nonzero" fill-opacity="1" /><path clip-path="url(#clip820)" d="M1277.01 1531.94 L1277.01 1536.1 L1237.84 1536.1 Q1238.4 1544.9 1243.12 1549.53 Q1247.89 1554.11 1256.36 1554.11 Q1261.27 1554.11 1265.85 1552.91 Q1270.48 1551.71 1275.02 1549.3 L1275.02 1557.35 Q1270.44 1559.3 1265.62 1560.32 Q1260.81 1561.34 1255.85 1561.34 Q1243.44 1561.34 1236.18 1554.11 Q1228.95 1546.89 1228.95 1534.58 Q1228.95 1521.84 1235.81 1514.39 Q1242.7 1506.89 1254.37 1506.89 Q1264.83 1506.89 1270.9 1513.65 Q1277.01 1520.36 1277.01 1531.94 M1268.49 1529.44 Q1268.4 1522.45 1264.56 1518.28 Q1260.76 1514.11 1254.46 1514.11 Q1247.33 1514.11 1243.03 1518.14 Q1238.77 1522.17 1238.12 1529.48 L1268.49 1529.44 Z" fill="#000000" fill-rule="nonzero" fill-opacity="1" /><path clip-path="url(#clip820)" d="M1347.38 1487.96 L1347.38 1495.04 L1339.23 1495.04 Q1334.65 1495.04 1332.84 1496.89 Q1331.08 1498.74 1331.08 1503.56 L1331.08 1508.14 L1345.11 1508.14 L1345.11 1514.76 L1331.08 1514.76 L1331.08 1559.99 L1322.52 1559.99 L1322.52 1514.76 L1314.37 1514.76 L1314.37 1508.14 L1322.52 1508.14 L1322.52 1504.53 Q1322.52 1495.87 1326.55 1491.94 Q1330.57 1487.96 1339.32 1487.96 L1347.38 1487.96 Z" fill="#000000" fill-rule="nonzero" fill-opacity="1" /><path clip-path="url(#clip820)" d="M1378.07 1533.93 Q1367.75 1533.93 1363.77 1536.29 Q1359.79 1538.65 1359.79 1544.34 Q1359.79 1548.88 1362.75 1551.57 Q1365.76 1554.21 1370.9 1554.21 Q1377.98 1554.21 1382.24 1549.21 Q1386.55 1544.16 1386.55 1535.83 L1386.55 1533.93 L1378.07 1533.93 M1395.06 1530.41 L1395.06 1559.99 L1386.55 1559.99 L1386.55 1552.12 Q1383.63 1556.84 1379.28 1559.11 Q1374.93 1561.34 1368.63 1561.34 Q1360.67 1561.34 1355.94 1556.89 Q1351.27 1552.4 1351.27 1544.9 Q1351.27 1536.15 1357.1 1531.71 Q1362.98 1527.26 1374.6 1527.26 L1386.55 1527.26 L1386.55 1526.43 Q1386.55 1520.55 1382.66 1517.35 Q1378.81 1514.11 1371.82 1514.11 Q1367.38 1514.11 1363.17 1515.18 Q1358.95 1516.24 1355.06 1518.37 L1355.06 1510.5 Q1359.74 1508.7 1364.14 1507.82 Q1368.54 1506.89 1372.7 1506.89 Q1383.95 1506.89 1389.51 1512.72 Q1395.06 1518.56 1395.06 1530.41 Z" fill="#000000" fill-rule="nonzero" fill-opacity="1" /><path clip-path="url(#clip820)" d="M1449.92 1510.13 L1449.92 1518.09 Q1446.31 1516.1 1442.66 1515.13 Q1439.05 1514.11 1435.34 1514.11 Q1427.05 1514.11 1422.47 1519.39 Q1417.89 1524.62 1417.89 1534.11 Q1417.89 1543.6 1422.47 1548.88 Q1427.05 1554.11 1435.34 1554.11 Q1439.05 1554.11 1442.66 1553.14 Q1446.31 1552.12 1449.92 1550.13 L1449.92 1558 Q1446.36 1559.67 1442.52 1560.5 Q1438.72 1561.34 1434.42 1561.34 Q1422.7 1561.34 1415.8 1553.97 Q1408.91 1546.61 1408.91 1534.11 Q1408.91 1521.43 1415.85 1514.16 Q1422.84 1506.89 1434.97 1506.89 Q1438.91 1506.89 1442.66 1507.72 Q1446.41 1508.51 1449.92 1510.13 Z" fill="#000000" fill-rule="nonzero" fill-opacity="1" /><path clip-path="url(#clip820)" d="M1473.17 1493.42 L1473.17 1508.14 L1490.71 1508.14 L1490.71 1514.76 L1473.17 1514.76 L1473.17 1542.91 Q1473.17 1549.25 1474.88 1551.06 Q1476.64 1552.86 1481.96 1552.86 L1490.71 1552.86 L1490.71 1559.99 L1481.96 1559.99 Q1472.1 1559.99 1468.35 1556.34 Q1464.6 1552.63 1464.6 1542.91 L1464.6 1514.76 L1458.35 1514.76 L1458.35 1508.14 L1464.6 1508.14 L1464.6 1493.42 L1473.17 1493.42 Z" fill="#000000" fill-rule="nonzero" fill-opacity="1" /><path clip-path="url(#clip820)" d="M1522.01 1514.11 Q1515.16 1514.11 1511.17 1519.48 Q1507.19 1524.81 1507.19 1534.11 Q1507.19 1543.42 1511.13 1548.79 Q1515.11 1554.11 1522.01 1554.11 Q1528.81 1554.11 1532.79 1548.74 Q1536.78 1543.37 1536.78 1534.11 Q1536.78 1524.9 1532.79 1519.53 Q1528.81 1514.11 1522.01 1514.11 M1522.01 1506.89 Q1533.12 1506.89 1539.46 1514.11 Q1545.8 1521.34 1545.8 1534.11 Q1545.8 1546.84 1539.46 1554.11 Q1533.12 1561.34 1522.01 1561.34 Q1510.85 1561.34 1504.51 1554.11 Q1498.21 1546.84 1498.21 1534.11 Q1498.21 1521.34 1504.51 1514.11 Q1510.85 1506.89 1522.01 1506.89 Z" fill="#000000" fill-rule="nonzero" fill-opacity="1" /><path clip-path="url(#clip820)" d="M1589.97 1516.1 Q1588.54 1515.27 1586.82 1514.9 Q1585.16 1514.48 1583.12 1514.48 Q1575.9 1514.48 1572.01 1519.21 Q1568.16 1523.88 1568.16 1532.68 L1568.16 1559.99 L1559.6 1559.99 L1559.6 1508.14 L1568.16 1508.14 L1568.16 1516.2 Q1570.85 1511.47 1575.16 1509.21 Q1579.46 1506.89 1585.62 1506.89 Q1586.5 1506.89 1587.56 1507.03 Q1588.63 1507.12 1589.92 1507.35 L1589.97 1516.1 Z" fill="#000000" fill-rule="nonzero" fill-opacity="1" /><path clip-path="url(#clip820)" d="M1601.08 1548.23 L1610.85 1548.23 L1610.85 1556.2 L1603.26 1571.01 L1597.29 1571.01 L1601.08 1556.2 L1601.08 1548.23 Z" fill="#000000" fill-rule="nonzero" fill-opacity="1" /><path clip-path="url(#clip820)" d="M1697.33 1546.27 Q1696.16 1552.03 1693.77 1556.06 Q1690.82 1561.07 1686.32 1561.07 Q1682.52 1561.07 1679.99 1558.45 Q1677.46 1555.78 1677.46 1551.56 Q1677.46 1550.3 1677.98 1548.19 Q1678.17 1547.25 1678.17 1546.08 Q1678.17 1538.49 1661.72 1537.93 Q1660.37 1543.32 1659.43 1546.97 Q1658.54 1550.58 1658.26 1551.65 Q1657.98 1552.73 1657.74 1553.62 Q1657.56 1554.51 1657.23 1555.68 Q1656.76 1557.6 1656.43 1558.54 Q1656.1 1559.48 1655.21 1560.27 Q1654.37 1561.07 1653.01 1561.07 Q1651.84 1561.07 1651.04 1560.37 Q1650.25 1559.66 1650.25 1558.45 Q1650.25 1557.6 1650.62 1556.25 L1659.43 1521.06 Q1659.66 1520.08 1660.13 1519.38 Q1660.6 1518.68 1661.02 1518.35 Q1661.49 1518.02 1662.05 1517.83 Q1662.61 1517.65 1662.85 1517.65 Q1663.08 1517.6 1663.27 1517.6 Q1664.54 1517.6 1665.29 1518.3 Q1666.08 1518.96 1666.08 1520.17 Q1666.08 1520.36 1665.75 1521.67 Q1665.47 1522.94 1665 1524.86 Q1664.54 1526.78 1664.35 1527.67 L1662.43 1535.16 Q1665.1 1534.27 1667.49 1532.68 Q1669.92 1531.09 1674.7 1526.97 Q1676.9 1525.14 1678.21 1524.11 Q1679.57 1523.03 1681.82 1521.58 Q1684.07 1520.08 1686.22 1519.38 Q1688.38 1518.63 1690.44 1518.63 Q1692.03 1518.63 1692.97 1519.38 Q1693.91 1520.08 1694.09 1520.74 Q1694.28 1521.35 1694.28 1522 Q1694.28 1523.92 1692.78 1525.56 Q1691.28 1527.2 1689.08 1527.2 Q1687.11 1527.2 1686.27 1526.12 Q1685.43 1525.05 1685.43 1523.83 Q1685.43 1522.89 1685.9 1521.72 Q1683.27 1522.84 1681.02 1524.48 Q1678.78 1526.08 1674.89 1529.4 Q1669.36 1534.13 1666.08 1535.91 Q1667.96 1535.96 1669.36 1536.1 Q1670.81 1536.2 1673.25 1536.52 Q1675.68 1536.85 1677.46 1537.55 Q1679.24 1538.21 1680.98 1539.24 Q1682.76 1540.27 1683.7 1541.96 Q1684.68 1543.64 1684.68 1545.8 Q1684.68 1546.83 1684.21 1548.94 Q1683.41 1552.4 1683.41 1554.32 Q1683.41 1556.76 1684.16 1557.84 Q1684.96 1558.92 1686.51 1558.92 Q1689.46 1558.92 1691.33 1555.87 Q1693.25 1552.78 1694.84 1547.06 Q1695.08 1545.99 1695.31 1545.66 Q1695.55 1545.33 1696.2 1545.33 Q1697.33 1545.33 1697.33 1546.27 Z" fill="#000000" fill-rule="nonzero" fill-opacity="1" /><polyline clip-path="url(#clip820)" style="stroke:#000000; stroke-linecap:round; stroke-linejoin:round; stroke-width:4; stroke-opacity:1; fill:none" points="164.943,1384.3 164.943,155.373 "/>
<polyline clip-path="url(#clip820)" style="stroke:#000000; stroke-linecap:round; stroke-linejoin:round; stroke-width:4; stroke-opacity:1; fill:none" points="164.943,1181.97 183.841,1181.97 "/>
<polyline clip-path="url(#clip820)" style="stroke:#000000; stroke-linecap:round; stroke-linejoin:round; stroke-width:4; stroke-opacity:1; fill:none" points="164.943,936.197 183.841,936.197 "/>
<polyline clip-path="url(#clip820)" style="stroke:#000000; stroke-linecap:round; stroke-linejoin:round; stroke-width:4; stroke-opacity:1; fill:none" points="164.943,690.419 183.841,690.419 "/>
<polyline clip-path="url(#clip820)" style="stroke:#000000; stroke-linecap:round; stroke-linejoin:round; stroke-width:4; stroke-opacity:1; fill:none" points="164.943,444.642 183.841,444.642 "/>
<polyline clip-path="url(#clip820)" style="stroke:#000000; stroke-linecap:round; stroke-linejoin:round; stroke-width:4; stroke-opacity:1; fill:none" points="164.943,198.864 183.841,198.864 "/>
<path clip-path="url(#clip820)" d="M104.464 1201.99 L128.943 1201.99 L128.943 1207.89 L96.0266 1207.89 L96.0266 1201.99 Q100.02 1197.86 106.895 1190.92 Q113.804 1183.94 115.575 1181.92 Q118.943 1178.14 120.263 1175.53 Q121.617 1172.89 121.617 1170.36 Q121.617 1166.23 118.7 1163.62 Q115.818 1161.02 111.165 1161.02 Q107.867 1161.02 104.186 1162.17 Q100.54 1163.31 96.3738 1165.64 L96.3738 1158.55 Q100.61 1156.85 104.29 1155.99 Q107.971 1155.12 111.027 1155.12 Q119.082 1155.12 123.874 1159.14 Q128.665 1163.17 128.665 1169.91 Q128.665 1173.1 127.45 1175.99 Q126.27 1178.83 123.11 1182.72 Q122.242 1183.73 117.589 1188.55 Q112.936 1193.35 104.464 1201.99 Z" fill="#000000" fill-rule="nonzero" fill-opacity="1" /><path clip-path="url(#clip820)" d="M114.568 916.388 L96.8599 944.062 L114.568 944.062 L114.568 916.388 M112.728 910.277 L121.547 910.277 L121.547 944.062 L128.943 944.062 L128.943 949.895 L121.547 949.895 L121.547 962.117 L114.568 962.117 L114.568 949.895 L91.1655 949.895 L91.1655 943.124 L112.728 910.277 Z" fill="#000000" fill-rule="nonzero" fill-opacity="1" /><path clip-path="url(#clip820)" d="M111.652 687.624 Q106.929 687.624 104.152 690.853 Q101.409 694.083 101.409 699.708 Q101.409 705.298 104.152 708.562 Q106.929 711.791 111.652 711.791 Q116.374 711.791 119.117 708.562 Q121.895 705.298 121.895 699.708 Q121.895 694.083 119.117 690.853 Q116.374 687.624 111.652 687.624 M125.575 665.645 L125.575 672.034 Q122.936 670.784 120.228 670.124 Q117.554 669.465 114.915 669.465 Q107.971 669.465 104.29 674.152 Q100.645 678.84 100.124 688.319 Q102.172 685.298 105.263 683.701 Q108.353 682.069 112.068 682.069 Q119.881 682.069 124.395 686.826 Q128.943 691.548 128.943 699.708 Q128.943 707.694 124.221 712.52 Q119.499 717.346 111.652 717.346 Q102.659 717.346 97.9016 710.471 Q93.1447 703.562 93.1447 690.471 Q93.1447 678.18 98.978 670.888 Q104.811 663.562 114.638 663.562 Q117.276 663.562 119.95 664.083 Q122.658 664.604 125.575 665.645 Z" fill="#000000" fill-rule="nonzero" fill-opacity="1" /><path clip-path="url(#clip820)" d="M111.165 445.944 Q106.165 445.944 103.284 448.617 Q100.436 451.291 100.436 455.978 Q100.436 460.666 103.284 463.34 Q106.165 466.013 111.165 466.013 Q116.165 466.013 119.047 463.34 Q121.929 460.631 121.929 455.978 Q121.929 451.291 119.047 448.617 Q116.2 445.944 111.165 445.944 M104.152 442.958 Q99.6377 441.847 97.103 438.756 Q94.603 435.666 94.603 431.222 Q94.603 425.006 99.0127 421.395 Q103.457 417.784 111.165 417.784 Q118.908 417.784 123.318 421.395 Q127.728 425.006 127.728 431.222 Q127.728 435.666 125.193 438.756 Q122.693 441.847 118.214 442.958 Q123.283 444.138 126.096 447.576 Q128.943 451.013 128.943 455.978 Q128.943 463.513 124.325 467.541 Q119.742 471.569 111.165 471.569 Q102.589 471.569 97.971 467.541 Q93.3877 463.513 93.3877 455.978 Q93.3877 451.013 96.2349 447.576 Q99.0821 444.138 104.152 442.958 M101.582 431.881 Q101.582 435.909 104.082 438.166 Q106.617 440.423 111.165 440.423 Q115.679 440.423 118.214 438.166 Q120.783 435.909 120.783 431.881 Q120.783 427.854 118.214 425.597 Q115.679 423.34 111.165 423.34 Q106.617 423.34 104.082 425.597 Q101.582 427.854 101.582 431.881 Z" fill="#000000" fill-rule="nonzero" fill-opacity="1" /><path clip-path="url(#clip820)" d="M51.9991 218.881 L63.4573 218.881 L63.4573 179.333 L50.9921 181.833 L50.9921 175.444 L63.3879 172.944 L70.4017 172.944 L70.4017 218.881 L81.86 218.881 L81.86 224.784 L51.9991 224.784 L51.9991 218.881 Z" fill="#000000" fill-rule="nonzero" fill-opacity="1" /><path clip-path="url(#clip820)" d="M111.027 177.562 Q105.61 177.562 102.867 182.909 Q100.159 188.222 100.159 198.916 Q100.159 209.576 102.867 214.923 Q105.61 220.235 111.027 220.235 Q116.478 220.235 119.186 214.923 Q121.929 209.576 121.929 198.916 Q121.929 188.222 119.186 182.909 Q116.478 177.562 111.027 177.562 M111.027 172.007 Q119.742 172.007 124.325 178.916 Q128.943 185.791 128.943 198.916 Q128.943 212.006 124.325 218.916 Q119.742 225.791 111.027 225.791 Q102.311 225.791 97.6933 218.916 Q93.11 212.006 93.11 198.916 Q93.11 185.791 97.6933 178.916 Q102.311 172.007 111.027 172.007 Z" fill="#000000" fill-rule="nonzero" fill-opacity="1" /><path clip-path="url(#clip820)" d="M1016.94 125.815 Q1016.94 126.816 1015.78 126.922 L1013.41 126.922 Q1010.99 126.922 1009.93 126.553 Q1008.88 126.184 1007.67 124.497 Q1006.93 123.443 1005.08 118.542 Q1003.29 113.588 1000.66 106.105 Q998.074 98.6214 996.335 94.1946 L970.354 124.866 Q968.562 127.132 966.77 127.132 Q965.453 127.132 964.504 126.236 Q963.556 125.341 963.556 123.97 Q963.556 122.969 963.925 122.389 Q964.346 121.81 965.453 120.65 L995.281 91.0852 L984.794 61.731 Q982.791 56.3029 981.632 54.9327 Q980.525 53.5625 977.785 53.0882 Q976.783 52.8247 976.783 51.9815 Q976.783 50.822 978.733 50.822 Q989.168 50.822 991.909 58.4636 L1013.94 119.86 Q1015.15 123.391 1016.41 124.866 Q1016.94 125.551 1016.94 125.815 Z" fill="#000000" fill-rule="nonzero" fill-opacity="1" /><path clip-path="url(#clip820)" d="M1127.07 87.5016 Q1126.75 97.2512 1123.85 102.679 Q1120.95 108.055 1114.26 110.268 Q1111.42 111.006 1109.41 111.006 Q1100.88 111.006 1089.55 100.782 Q1087.28 98.7795 1085.8 97.5674 Q1084.33 96.3553 1082.11 94.9324 Q1079.95 93.4567 1077.9 92.7716 Q1075.84 92.0338 1073.79 92.0338 Q1071.73 92.0338 1070.42 92.5608 Q1064.51 94.5108 1061.51 98.5687 Q1058.56 102.574 1058.35 109.952 Q1058.35 110.479 1057.93 110.901 Q1057.5 111.27 1057.03 111.27 Q1056.5 111.27 1056.13 110.901 Q1055.76 110.532 1055.76 109.952 Q1056.08 100.202 1058.98 94.827 Q1061.93 89.3988 1068.68 87.1854 Q1071.36 86.4476 1073.47 86.4476 Q1081.96 86.4476 1093.29 96.6715 Q1095.55 98.6741 1097.03 99.8862 Q1098.5 101.098 1100.67 102.574 Q1102.88 103.997 1104.93 104.735 Q1106.99 105.42 1109.04 105.42 Q1110.99 105.42 1112.52 104.893 Q1118.32 102.943 1121.27 98.9376 Q1124.28 94.8797 1124.49 87.5016 Q1124.49 86.9746 1124.91 86.6057 Q1125.33 86.1841 1125.8 86.1841 Q1126.33 86.1841 1126.7 86.553 Q1127.07 86.9219 1127.07 87.5016 Z" fill="#000000" fill-rule="nonzero" fill-opacity="1" /><path clip-path="url(#clip820)" d="M1244.95 50.7166 L1238.16 78.2263 Q1237.68 79.9654 1237.37 80.1762 Q1237.1 80.387 1236.26 80.387 Q1234.63 80.387 1234.63 79.2803 Q1234.63 79.1749 1234.78 77.8047 Q1234.94 76.3818 1234.94 73.7995 Q1234.94 64.2607 1230.3 58.6217 Q1225.72 52.9828 1217.55 52.9828 Q1210.49 52.9828 1203.37 56.5664 Q1196.31 60.15 1191.25 65.9998 Q1187.46 70.4266 1184.67 76.0129 Q1181.92 81.5991 1180.61 86.7111 Q1179.34 91.823 1178.76 95.6702 Q1178.18 99.5173 1178.18 102.31 Q1178.18 106.368 1179.03 109.794 Q1179.92 113.219 1181.5 115.644 Q1183.08 118.015 1185.09 119.86 Q1187.14 121.652 1189.51 122.706 Q1191.94 123.76 1194.36 124.287 Q1196.79 124.761 1199.32 124.761 Q1209.49 124.761 1219.18 116.856 Q1226.88 110.374 1230.09 99.7808 Q1230.36 98.7268 1231.46 98.7268 Q1232.78 98.7268 1232.78 99.7808 Q1232.78 99.9916 1232.52 101.046 Q1232.25 102.047 1231.46 104.102 Q1230.67 106.105 1229.46 108.371 Q1228.25 110.637 1225.98 113.483 Q1223.72 116.329 1220.92 118.806 Q1216.18 122.916 1210.17 125.499 Q1204.16 128.081 1197.58 128.081 Q1189.36 128.081 1182.72 124.445 Q1176.08 120.808 1172.18 114.01 Q1168.33 107.212 1168.33 98.516 Q1168.33 89.3461 1172.54 80.3343 Q1176.76 71.3225 1183.45 64.6296 Q1190.15 57.9366 1199 53.7733 Q1207.85 49.6099 1216.71 49.6099 Q1220.08 49.6099 1223.08 50.5058 Q1226.09 51.4017 1227.88 52.5085 Q1229.72 53.6152 1231.36 55.2489 Q1232.99 56.8299 1233.52 57.5677 Q1234.1 58.3055 1234.63 59.2014 L1242.16 50.9274 Q1243.48 49.6099 1243.8 49.6099 Q1244.43 49.6099 1244.69 49.9788 Q1244.95 50.3477 1244.95 50.7166 Z" fill="#000000" fill-rule="nonzero" fill-opacity="1" /><path clip-path="url(#clip820)" d="M1257.46 39.3681 Q1255.72 39.3681 1255.72 38.4458 Q1255.72 37.5236 1257.53 37.5236 Q1257.75 37.5236 1258.12 37.5604 Q1258.53 37.5973 1258.6 37.5973 L1279.89 37.5973 L1279.89 16.2378 Q1279.89 16.164 1279.85 15.832 Q1279.81 15.4631 1279.81 15.2418 Q1279.81 13.4342 1280.7 13.4342 Q1281.62 13.4342 1281.62 15.2418 L1281.62 37.5973 L1302.94 37.5973 Q1303.02 37.5973 1303.39 37.5604 Q1303.75 37.5236 1303.98 37.5236 Q1305.71 37.5236 1305.71 38.4458 Q1305.75 39.3681 1303.9 39.3681 Q1303.68 39.3681 1303.35 39.3312 Q1303.02 39.2943 1302.94 39.2943 L1281.62 39.2943 L1281.62 61.7236 Q1281.62 63.4575 1280.7 63.4575 Q1279.81 63.4575 1279.81 61.6498 Q1279.81 61.4285 1279.85 61.0596 Q1279.89 60.7276 1279.89 60.6538 L1279.89 39.2943 L1258.6 39.2943 Q1258.53 39.2943 1258.08 39.3312 Q1257.68 39.3681 1257.46 39.3681 Z" fill="#000000" fill-rule="nonzero" fill-opacity="1" /><path clip-path="url(#clip820)" d="M1325.44 98.7268 Q1325.44 80.4924 1332.24 65.789 Q1335.14 59.623 1339.2 54.4584 Q1343.26 49.2937 1345.94 47.0276 Q1348.63 44.7615 1349.37 44.7615 Q1350.42 44.7615 1350.48 45.8155 Q1350.48 46.3425 1349.05 47.66 Q1331.66 65.3674 1331.71 98.7268 Q1331.71 132.192 1348.63 149.214 Q1350.48 151.058 1350.48 151.638 Q1350.48 152.692 1349.37 152.692 Q1348.63 152.692 1346.05 150.531 Q1343.47 148.371 1339.46 143.417 Q1335.46 138.463 1332.56 132.402 Q1325.44 117.699 1325.44 98.7268 Z" fill="#000000" fill-rule="nonzero" fill-opacity="1" /><path clip-path="url(#clip820)" d="M1360.84 91.1906 Q1360.84 75.3278 1364.84 66.6849 Q1370.43 53.826 1383.6 53.826 Q1386.4 53.826 1389.29 54.6165 Q1392.25 55.3543 1395.93 58.2528 Q1399.68 61.1513 1401.94 65.8944 Q1406.26 75.0643 1406.26 91.1906 Q1406.26 106.948 1402.26 115.538 Q1396.41 128.081 1383.5 128.081 Q1378.65 128.081 1373.7 125.604 Q1368.79 123.127 1365.68 117.172 Q1360.84 108.266 1360.84 91.1906 M1369.8 89.8731 Q1369.8 106.158 1370.95 112.64 Q1372.27 119.649 1375.86 122.706 Q1379.49 125.709 1383.5 125.709 Q1387.82 125.709 1391.4 122.495 Q1395.04 119.227 1396.15 112.218 Q1397.36 105.314 1397.31 89.8731 Q1397.31 74.8535 1396.25 68.8456 Q1394.83 61.8364 1391.03 59.0433 Q1387.29 56.1975 1383.5 56.1975 Q1382.07 56.1975 1380.55 56.6191 Q1379.07 57.0407 1376.91 58.2528 Q1374.75 59.4649 1373.06 62.4689 Q1371.43 65.4728 1370.64 70.005 Q1369.8 75.8548 1369.8 89.8731 Z" fill="#000000" fill-rule="nonzero" fill-opacity="1" /><path clip-path="url(#clip820)" d="M1415.81 123.97 Q1414.28 122.231 1414.28 119.965 Q1414.28 117.699 1415.76 116.013 Q1417.29 114.273 1420.03 114.273 Q1423.24 114.273 1425.09 117.383 Q1426.93 120.439 1426.93 125.604 Q1426.93 131.19 1424.66 136.355 Q1422.4 141.572 1420.18 144.049 Q1417.97 146.526 1417.07 146.526 Q1416.02 146.526 1416.02 145.367 Q1416.02 144.945 1416.76 144.155 Q1424.51 135.828 1424.56 125.604 Q1424.56 123.97 1424.35 123.97 L1424.08 124.181 Q1422.24 125.709 1420.03 125.709 Q1417.34 125.709 1415.81 123.97 Z" fill="#000000" fill-rule="nonzero" fill-opacity="1" /><path clip-path="url(#clip820)" d="M1460.99 64.1026 L1460.99 60.7297 Q1473.95 60.7297 1480.64 53.826 Q1482.49 53.826 1482.8 54.2476 Q1483.12 54.6692 1483.12 56.6191 L1483.12 117.172 Q1483.12 120.387 1484.7 121.388 Q1486.28 122.389 1493.19 122.389 L1496.61 122.389 L1496.61 125.709 Q1492.82 125.393 1479.11 125.393 Q1465.41 125.393 1461.67 125.709 L1461.67 122.389 L1465.1 122.389 Q1471.89 122.389 1473.53 121.441 Q1475.16 120.439 1475.16 117.172 L1475.16 61.2567 Q1469.52 64.1026 1460.99 64.1026 Z" fill="#000000" fill-rule="nonzero" fill-opacity="1" /><path clip-path="url(#clip820)" d="M1512.7 151.638 Q1512.7 151.111 1514.07 149.794 Q1531.46 132.086 1531.46 98.7268 Q1531.46 65.262 1514.76 48.3451 Q1512.7 46.3952 1512.7 45.8155 Q1512.7 44.7615 1513.76 44.7615 Q1514.49 44.7615 1517.08 46.9222 Q1519.71 49.0829 1523.66 54.0368 Q1527.67 58.9906 1530.62 65.0512 Q1537.74 79.7546 1537.74 98.7268 Q1537.74 116.961 1530.94 131.665 Q1528.04 137.831 1523.98 142.995 Q1519.92 148.16 1517.23 150.426 Q1514.55 152.692 1513.76 152.692 Q1512.7 152.692 1512.7 151.638 Z" fill="#000000" fill-rule="nonzero" fill-opacity="1" /><polyline clip-path="url(#clip821)" style="stroke:#780000; stroke-linecap:round; stroke-linejoin:round; stroke-width:12; stroke-opacity:1; fill:none" points="226.862,190.154 228.93,552.2 230.999,712.508 233.067,808.022 235.135,873.17 237.203,921.236 239.271,958.573 241.339,988.654 243.407,1013.56 245.475,1034.61 247.543,1052.72 249.612,1068.51 251.68,1082.42 253.748,1094.82 255.816,1105.94 257.884,1116 259.952,1125.16 262.02,1133.53 264.088,1141.23 266.156,1148.35 268.225,1154.94 270.293,1161.08 272.361,1166.81 274.429,1172.17 276.497,1177.2 278.565,1181.94 280.633,1186.42 282.701,1190.64 284.769,1194.65 286.838,1198.45 288.906,1202.06 290.974,1205.5 293.042,1208.78 295.11,1211.91 297.178,1214.91 299.246,1217.77 301.314,1220.52 303.382,1223.16 305.451,1225.7 307.519,1228.14 309.587,1230.48 311.655,1232.74 313.723,1234.92 315.791,1237.03 317.859,1239.06 319.927,1241.02 321.995,1242.92 324.064,1244.76 326.132,1246.55 328.2,1248.27 330.268,1249.95 332.336,1251.57 334.404,1253.15 336.472,1254.68 338.54,1256.17 340.608,1257.62 342.677,1259.03 344.745,1260.4 346.813,1261.74 348.881,1263.04 350.949,1264.31 353.017,1265.55 355.085,1266.75 357.153,1267.93 359.221,1269.08 361.29,1270.2 363.358,1271.3 365.426,1272.37 367.494,1273.42 369.562,1274.44 371.63,1275.44 373.698,1276.42 375.766,1277.38 377.834,1278.32 379.903,1279.24 381.971,1280.14 384.039,1281.02 386.107,1281.89 388.175,1282.74 390.243,1283.57 392.311,1284.38 394.379,1285.18 396.447,1285.96 398.516,1286.73 400.584,1287.49 402.652,1288.23 404.72,1288.96 406.788,1289.67 408.856,1290.38 410.924,1291.07 412.992,1291.75 415.06,1292.41 417.128,1293.07 419.197,1293.71 421.265,1294.35 423.333,1294.97 425.401,1295.58 427.469,1296.19 429.537,1296.78 431.605,1297.36 433.673,1297.94 435.741,1298.5 437.81,1299.06 439.878,1299.61 441.946,1300.15 444.014,1300.68 446.082,1301.21 448.15,1301.72 450.218,1302.23 452.286,1302.73 454.354,1303.23 456.423,1303.72 458.491,1304.2 460.559,1304.67 462.627,1305.14 464.695,1305.6 466.763,1306.05 468.831,1306.5 470.899,1306.94 472.967,1307.38 475.036,1307.81 477.104,1308.23 479.172,1308.65 481.24,1309.07 483.308,1309.47 485.376,1309.88 487.444,1310.28 489.512,1310.67 491.58,1311.06 493.649,1311.44 495.717,1311.82 497.785,1312.19 499.853,1312.56 501.921,1312.92 503.989,1313.28 506.057,1313.64 508.125,1313.99 510.193,1314.34 512.262,1314.68 514.33,1315.02 516.398,1315.35 518.466,1315.69 520.534,1316.01 522.602,1316.34 524.67,1316.66 526.738,1316.97 528.806,1317.29 530.875,1317.6 532.943,1317.9 535.011,1318.2 537.079,1318.5 539.147,1318.8 541.215,1319.09 543.283,1319.38 545.351,1319.67 547.419,1319.95 549.488,1320.23 551.556,1320.51 553.624,1320.78 555.692,1321.05 557.76,1321.32 559.828,1321.59 561.896,1321.85 563.964,1322.11 566.032,1322.37 568.101,1322.62 570.169,1322.87 572.237,1323.12 574.305,1323.37 576.373,1323.62 578.441,1323.86 580.509,1324.1 582.577,1324.34 584.645,1324.57 586.714,1324.8 588.782,1325.04 590.85,1325.26 592.918,1325.49 594.986,1325.71 597.054,1325.94 599.122,1326.16 601.19,1326.37 603.258,1326.59 605.327,1326.8 607.395,1327.01 609.463,1327.22 611.531,1327.43 613.599,1327.64 615.667,1327.84 617.735,1328.04 619.803,1328.24 621.871,1328.44 623.94,1328.64 626.008,1328.83 628.076,1329.02 630.144,1329.21 632.212,1329.4 634.28,1329.59 636.348,1329.78 638.416,1329.96 640.484,1330.14 642.553,1330.32 644.621,1330.5 646.689,1330.68 648.757,1330.86 650.825,1331.03 652.893,1331.2 654.961,1331.38 657.029,1331.55 659.097,1331.72 661.166,1331.88 663.234,1332.05 665.302,1332.21 667.37,1332.38 669.438,1332.54 671.506,1332.7 673.574,1332.86 675.642,1333.01 677.71,1333.17 679.779,1333.32 681.847,1333.48 683.915,1333.63 685.983,1333.78 688.051,1333.93 690.119,1334.08 692.187,1334.23 694.255,1334.37 696.323,1334.52 698.392,1334.66 700.46,1334.8 702.528,1334.94 704.596,1335.08 706.664,1335.22 708.732,1335.36 710.8,1335.5 712.868,1335.63 714.936,1335.77 717.005,1335.9 719.073,1336.03 721.141,1336.16 723.209,1336.29 725.277,1336.42 727.345,1336.55 729.413,1336.68 731.481,1336.8 733.549,1336.93 735.618,1337.05 737.686,1337.17 739.754,1337.3 741.822,1337.42 743.89,1337.54 745.958,1337.66 748.026,1337.77 750.094,1337.89 752.162,1338.01 754.231,1338.12 756.299,1338.24 758.367,1338.35 760.435,1338.46 762.503,1338.57 764.571,1338.68 766.639,1338.79 768.707,1338.9 770.775,1339.01 772.844,1339.12 774.912,1339.23 776.98,1339.33 779.048,1339.44 781.116,1339.54 783.184,1339.64 785.252,1339.75 787.32,1339.85 789.388,1339.95 791.457,1340.05 793.525,1340.15 795.593,1340.25 797.661,1340.34 799.729,1340.44 801.797,1340.54 803.865,1340.63 805.933,1340.73 808.001,1340.82 810.07,1340.91 812.138,1341.01 814.206,1341.1 816.274,1341.19 818.342,1341.28 820.41,1341.37 822.478,1341.46 824.546,1341.55 826.614,1341.63 828.683,1341.72 830.751,1341.81 832.819,1341.89 834.887,1341.98 836.955,1342.06 839.023,1342.15 841.091,1342.23 843.159,1342.31 845.227,1342.39 847.295,1342.47 849.364,1342.55 851.432,1342.63 853.5,1342.71 855.568,1342.79 857.636,1342.87 859.704,1342.95 861.772,1343.02 863.84,1343.1 865.908,1343.17 867.977,1343.25 870.045,1343.32 872.113,1343.4 874.181,1343.47 876.249,1343.54 878.317,1343.61 880.385,1343.69 882.453,1343.76 884.521,1343.83 886.59,1343.9 888.658,1343.97 890.726,1344.03 892.794,1344.1 894.862,1344.17 896.93,1344.24 898.998,1344.3 901.066,1344.37 903.134,1344.43 905.203,1344.5 907.271,1344.56 909.339,1344.63 911.407,1344.69 913.475,1344.75 915.543,1344.81 917.611,1344.88 919.679,1344.94 921.747,1345 923.816,1345.06 925.884,1345.12 927.952,1345.18 930.02,1345.24 932.088,1345.29 934.156,1345.35 936.224,1345.41 938.292,1345.47 940.36,1345.52 942.429,1345.58 944.497,1345.63 946.565,1345.69 948.633,1345.74 950.701,1345.8 952.769,1345.85 954.837,1345.9 956.905,1345.95 958.973,1346.01 961.042,1346.06 963.11,1346.11 965.178,1346.16 967.246,1346.21 969.314,1346.26 971.382,1346.31 973.45,1346.36 975.518,1346.41 977.586,1346.45 979.655,1346.5 981.723,1346.55 983.791,1346.6 985.859,1346.64 987.927,1346.69 989.995,1346.73 992.063,1346.78 994.131,1346.82 996.199,1346.87 998.268,1346.91 1000.34,1346.95 1002.4,1347 1004.47,1347.04 1006.54,1347.08 1008.61,1347.12 1010.68,1347.16 1012.74,1347.2 1014.81,1347.24 1016.88,1347.28 1018.95,1347.32 1021.02,1347.36 1023.08,1347.4 1025.15,1347.44 1027.22,1347.48 1029.29,1347.52 1031.36,1347.55 1033.43,1347.59 1035.49,1347.63 1037.56,1347.66 1039.63,1347.7 1041.7,1347.73 1043.77,1347.77 1045.83,1347.8 1047.9,1347.84 1049.97,1347.87 1052.04,1347.91 1054.11,1347.94 1056.17,1347.97 1058.24,1348 1060.31,1348.04 1062.38,1348.07 1064.45,1348.1 1066.52,1348.13 1068.58,1348.16 1070.65,1348.19 1072.72,1348.22 1074.79,1348.25 1076.86,1348.28 1078.92,1348.31 1080.99,1348.34 1083.06,1348.36 1085.13,1348.39 1087.2,1348.42 1089.26,1348.45 1091.33,1348.47 1093.4,1348.5 1095.47,1348.52 1097.54,1348.55 1099.6,1348.57 1101.67,1348.6 1103.74,1348.62 1105.81,1348.65 1107.88,1348.67 1109.95,1348.69 1112.01,1348.72 1114.08,1348.74 1116.15,1348.76 1118.22,1348.79 1120.29,1348.81 1122.35,1348.83 1124.42,1348.85 1126.49,1348.87 1128.56,1348.89 1130.63,1348.91 1132.69,1348.93 1134.76,1348.95 1136.83,1348.97 1138.9,1348.99 1140.97,1349.01 1143.04,1349.02 1145.1,1349.04 1147.17,1349.06 1149.24,1349.08 1151.31,1349.09 1153.38,1349.11 1155.44,1349.12 1157.51,1349.14 1159.58,1349.16 1161.65,1349.17 1163.72,1349.19 1165.78,1349.2 1167.85,1349.21 1169.92,1349.23 1171.99,1349.24 1174.06,1349.25 1176.13,1349.27 1178.19,1349.28 1180.26,1349.29 1182.33,1349.3 1184.4,1349.32 1186.47,1349.33 1188.53,1349.34 1190.6,1349.35 1192.67,1349.36 1194.74,1349.37 1196.81,1349.38 1198.87,1349.39 1200.94,1349.4 1203.01,1349.4 1205.08,1349.41 1207.15,1349.42 1209.21,1349.43 1211.28,1349.44 1213.35,1349.44 1215.42,1349.45 1217.49,1349.46 1219.56,1349.46 1221.62,1349.47 1223.69,1349.47 1225.76,1349.48 1227.83,1349.48 1229.9,1349.49 1231.96,1349.49 1234.03,1349.5 1236.1,1349.5 1238.17,1349.5 1240.24,1349.51 1242.3,1349.51 1244.37,1349.51 1246.44,1349.51 1248.51,1349.51 1250.58,1349.52 1252.65,1349.52 1254.71,1349.52 1256.78,1349.52 1258.85,1349.52 1260.92,1349.52 1262.99,1349.52 1265.05,1349.52 1267.12,1349.52 1269.19,1349.51 1271.26,1349.51 1273.33,1349.51 1275.39,1349.51 1277.46,1349.51 1279.53,1349.5 1281.6,1349.5 1283.67,1349.5 1285.73,1349.49 1287.8,1349.49 1289.87,1349.48 1291.94,1349.48 1294.01,1349.47 1296.08,1349.47 1298.14,1349.46 1300.21,1349.46 1302.28,1349.45 1304.35,1349.44 1306.42,1349.44 1308.48,1349.43 1310.55,1349.42 1312.62,1349.41 1314.69,1349.4 1316.76,1349.4 1318.82,1349.39 1320.89,1349.38 1322.96,1349.37 1325.03,1349.36 1327.1,1349.35 1329.17,1349.34 1331.23,1349.33 1333.3,1349.32 1335.37,1349.3 1337.44,1349.29 1339.51,1349.28 1341.57,1349.27 1343.64,1349.25 1345.71,1349.24 1347.78,1349.23 1349.85,1349.21 1351.91,1349.2 1353.98,1349.19 1356.05,1349.17 1358.12,1349.16 1360.19,1349.14 1362.26,1349.12 1364.32,1349.11 1366.39,1349.09 1368.46,1349.08 1370.53,1349.06 1372.6,1349.04 1374.66,1349.02 1376.73,1349.01 1378.8,1348.99 1380.87,1348.97 1382.94,1348.95 1385,1348.93 1387.07,1348.91 1389.14,1348.89 1391.21,1348.87 1393.28,1348.85 1395.34,1348.83 1397.41,1348.81 1399.48,1348.79 1401.55,1348.76 1403.62,1348.74 1405.69,1348.72 1407.75,1348.69 1409.82,1348.67 1411.89,1348.65 1413.96,1348.62 1416.03,1348.6 1418.09,1348.57 1420.16,1348.55 1422.23,1348.52 1424.3,1348.5 1426.37,1348.47 1428.43,1348.45 1430.5,1348.42 1432.57,1348.39 1434.64,1348.36 1436.71,1348.34 1438.78,1348.31 1440.84,1348.28 1442.91,1348.25 1444.98,1348.22 1447.05,1348.19 1449.12,1348.16 1451.18,1348.13 1453.25,1348.1 1455.32,1348.07 1457.39,1348.04 1459.46,1348 1461.52,1347.97 1463.59,1347.94 1465.66,1347.91 1467.73,1347.87 1469.8,1347.84 1471.86,1347.8 1473.93,1347.77 1476,1347.73 1478.07,1347.7 1480.14,1347.66 1482.21,1347.63 1484.27,1347.59 1486.34,1347.55 1488.41,1347.52 1490.48,1347.48 1492.55,1347.44 1494.61,1347.4 1496.68,1347.36 1498.75,1347.32 1500.82,1347.28 1502.89,1347.24 1504.95,1347.2 1507.02,1347.16 1509.09,1347.12 1511.16,1347.08 1513.23,1347.04 1515.3,1347 1517.36,1346.95 1519.43,1346.91 1521.5,1346.87 1523.57,1346.82 1525.64,1346.78 1527.7,1346.73 1529.77,1346.69 1531.84,1346.64 1533.91,1346.6 1535.98,1346.55 1538.04,1346.5 1540.11,1346.45 1542.18,1346.41 1544.25,1346.36 1546.32,1346.31 1548.38,1346.26 1550.45,1346.21 1552.52,1346.16 1554.59,1346.11 1556.66,1346.06 1558.73,1346.01 1560.79,1345.95 1562.86,1345.9 1564.93,1345.85 1567,1345.8 1569.07,1345.74 1571.13,1345.69 1573.2,1345.63 1575.27,1345.58 1577.34,1345.52 1579.41,1345.47 1581.47,1345.41 1583.54,1345.35 1585.61,1345.29 1587.68,1345.24 1589.75,1345.18 1591.82,1345.12 1593.88,1345.06 1595.95,1345 1598.02,1344.94 1600.09,1344.88 1602.16,1344.81 1604.22,1344.75 1606.29,1344.69 1608.36,1344.63 1610.43,1344.56 1612.5,1344.5 1614.56,1344.43 1616.63,1344.37 1618.7,1344.3 1620.77,1344.24 1622.84,1344.17 1624.91,1344.1 1626.97,1344.03 1629.04,1343.97 1631.11,1343.9 1633.18,1343.83 1635.25,1343.76 1637.31,1343.69 1639.38,1343.61 1641.45,1343.54 1643.52,1343.47 1645.59,1343.4 1647.65,1343.32 1649.72,1343.25 1651.79,1343.17 1653.86,1343.1 1655.93,1343.02 1657.99,1342.95 1660.06,1342.87 1662.13,1342.79 1664.2,1342.71 1666.27,1342.63 1668.34,1342.55 1670.4,1342.47 1672.47,1342.39 1674.54,1342.31 1676.61,1342.23 1678.68,1342.15 1680.74,1342.06 1682.81,1341.98 1684.88,1341.89 1686.95,1341.81 1689.02,1341.72 1691.08,1341.63 1693.15,1341.55 1695.22,1341.46 1697.29,1341.37 1699.36,1341.28 1701.43,1341.19 1703.49,1341.1 1705.56,1341.01 1707.63,1340.91 1709.7,1340.82 1711.77,1340.73 1713.83,1340.63 1715.9,1340.54 1717.97,1340.44 1720.04,1340.34 1722.11,1340.25 1724.17,1340.15 1726.24,1340.05 1728.31,1339.95 1730.38,1339.85 1732.45,1339.75 1734.51,1339.64 1736.58,1339.54 1738.65,1339.44 1740.72,1339.33 1742.79,1339.23 1744.86,1339.12 1746.92,1339.01 1748.99,1338.9 1751.06,1338.79 1753.13,1338.68 1755.2,1338.57 1757.26,1338.46 1759.33,1338.35 1761.4,1338.24 1763.47,1338.12 1765.54,1338.01 1767.6,1337.89 1769.67,1337.77 1771.74,1337.66 1773.81,1337.54 1775.88,1337.42 1777.95,1337.3 1780.01,1337.17 1782.08,1337.05 1784.15,1336.93 1786.22,1336.8 1788.29,1336.68 1790.35,1336.55 1792.42,1336.42 1794.49,1336.29 1796.56,1336.16 1798.63,1336.03 1800.69,1335.9 1802.76,1335.77 1804.83,1335.63 1806.9,1335.5 1808.97,1335.36 1811.04,1335.22 1813.1,1335.08 1815.17,1334.94 1817.24,1334.8 1819.31,1334.66 1821.38,1334.52 1823.44,1334.37 1825.51,1334.23 1827.58,1334.08 1829.65,1333.93 1831.72,1333.78 1833.78,1333.63 1835.85,1333.48 1837.92,1333.32 1839.99,1333.17 1842.06,1333.01 1844.12,1332.86 1846.19,1332.7 1848.26,1332.54 1850.33,1332.38 1852.4,1332.21 1854.47,1332.05 1856.53,1331.88 1858.6,1331.72 1860.67,1331.55 1862.74,1331.38 1864.81,1331.2 1866.87,1331.03 1868.94,1330.86 1871.01,1330.68 1873.08,1330.5 1875.15,1330.32 1877.21,1330.14 1879.28,1329.96 1881.35,1329.78 1883.42,1329.59 1885.49,1329.4 1887.56,1329.21 1889.62,1329.02 1891.69,1328.83 1893.76,1328.64 1895.83,1328.44 1897.9,1328.24 1899.96,1328.04 1902.03,1327.84 1904.1,1327.64 1906.17,1327.43 1908.24,1327.22 1910.3,1327.01 1912.37,1326.8 1914.44,1326.59 1916.51,1326.37 1918.58,1326.16 1920.64,1325.94 1922.71,1325.71 1924.78,1325.49 1926.85,1325.26 1928.92,1325.04 1930.99,1324.8 1933.05,1324.57 1935.12,1324.34 1937.19,1324.1 1939.26,1323.86 1941.33,1323.62 1943.39,1323.37 1945.46,1323.12 1947.53,1322.87 1949.6,1322.62 1951.67,1322.37 1953.73,1322.11 1955.8,1321.85 1957.87,1321.59 1959.94,1321.32 1962.01,1321.05 1964.08,1320.78 1966.14,1320.51 1968.21,1320.23 1970.28,1319.95 1972.35,1319.67 1974.42,1319.38 1976.48,1319.09 1978.55,1318.8 1980.62,1318.5 1982.69,1318.2 1984.76,1317.9 1986.82,1317.6 1988.89,1317.29 1990.96,1316.97 1993.03,1316.66 1995.1,1316.34 1997.16,1316.01 1999.23,1315.69 2001.3,1315.35 2003.37,1315.02 2005.44,1314.68 2007.51,1314.34 2009.57,1313.99 2011.64,1313.64 2013.71,1313.28 2015.78,1312.92 2017.85,1312.56 2019.91,1312.19 2021.98,1311.82 2024.05,1311.44 2026.12,1311.06 2028.19,1310.67 2030.25,1310.28 2032.32,1309.88 2034.39,1309.47 2036.46,1309.07 2038.53,1308.65 2040.6,1308.23 2042.66,1307.81 2044.73,1307.38 2046.8,1306.94 2048.87,1306.5 2050.94,1306.05 2053,1305.6 2055.07,1305.14 2057.14,1304.67 2059.21,1304.2 2061.28,1303.72 2063.34,1303.23 2065.41,1302.73 2067.48,1302.23 2069.55,1301.72 2071.62,1301.21 2073.69,1300.68 2075.75,1300.15 2077.82,1299.61 2079.89,1299.06 2081.96,1298.5 2084.03,1297.94 2086.09,1297.36 2088.16,1296.78 2090.23,1296.19 2092.3,1295.58 2094.37,1294.97 2096.43,1294.35 2098.5,1293.71 2100.57,1293.07 2102.64,1292.41 2104.71,1291.75 2106.77,1291.07 2108.84,1290.38 2110.91,1289.67 2112.98,1288.96 2115.05,1288.23 2117.12,1287.49 2119.18,1286.73 2121.25,1285.96 2123.32,1285.18 2125.39,1284.38 2127.46,1283.57 2129.52,1282.74 2131.59,1281.89 2133.66,1281.02 2135.73,1280.14 2137.8,1279.24 2139.86,1278.32 2141.93,1277.38 2144,1276.42 2146.07,1275.44 2148.14,1274.44 2150.21,1273.42 2152.27,1272.37 2154.34,1271.3 2156.41,1270.2 2158.48,1269.08 2160.55,1267.93 2162.61,1266.75 2164.68,1265.55 2166.75,1264.31 2168.82,1263.04 2170.89,1261.74 2172.95,1260.4 2175.02,1259.03 2177.09,1257.62 2179.16,1256.17 2181.23,1254.68 2183.29,1253.15 2185.36,1251.57 2187.43,1249.95 2189.5,1248.27 2191.57,1246.55 2193.64,1244.76 2195.7,1242.92 2197.77,1241.02 2199.84,1239.06 2201.91,1237.03 2203.98,1234.92 2206.04,1232.74 2208.11,1230.48 2210.18,1228.14 2212.25,1225.7 2214.32,1223.16 2216.38,1220.52 2218.45,1217.77 2220.52,1214.91 2222.59,1211.91 2224.66,1208.78 2226.73,1205.5 2228.79,1202.06 2230.86,1198.45 2232.93,1194.65 2235,1190.64 2237.07,1186.42 2239.13,1181.94 2241.2,1177.2 2243.27,1172.17 2245.34,1166.81 2247.41,1161.08 2249.47,1154.94 2251.54,1148.35 2253.61,1141.23 2255.68,1133.53 2257.75,1125.16 2259.82,1116 2261.88,1105.94 2263.95,1094.82 2266.02,1082.42 2268.09,1068.51 2270.16,1052.72 2272.22,1034.61 2274.29,1013.56 2276.36,988.654 2278.43,958.573 2280.5,921.236 2282.56,873.17 2284.63,808.022 2286.7,712.508 2288.77,552.2 2290.84,190.154 "/>
</svg>
